# This file uses centimeters as units for non-parametric coordinates.

g default
v -0.204245 -0.021432 0.467117
v 0.204245 -0.021432 0.467117
v -0.204245 0.021432 0.467117
v 0.204245 0.021432 0.467117
v -0.204245 0.021432 -0.467117
v 0.204245 0.021432 -0.467117
v -0.204245 -0.021432 -0.467117
v 0.204245 -0.021432 -0.467117
v 0.204245 0.021432 -0.422629
v -0.204245 0.021432 -0.422629
v -0.204245 -0.021432 -0.422629
v 0.204245 -0.021432 -0.422629
v 0.204245 0.021432 0.422629
v -0.204245 0.021432 0.422629
v -0.204245 -0.021432 0.422629
v 0.204245 -0.021432 0.422629
v 0.158857 0.021432 0.467117
v 0.158857 0.021432 0.422629
v 0.158857 0.021432 -0.422629
v 0.158857 0.021432 -0.467117
v 0.158857 -0.021432 -0.467117
v 0.158857 -0.021432 -0.422629
v 0.158857 -0.021432 0.422629
v 0.158857 -0.021432 0.467117
v -0.158857 0.021432 0.467117
v -0.158857 0.021432 0.422629
v -0.158857 0.021432 -0.422629
v -0.158857 0.021432 -0.467117
v -0.158857 -0.021432 -0.467117
v -0.158857 -0.021432 -0.422629
v -0.158857 -0.021432 0.422629
v -0.158857 -0.021432 0.467117
v -0.198570 -0.126196 0.446949
v -0.175467 -0.126196 0.446949
v -0.175467 -0.126196 0.469593
v -0.198570 -0.126196 0.469593
v -0.196380 -0.126196 -0.467447
v -0.177656 -0.126196 -0.467447
v -0.177656 -0.126196 -0.449094
v -0.196380 -0.126196 -0.449094
v 0.178642 -0.126196 -0.466481
v 0.178642 -0.126196 -0.450060
v 0.195395 -0.126196 -0.466481
v 0.195395 -0.126196 -0.450060
v 0.175458 -0.126196 0.446939
v 0.175458 -0.126196 0.469602
v 0.198579 -0.126196 0.446939
v 0.198579 -0.126196 0.469602
vt 0.375000 0.000000
vt 0.625000 0.000000
vt 0.375000 0.250000
vt 0.625000 0.250000
vt 0.375000 0.500000
vt 0.625000 0.500000
vt 0.375000 0.750000
vt 0.625000 0.750000
vt 0.375000 1.000000
vt 0.625000 1.000000
vt 0.875000 0.000000
vt 0.875000 0.250000
vt 0.125000 0.000000
vt 0.125000 0.250000
vt 0.625000 0.488095
vt 0.863095 0.250000
vt 0.136905 0.250000
vt 0.375000 0.488095
vt 0.136905 0.000000
vt 0.375000 0.761905
vt 0.625000 0.761905
vt 0.863095 0.000000
vt 0.625000 0.261905
vt 0.636905 0.250000
vt 0.363095 0.250000
vt 0.375000 0.261905
vt 0.363095 0.000000
vt 0.375000 0.988095
vt 0.625000 0.988095
vt 0.636905 0.000000
vt 0.597222 0.250000
vt 0.597222 0.261905
vt 0.597222 0.488095
vt 0.597222 0.500000
vt 0.597222 0.750000
vt 0.597222 0.761905
vt 0.597222 0.988095
vt 0.597222 0.000000
vt 0.597222 1.000000
vt 0.402778 0.250000
vt 0.402778 0.261905
vt 0.402778 0.488095
vt 0.402778 0.500000
vt 0.402778 0.750000
vt 0.402778 0.761905
vt 0.402778 0.988095
vt 0.402778 0.000000
vt 0.402778 1.000000
vt 0.375000 0.988095
vt 0.402778 0.988095
vt 0.402778 1.000000
vt 0.375000 1.000000
vt 0.375000 0.750000
vt 0.402778 0.750000
vt 0.402778 0.761905
vt 0.375000 0.761905
vt 0.597222 0.761905
vt 0.597222 0.750000
vt 0.625000 0.750000
vt 0.625000 0.761905
vt 0.597222 1.000000
vt 0.597222 0.988095
vt 0.625000 0.988095
vt 0.625000 1.000000
vn 0.000000 0.000000 1.000000
vn 0.000000 0.000000 1.000000
vn 0.000000 0.000000 1.000000
vn 0.000000 0.000000 1.000000
vn 0.000000 1.000000 0.000000
vn 0.000000 1.000000 0.000000
vn 0.000000 1.000000 0.000000
vn 0.000000 1.000000 0.000000
vn 0.000000 0.000000 -1.000000
vn 0.000000 0.000000 -1.000000
vn 0.000000 0.000000 -1.000000
vn 0.000000 0.000000 -1.000000
vn 0.000000 -1.000000 0.000000
vn 0.000000 -1.000000 0.000000
vn 0.000000 -1.000000 0.000000
vn 0.000000 -1.000000 0.000000
vn 1.000000 0.000000 0.000000
vn 1.000000 0.000000 0.000000
vn 1.000000 0.000000 0.000000
vn 1.000000 0.000000 0.000000
vn -1.000000 0.000000 0.000000
vn -1.000000 0.000000 0.000000
vn -1.000000 0.000000 0.000000
vn -1.000000 0.000000 0.000000
vn 0.000000 1.000000 0.000000
vn 0.000000 1.000000 0.000000
vn 0.000000 1.000000 0.000000
vn 0.000000 1.000000 0.000000
vn -1.000000 0.000000 0.000000
vn -1.000000 0.000000 0.000000
vn -1.000000 0.000000 0.000000
vn -1.000000 0.000000 0.000000
vn 0.000000 -1.000000 0.000000
vn 0.000000 -1.000000 0.000000
vn 0.000000 -1.000000 0.000000
vn 0.000000 -1.000000 0.000000
vn 1.000000 0.000000 0.000000
vn 1.000000 0.000000 0.000000
vn 1.000000 0.000000 0.000000
vn 1.000000 0.000000 0.000000
vn 0.000000 -1.000000 0.000000
vn 0.000000 -1.000000 0.000000
vn 0.000000 -1.000000 0.000000
vn 0.000000 -1.000000 0.000000
vn 0.000000 1.000000 0.000000
vn 0.000000 1.000000 0.000000
vn 0.000000 1.000000 0.000000
vn 0.000000 1.000000 0.000000
vn 0.000000 1.000000 0.000000
vn 0.000000 1.000000 0.000000
vn 0.000000 1.000000 0.000000
vn 0.000000 1.000000 0.000000
vn 0.000000 0.000000 -1.000000
vn 0.000000 0.000000 -1.000000
vn 0.000000 0.000000 -1.000000
vn 0.000000 0.000000 -1.000000
vn 0.000000 -1.000000 0.000000
vn 0.000000 -1.000000 0.000000
vn 0.000000 -1.000000 0.000000
vn 0.000000 -1.000000 0.000000
vn 0.000000 -1.000000 0.000000
vn 0.000000 -1.000000 0.000000
vn 0.000000 -1.000000 0.000000
vn 0.000000 -1.000000 0.000000
vn 0.000000 -1.000000 0.000000
vn 0.000000 -1.000000 0.000000
vn 0.000000 -1.000000 0.000000
vn 0.000000 -1.000000 0.000000
vn 0.000000 0.000000 1.000000
vn 0.000000 0.000000 1.000000
vn 0.000000 0.000000 1.000000
vn 0.000000 0.000000 1.000000
vn 0.000000 -1.000000 0.000000
vn 0.000000 -1.000000 0.000000
vn 0.000000 -1.000000 0.000000
vn 0.000000 -1.000000 0.000000
vn 0.000000 -0.226120 -0.974099
vn 0.000000 -0.226120 -0.974099
vn 0.000000 -0.226120 -0.974099
vn 0.000000 -0.226120 -0.974099
vn 0.987663 -0.156592 0.000000
vn 0.987663 -0.156592 0.000000
vn 0.987663 -0.156592 0.000000
vn 0.987663 -0.156592 0.000000
vn 0.000000 0.023626 0.999721
vn 0.000000 0.023626 0.999721
vn 0.000000 0.023626 0.999721
vn 0.000000 0.023626 0.999721
vn -0.998536 -0.054092 0.000000
vn -0.998536 -0.054092 0.000000
vn -0.998536 -0.054092 0.000000
vn -0.998536 -0.054092 0.000000
vn 0.000000 0.003152 -0.999995
vn 0.000000 0.003152 -0.999995
vn 0.000000 0.003152 -0.999995
vn 0.000000 0.003152 -0.999995
vn 0.984279 -0.176623 0.000000
vn 0.984279 -0.176623 0.000000
vn 0.984279 -0.176623 0.000000
vn 0.984279 -0.176623 0.000000
vn 0.000000 -0.244920 0.969543
vn 0.000000 -0.244920 0.969543
vn 0.000000 -0.244920 0.969543
vn 0.000000 -0.244920 0.969543
vn -0.997194 -0.074856 0.000000
vn -0.997194 -0.074856 0.000000
vn -0.997194 -0.074856 0.000000
vn -0.997194 -0.074856 0.000000
vn -0.982631 -0.185569 0.000000
vn -0.982631 -0.185569 0.000000
vn -0.982631 -0.185569 0.000000
vn -0.982631 -0.185569 0.000000
vn 0.000000 -0.006067 -0.999982
vn 0.000000 -0.006067 -0.999982
vn 0.000000 -0.006067 -0.999982
vn 0.000000 -0.006067 -0.999982
vn 0.996451 -0.084173 0.000000
vn 0.996451 -0.084173 0.000000
vn 0.996451 -0.084173 0.000000
vn 0.996451 -0.084173 0.000000
vn 0.000000 -0.253293 0.967390
vn 0.000000 -0.253293 0.967390
vn 0.000000 -0.253293 0.967390
vn 0.000000 -0.253293 0.967390
vn -0.987677 -0.156505 0.000000
vn -0.987677 -0.156505 0.000000
vn -0.987677 -0.156505 0.000000
vn -0.987677 -0.156505 0.000000
vn 0.000000 -0.226038 -0.974119
vn 0.000000 -0.226038 -0.974119
vn 0.000000 -0.226038 -0.974119
vn 0.000000 -0.226038 -0.974119
vn 0.998541 -0.054002 0.000000
vn 0.998541 -0.054002 0.000000
vn 0.998541 -0.054002 0.000000
vn 0.998541 -0.054002 0.000000
vn 0.000000 0.023715 0.999719
vn 0.000000 0.023715 0.999719
vn 0.000000 0.023715 0.999719
vn 0.000000 0.023715 0.999719
s 1
g bench bench
f 1/1/1 32/47/2 25/40/3 3/3/4
s 2
f 3/3/5 25/40/6 26/41/7 14/26/8
s 3
f 5/5/9 28/43/10 29/44/11 7/7/12
s off
f 33/49/13 34/50/14 35/51/15 36/52/16
s 4
f 2/2/17 16/30/18 13/24/19 4/4/20
s 5
f 15/27/21 1/1/22 3/3/23 14/25/24
s 2
f 10/18/25 27/42/26 28/43/27 5/5/28
s 5
f 7/13/29 11/19/30 10/17/31 5/14/32
s off
f 37/53/33 38/54/34 39/55/35 40/56/36
s 4
f 9/16/37 12/22/38 8/11/39 6/12/40
s 2
f 10/18/25 14/26/8 26/41/7 27/42/26
s 5
f 11/19/30 15/27/21 14/25/24 10/17/31
s 6
f 30/45/41 31/46/42 15/28/43 11/20/44
s 4
f 9/16/37 13/24/19 16/30/18 12/22/38
s 2
f 17/31/45 4/4/46 13/23/47 18/32/48
f 18/32/48 13/23/47 9/15/49 19/33/50
f 20/34/51 19/33/50 9/15/49 6/6/52
s 3
f 21/35/53 20/34/54 6/6/55 8/8/56
s off
f 42/57/57 41/58/58 43/59/59 44/60/60
s 6
f 12/21/61 16/29/62 23/37/63 22/36/64
s off
f 46/61/65 45/62/66 47/63/67 48/64/68
s 1
f 17/31/69 24/38/70 2/2/71 4/4/72
s 2
f 18/32/48 26/41/7 25/40/6 17/31/45
f 19/33/50 27/42/26 26/41/7 18/32/48
f 20/34/51 28/43/27 27/42/26 19/33/50
s 3
f 21/35/53 29/44/11 28/43/10 20/34/54
s 6
f 22/36/64 30/45/41 29/44/73 21/35/74
f 23/37/63 31/46/42 30/45/41 22/36/64
f 24/39/75 32/48/76 31/46/42 23/37/63
s 1
f 17/31/69 25/40/3 32/47/2 24/38/70
s off
f 15/28/77 31/46/78 34/50/79 33/49/80
f 31/46/81 32/48/82 35/51/83 34/50/84
f 32/48/85 1/9/86 36/52/87 35/51/88
f 1/9/89 15/28/90 33/49/91 36/52/92
f 7/7/93 29/44/94 38/54/95 37/53/96
f 29/44/97 30/45/98 39/55/99 38/54/100
f 30/45/101 11/20/102 40/56/103 39/55/104
f 11/20/105 7/7/106 37/53/107 40/56/108
f 22/36/109 21/35/110 41/58/111 42/57/112
f 21/35/113 8/8/114 43/59/115 41/58/116
f 8/8/117 12/21/118 44/60/119 43/59/120
f 12/21/121 22/36/122 42/57/123 44/60/124
f 24/39/125 23/37/126 45/62/127 46/61/128
f 23/37/129 16/29/130 47/63/131 45/62/132
f 16/29/133 2/10/134 48/64/135 47/63/136
f 2/10/137 24/39/138 46/61/139 48/64/140
g default
v -0.202986 0.021432 0.464238
v 0.202986 0.021432 0.464238
v -0.202986 0.073365 0.464238
v 0.202986 0.073365 0.464238
v -0.202986 0.073365 -0.464238
v 0.202986 0.073365 -0.464238
v -0.202986 0.021432 -0.464238
v 0.202986 0.021432 -0.464238
v -0.197384 0.084327 0.451425
v 0.197384 0.084327 0.451425
v 0.197384 0.084327 -0.451425
v -0.197384 0.084327 -0.451425
vt 0.375000 0.000000
vt 0.625000 0.000000
vt 0.375000 0.250000
vt 0.625000 0.250000
vt 0.375000 0.500000
vt 0.625000 0.500000
vt 0.375000 0.750000
vt 0.625000 0.750000
vt 0.375000 1.000000
vt 0.625000 1.000000
vt 0.875000 0.000000
vt 0.875000 0.250000
vt 0.125000 0.000000
vt 0.125000 0.250000
vt 0.375000 0.250000
vt 0.625000 0.250000
vt 0.625000 0.500000
vt 0.375000 0.500000
vn 0.000000 0.000000 1.000000
vn 0.000000 0.000000 1.000000
vn 0.000000 0.000000 1.000000
vn 0.000000 0.000000 1.000000
vn 0.000000 1.000000 0.000000
vn 0.000000 1.000000 0.000000
vn 0.000000 1.000000 0.000000
vn 0.000000 1.000000 0.000000
vn 0.000000 0.000000 -1.000000
vn 0.000000 0.000000 -1.000000
vn 0.000000 0.000000 -1.000000
vn 0.000000 0.000000 -1.000000
vn 0.000000 -1.000000 0.000000
vn 0.000000 -1.000000 0.000000
vn 0.000000 -1.000000 0.000000
vn 0.000000 -1.000000 0.000000
vn 1.000000 0.000000 0.000000
vn 1.000000 0.000000 0.000000
vn 1.000000 0.000000 0.000000
vn 1.000000 0.000000 0.000000
vn -1.000000 0.000000 0.000000
vn -1.000000 0.000000 0.000000
vn -1.000000 0.000000 0.000000
vn -1.000000 0.000000 0.000000
vn 0.000000 0.759868 0.650078
vn 0.000000 0.759868 0.650078
vn 0.000000 0.759868 0.650078
vn 0.000000 0.759868 0.650078
vn 0.890442 0.455096 0.000000
vn 0.890442 0.455096 0.000000
vn 0.890442 0.455096 0.000000
vn 0.890442 0.455096 0.000000
vn 0.000000 0.759868 -0.650078
vn 0.000000 0.759868 -0.650078
vn 0.000000 0.759868 -0.650078
vn 0.000000 0.759868 -0.650078
vn -0.890442 0.455096 0.000000
vn -0.890442 0.455096 0.000000
vn -0.890442 0.455096 0.000000
vn -0.890442 0.455096 0.000000
s off
g bench pillow
f 49/65/141 50/66/142 52/68/143 51/67/144
f 57/79/145 58/80/146 59/81/147 60/82/148
f 53/69/149 54/70/150 56/72/151 55/71/152
f 55/71/153 56/72/154 50/74/155 49/73/156
f 50/66/157 56/75/158 54/76/159 52/68/160
f 55/77/161 49/65/162 51/67/163 53/78/164
f 51/67/165 52/68/166 58/80/167 57/79/168
f 52/68/169 54/70/170 59/81/171 58/80/172
f 54/70/173 53/69/174 60/82/175 59/81/176
f 53/69/177 51/67/178 57/79/179 60/82/180
