# This file uses centimeters as units for non-parametric coordinates.

g default
v 0.372593 0.351549 0.329621
v 1.000000 0.351549 0.329621
v 0.372593 0.429912 0.329621
v 1.000000 0.429912 0.329621
v 0.372593 0.429912 -0.329621
v 1.000000 0.429912 -0.329621
v 0.372593 0.351549 -0.329621
v 1.000000 0.351549 -0.329621
v 0.955185 0.429912 0.329621
v 0.955185 0.429912 -0.329621
v 0.955185 0.351549 -0.329621
v 0.955185 0.351549 0.329621
v 0.417407 0.429912 0.329621
v 0.417407 0.429912 -0.329621
v 0.417407 0.351549 -0.329621
v 0.417407 0.351549 0.329621
v 0.372593 0.429912 -0.282532
v 0.372593 0.351549 -0.282532
v 0.417407 0.351549 -0.282532
v 0.955185 0.351549 -0.282532
v 1.000000 0.351549 -0.282532
v 1.000000 0.429912 -0.282532
v 0.955185 0.429912 -0.282532
v 0.417407 0.429912 -0.282532
v 0.372593 0.429912 0.282532
v 0.372593 0.351549 0.282532
v 0.417407 0.351549 0.282532
v 0.955185 0.351549 0.282532
v 1.000000 0.351549 0.282532
v 1.000000 0.429912 0.282532
v 0.955185 0.429912 0.282532
v 0.417407 0.429912 0.282532
v 0.372593 -0.000000 0.282532
v 0.417407 -0.000000 0.282532
v 0.417407 -0.000000 0.329621
v 0.372593 -0.000000 0.329621
v 0.955185 -0.000000 0.282532
v 0.955185 -0.000000 0.329621
v 1.000000 -0.000000 0.282532
v 1.000000 -0.000000 0.329621
v 0.955185 -0.000000 -0.282532
v 1.000000 -0.000000 -0.282532
v 0.955185 -0.000000 -0.329621
v 1.000000 -0.000000 -0.329621
v 0.372593 -0.000000 -0.329621
v 0.417407 -0.000000 -0.329621
v 0.417407 -0.000000 -0.282532
v 0.372593 -0.000000 -0.282532
v 0.372593 0.512108 0.329621
v 0.417407 0.512108 0.329621
v 0.417407 0.512108 0.282532
v 0.372593 0.512108 0.282532
v 0.417407 0.512108 -0.282532
v 0.372593 0.512108 -0.282532
v 0.417407 0.512108 -0.329621
v 0.372593 0.512108 -0.329621
v 0.366438 0.604422 0.329621
v 0.411253 0.604422 0.329621
v 0.411253 0.604422 0.282532
v 0.366438 0.604422 0.282532
v 0.411253 0.604422 -0.282532
v 0.366438 0.604422 -0.282532
v 0.411253 0.604422 -0.329621
v 0.366438 0.604422 -0.329621
v 0.351785 0.709044 0.329621
v 0.396600 0.709044 0.329621
v 0.396600 0.709044 0.282532
v 0.351785 0.709044 0.282532
v 0.396600 0.709044 -0.282532
v 0.351785 0.709044 -0.282532
v 0.396600 0.709044 -0.329621
v 0.351785 0.709044 -0.329621
v 0.327902 0.819820 0.329621
v 0.372717 0.819820 0.329621
v 0.372717 0.819820 0.282532
v 0.327902 0.819820 0.282532
v 0.372717 0.819820 -0.282532
v 0.327902 0.819820 -0.282532
v 0.372717 0.819820 -0.329621
v 0.327902 0.819820 -0.329621
v 0.286438 0.942904 0.329621
v 0.331253 0.942904 0.329621
v 0.331253 0.942904 0.282532
v 0.286438 0.942904 0.282532
v 0.331253 0.942904 -0.282532
v 0.286438 0.942904 -0.282532
v 0.331253 0.942904 -0.329621
v 0.286438 0.942904 -0.329621
v 0.240713 1.043080 0.329621
v 0.285528 1.043080 0.329621
v 0.285528 1.043080 0.282532
v 0.240713 1.043080 0.282532
v 0.285528 1.043080 -0.282532
v 0.240713 1.043080 -0.282532
v 0.285528 1.043080 -0.329621
v 0.240713 1.043080 -0.329621
v 0.191266 1.149004 0.329621
v 0.236081 1.149004 0.329621
v 0.236081 1.149004 0.282532
v 0.191266 1.149004 0.282532
v 0.236081 1.149004 -0.282532
v 0.191266 1.149004 -0.282532
v 0.236081 1.149004 -0.329621
v 0.191266 1.149004 -0.329621
vt 0.375000 0.000000
vt 0.625000 0.000000
vt 0.375000 0.250000
vt 0.625000 0.250000
vt 0.375000 0.500000
vt 0.625000 0.500000
vt 0.375000 0.750000
vt 0.625000 0.750000
vt 0.375000 1.000000
vt 0.625000 1.000000
vt 0.875000 0.000000
vt 0.875000 0.250000
vt 0.125000 0.000000
vt 0.125000 0.250000
vt 0.607143 0.250000
vt 0.607143 0.500000
vt 0.607143 0.750000
vt 0.607143 0.000000
vt 0.607143 1.000000
vt 0.392857 0.250000
vt 0.392857 0.500000
vt 0.392857 0.750000
vt 0.392857 0.000000
vt 0.392857 1.000000
vt 0.142857 0.250000
vt 0.375000 0.482143
vt 0.142857 0.000000
vt 0.375000 0.767857
vt 0.392857 0.767857
vt 0.607143 0.767857
vt 0.625000 0.767857
vt 0.857143 0.000000
vt 0.625000 0.482143
vt 0.857143 0.250000
vt 0.607143 0.482143
vt 0.392857 0.482143
vt 0.357143 0.250000
vt 0.375000 0.267857
vt 0.357143 0.000000
vt 0.375000 0.982143
vt 0.392857 0.982143
vt 0.607143 0.982143
vt 0.625000 0.982143
vt 0.642857 0.000000
vt 0.625000 0.267857
vt 0.642857 0.250000
vt 0.607143 0.267857
vt 0.392857 0.267857
vt 0.375000 0.982143
vt 0.392857 0.982143
vt 0.392857 1.000000
vt 0.375000 1.000000
vt 0.607143 1.000000
vt 0.607143 0.982143
vt 0.625000 0.982143
vt 0.625000 1.000000
vt 0.625000 0.767857
vt 0.607143 0.767857
vt 0.607143 0.750000
vt 0.625000 0.750000
vt 0.375000 0.750000
vt 0.392857 0.750000
vt 0.392857 0.767857
vt 0.375000 0.767857
vt 0.375000 0.250000
vt 0.392857 0.250000
vt 0.392857 0.267857
vt 0.375000 0.267857
vt 0.392857 0.482143
vt 0.392857 0.500000
vt 0.375000 0.500000
vt 0.375000 0.482143
vt 0.375000 0.250000
vt 0.392857 0.250000
vt 0.392857 0.267857
vt 0.375000 0.267857
vt 0.392857 0.482143
vt 0.392857 0.500000
vt 0.375000 0.500000
vt 0.375000 0.482143
vt 0.375000 0.250000
vt 0.392857 0.250000
vt 0.392857 0.267857
vt 0.375000 0.267857
vt 0.392857 0.482143
vt 0.392857 0.500000
vt 0.375000 0.500000
vt 0.375000 0.482143
vt 0.375000 0.250000
vt 0.392857 0.250000
vt 0.392857 0.267857
vt 0.375000 0.267857
vt 0.392857 0.482143
vt 0.392857 0.500000
vt 0.375000 0.500000
vt 0.375000 0.482143
vt 0.375000 0.250000
vt 0.392857 0.250000
vt 0.392857 0.267857
vt 0.375000 0.267857
vt 0.392857 0.482143
vt 0.392857 0.500000
vt 0.375000 0.500000
vt 0.375000 0.482143
vt 0.375000 0.250000
vt 0.392857 0.250000
vt 0.392857 0.267857
vt 0.375000 0.267857
vt 0.392857 0.482143
vt 0.392857 0.500000
vt 0.375000 0.500000
vt 0.375000 0.482143
vt 0.375000 0.250000
vt 0.392857 0.250000
vt 0.392857 0.267857
vt 0.375000 0.267857
vt 0.392857 0.482143
vt 0.392857 0.500000
vt 0.375000 0.500000
vt 0.375000 0.482143
vn 0.000000 0.000000 1.000000
vn 0.000000 0.000000 1.000000
vn 0.000000 0.000000 1.000000
vn 0.000000 0.000000 1.000000
vn 0.000000 1.000000 0.000000
vn 0.000000 1.000000 0.000000
vn 0.000000 1.000000 0.000000
vn 0.000000 1.000000 0.000000
vn 0.000000 0.000000 -1.000000
vn 0.000000 0.000000 -1.000000
vn 0.000000 0.000000 -1.000000
vn 0.000000 0.000000 -1.000000
vn 0.000000 -1.000000 0.000000
vn 0.000000 -1.000000 0.000000
vn 0.000000 -1.000000 0.000000
vn 0.000000 -1.000000 0.000000
vn 1.000000 0.000000 0.000000
vn 1.000000 0.000000 0.000000
vn 1.000000 0.000000 0.000000
vn 1.000000 0.000000 0.000000
vn -1.000000 0.000000 0.000000
vn -1.000000 0.000000 0.000000
vn -1.000000 0.000000 0.000000
vn -1.000000 0.000000 0.000000
vn 0.000000 1.000000 0.000000
vn 0.000000 1.000000 0.000000
vn 0.000000 1.000000 0.000000
vn 0.000000 1.000000 0.000000
vn 0.000000 0.000000 -1.000000
vn 0.000000 0.000000 -1.000000
vn 0.000000 0.000000 -1.000000
vn 0.000000 0.000000 -1.000000
vn 0.000000 -1.000000 0.000000
vn 0.000000 -1.000000 0.000000
vn 0.000000 -1.000000 0.000000
vn 0.000000 -1.000000 0.000000
vn 0.000000 0.000000 1.000000
vn 0.000000 0.000000 1.000000
vn 0.000000 0.000000 1.000000
vn 0.000000 0.000000 1.000000
vn 0.000000 1.000000 0.000000
vn 0.000000 1.000000 0.000000
vn 0.000000 -1.000000 0.000000
vn 0.000000 -1.000000 0.000000
vn 0.000000 -1.000000 0.000000
vn 0.000000 -1.000000 0.000000
vn -1.000000 0.000000 0.000000
vn -1.000000 0.000000 0.000000
vn -1.000000 0.000000 0.000000
vn -1.000000 0.000000 0.000000
vn 0.000000 -1.000000 0.000000
vn 0.000000 -1.000000 0.000000
vn 0.000000 -1.000000 0.000000
vn 0.000000 -1.000000 0.000000
vn 0.000000 -1.000000 0.000000
vn 0.000000 -1.000000 0.000000
vn 0.000000 -1.000000 0.000000
vn 0.000000 -1.000000 0.000000
vn 0.000000 -1.000000 0.000000
vn 0.000000 -1.000000 0.000000
vn 0.000000 -1.000000 0.000000
vn 0.000000 -1.000000 0.000000
vn 1.000000 0.000000 0.000000
vn 1.000000 0.000000 0.000000
vn 1.000000 0.000000 0.000000
vn 1.000000 0.000000 0.000000
vn 0.000000 1.000000 0.000000
vn 0.000000 1.000000 0.000000
vn 0.000000 1.000000 0.000000
vn 0.000000 1.000000 0.000000
vn 0.000000 1.000000 0.000000
vn 0.000000 1.000000 0.000000
vn 0.000000 1.000000 0.000000
vn 0.000000 1.000000 0.000000
vn 0.000000 1.000000 0.000000
vn 0.000000 1.000000 0.000000
vn 0.000000 -1.000000 0.000000
vn 0.000000 -1.000000 0.000000
vn 0.000000 -1.000000 0.000000
vn 0.000000 -1.000000 0.000000
vn 0.000000 0.000000 -1.000000
vn 0.000000 0.000000 -1.000000
vn 0.000000 0.000000 -1.000000
vn 0.000000 0.000000 -1.000000
vn 1.000000 0.000000 0.000000
vn 1.000000 0.000000 0.000000
vn 1.000000 0.000000 0.000000
vn 1.000000 0.000000 0.000000
vn 0.000000 0.000000 1.000000
vn 0.000000 0.000000 1.000000
vn 0.000000 0.000000 1.000000
vn 0.000000 0.000000 1.000000
vn -1.000000 0.000000 0.000000
vn -1.000000 0.000000 0.000000
vn -1.000000 0.000000 0.000000
vn -1.000000 0.000000 0.000000
vn -1.000000 0.000000 0.000000
vn -1.000000 0.000000 0.000000
vn -1.000000 0.000000 0.000000
vn -1.000000 0.000000 0.000000
vn 0.000000 0.000000 -1.000000
vn 0.000000 0.000000 -1.000000
vn 0.000000 0.000000 -1.000000
vn 0.000000 0.000000 -1.000000
vn 1.000000 0.000000 0.000000
vn 1.000000 0.000000 0.000000
vn 1.000000 0.000000 0.000000
vn 1.000000 0.000000 0.000000
vn 0.000000 0.000000 1.000000
vn 0.000000 0.000000 1.000000
vn 0.000000 0.000000 1.000000
vn 0.000000 0.000000 1.000000
vn 0.000000 0.000000 1.000000
vn 0.000000 0.000000 1.000000
vn 0.000000 0.000000 1.000000
vn 0.000000 0.000000 1.000000
vn -1.000000 0.000000 0.000000
vn -1.000000 0.000000 0.000000
vn -1.000000 0.000000 0.000000
vn -1.000000 0.000000 0.000000
vn 0.000000 0.000000 -1.000000
vn 0.000000 0.000000 -1.000000
vn 0.000000 0.000000 -1.000000
vn 0.000000 0.000000 -1.000000
vn 1.000000 0.000000 0.000000
vn 1.000000 0.000000 0.000000
vn 1.000000 0.000000 0.000000
vn 1.000000 0.000000 0.000000
vn 0.000000 0.000000 -1.000000
vn 0.000000 0.000000 -1.000000
vn 0.000000 0.000000 -1.000000
vn 0.000000 0.000000 -1.000000
vn 1.000000 0.000000 0.000000
vn 1.000000 0.000000 0.000000
vn 1.000000 0.000000 0.000000
vn 1.000000 0.000000 0.000000
vn 0.000000 0.000000 1.000000
vn 0.000000 0.000000 1.000000
vn 0.000000 0.000000 1.000000
vn 0.000000 0.000000 1.000000
vn -1.000000 0.000000 0.000000
vn -1.000000 0.000000 0.000000
vn -1.000000 0.000000 0.000000
vn -1.000000 0.000000 0.000000
vn 0.000000 0.000000 1.000000
vn 0.000000 0.000000 1.000000
vn 0.000000 0.000000 1.000000
vn 0.000000 0.000000 1.000000
vn 1.000000 0.000000 0.000000
vn 1.000000 0.000000 0.000000
vn 1.000000 0.000000 0.000000
vn 1.000000 0.000000 0.000000
vn -1.000000 0.000000 0.000000
vn -1.000000 0.000000 0.000000
vn -1.000000 0.000000 0.000000
vn -1.000000 0.000000 0.000000
vn 1.000000 0.000000 0.000000
vn 1.000000 0.000000 0.000000
vn 1.000000 0.000000 0.000000
vn 1.000000 0.000000 0.000000
vn 0.000000 0.000000 -1.000000
vn 0.000000 0.000000 -1.000000
vn 0.000000 0.000000 -1.000000
vn 0.000000 0.000000 -1.000000
vn -1.000000 0.000000 0.000000
vn -1.000000 0.000000 0.000000
vn -1.000000 0.000000 0.000000
vn -1.000000 0.000000 0.000000
vn -1.000000 0.000000 0.000000
vn -1.000000 0.000000 0.000000
vn -1.000000 0.000000 0.000000
vn -1.000000 0.000000 0.000000
vn 1.000000 0.000000 0.000000
vn 1.000000 0.000000 0.000000
vn 1.000000 0.000000 0.000000
vn 1.000000 0.000000 0.000000
vn 0.000000 0.000000 1.000000
vn 0.000000 0.000000 1.000000
vn 0.000000 0.000000 1.000000
vn 0.000000 0.000000 1.000000
vn 0.997785 0.066519 0.000000
vn 0.997785 0.066519 0.000000
vn 0.997785 0.066519 0.000000
vn 0.997785 0.066519 0.000000
vn -0.997785 -0.066519 0.000000
vn -0.997785 -0.066519 0.000000
vn -0.997785 -0.066519 0.000000
vn -0.997785 -0.066519 0.000000
vn 0.997785 0.066519 0.000000
vn 0.997785 0.066519 0.000000
vn 0.997785 0.066519 0.000000
vn 0.997785 0.066519 0.000000
vn 0.000000 0.000000 -1.000000
vn 0.000000 0.000000 -1.000000
vn 0.000000 0.000000 -1.000000
vn 0.000000 0.000000 -1.000000
vn -0.997785 -0.066519 0.000000
vn -0.997785 -0.066519 0.000000
vn -0.997785 -0.066519 0.000000
vn -0.997785 -0.066519 0.000000
vn -0.997785 -0.066519 0.000000
vn -0.997785 -0.066519 0.000000
vn -0.997785 -0.066519 0.000000
vn -0.997785 -0.066519 0.000000
vn 0.997785 0.066519 0.000000
vn 0.997785 0.066519 0.000000
vn 0.997785 0.066519 0.000000
vn 0.997785 0.066519 0.000000
vn 0.000000 0.000000 1.000000
vn 0.000000 0.000000 1.000000
vn 0.000000 0.000000 1.000000
vn 0.000000 0.000000 1.000000
vn 0.990334 0.138705 0.000000
vn 0.990334 0.138705 0.000000
vn 0.990334 0.138705 0.000000
vn 0.990334 0.138705 0.000000
vn -0.990334 -0.138706 0.000000
vn -0.990334 -0.138706 0.000000
vn -0.990334 -0.138706 0.000000
vn -0.990334 -0.138706 0.000000
vn 0.990334 0.138705 0.000000
vn 0.990334 0.138705 0.000000
vn 0.990334 0.138705 0.000000
vn 0.990334 0.138705 0.000000
vn 0.000000 0.000000 -1.000000
vn 0.000000 0.000000 -1.000000
vn 0.000000 0.000000 -1.000000
vn 0.000000 0.000000 -1.000000
vn -0.990334 -0.138706 0.000000
vn -0.990334 -0.138706 0.000000
vn -0.990334 -0.138706 0.000000
vn -0.990334 -0.138706 0.000000
vn -0.990334 -0.138706 0.000000
vn -0.990334 -0.138706 0.000000
vn -0.990334 -0.138706 0.000000
vn -0.990334 -0.138706 0.000000
vn 0.990334 0.138705 0.000000
vn 0.990334 0.138705 0.000000
vn 0.990334 0.138705 0.000000
vn 0.990334 0.138705 0.000000
vn 0.000000 0.000000 1.000000
vn 0.000000 0.000000 1.000000
vn 0.000000 0.000000 1.000000
vn 0.000000 0.000000 1.000000
vn 0.977539 0.210753 0.000000
vn 0.977539 0.210753 0.000000
vn 0.977539 0.210753 0.000000
vn 0.977539 0.210753 0.000000
vn -0.977540 -0.210752 0.000000
vn -0.977540 -0.210752 0.000000
vn -0.977540 -0.210752 0.000000
vn -0.977540 -0.210752 0.000000
vn 0.977539 0.210753 0.000000
vn 0.977539 0.210753 0.000000
vn 0.977539 0.210753 0.000000
vn 0.977539 0.210753 0.000000
vn 0.000000 0.000000 -1.000000
vn 0.000000 0.000000 -1.000000
vn 0.000000 0.000000 -1.000000
vn 0.000000 0.000000 -1.000000
vn -0.977540 -0.210752 0.000000
vn -0.977540 -0.210752 0.000000
vn -0.977540 -0.210752 0.000000
vn -0.977540 -0.210752 0.000000
vn -0.977540 -0.210752 0.000000
vn -0.977540 -0.210752 0.000000
vn -0.977540 -0.210752 0.000000
vn -0.977540 -0.210752 0.000000
vn 0.977539 0.210753 0.000000
vn 0.977539 0.210753 0.000000
vn 0.977539 0.210753 0.000000
vn 0.977539 0.210753 0.000000
vn 0.000000 0.000000 1.000000
vn 0.000000 0.000000 1.000000
vn 0.000000 0.000000 1.000000
vn 0.000000 0.000000 1.000000
vn 0.947671 0.319247 0.000000
vn 0.947671 0.319247 0.000000
vn 0.947671 0.319247 0.000000
vn 0.947671 0.319247 0.000000
vn -0.947671 -0.319248 0.000000
vn -0.947671 -0.319248 0.000000
vn -0.947671 -0.319248 0.000000
vn -0.947671 -0.319248 0.000000
vn 0.947671 0.319247 0.000000
vn 0.947671 0.319247 0.000000
vn 0.947671 0.319247 0.000000
vn 0.947671 0.319247 0.000000
vn 0.000000 0.000000 -1.000000
vn 0.000000 0.000000 -1.000000
vn 0.000000 0.000000 -1.000000
vn 0.000000 0.000000 -1.000000
vn -0.947671 -0.319248 0.000000
vn -0.947671 -0.319248 0.000000
vn -0.947671 -0.319248 0.000000
vn -0.947671 -0.319248 0.000000
vn -0.947671 -0.319248 0.000000
vn -0.947671 -0.319248 0.000000
vn -0.947671 -0.319248 0.000000
vn -0.947671 -0.319248 0.000000
vn 0.947672 0.319247 0.000000
vn 0.947672 0.319247 0.000000
vn 0.947672 0.319247 0.000000
vn 0.947672 0.319247 0.000000
vn 0.000000 0.000000 1.000000
vn 0.000000 0.000000 1.000000
vn 0.000000 0.000000 1.000000
vn 0.000000 0.000000 1.000000
vn 0.909714 0.415236 0.000000
vn 0.909714 0.415236 0.000000
vn 0.909714 0.415236 0.000000
vn 0.909714 0.415236 0.000000
vn -0.909714 -0.415236 0.000000
vn -0.909714 -0.415236 0.000000
vn -0.909714 -0.415236 0.000000
vn -0.909714 -0.415236 0.000000
vn 0.909714 0.415236 0.000000
vn 0.909714 0.415236 0.000000
vn 0.909714 0.415236 0.000000
vn 0.909714 0.415236 0.000000
vn 0.000000 0.000000 -1.000000
vn 0.000000 0.000000 -1.000000
vn 0.000000 0.000000 -1.000000
vn 0.000000 0.000000 -1.000000
vn -0.909714 -0.415236 0.000000
vn -0.909714 -0.415236 0.000000
vn -0.909714 -0.415236 0.000000
vn -0.909714 -0.415236 0.000000
vn -0.909714 -0.415236 0.000000
vn -0.909714 -0.415236 0.000000
vn -0.909714 -0.415236 0.000000
vn -0.909714 -0.415236 0.000000
vn 0.909714 0.415236 0.000000
vn 0.909714 0.415236 0.000000
vn 0.909714 0.415236 0.000000
vn 0.909714 0.415236 0.000000
vn 0.000000 0.000000 1.000000
vn 0.000000 0.000000 1.000000
vn 0.000000 0.000000 1.000000
vn 0.000000 0.000000 1.000000
vn 0.906133 0.422993 0.000000
vn 0.906133 0.422993 0.000000
vn 0.906133 0.422993 0.000000
vn 0.906133 0.422993 0.000000
vn -0.906133 -0.422993 0.000000
vn -0.906133 -0.422993 0.000000
vn -0.906133 -0.422993 0.000000
vn -0.906133 -0.422993 0.000000
vn 0.906133 0.422993 0.000000
vn 0.906133 0.422993 0.000000
vn 0.906133 0.422993 0.000000
vn 0.906133 0.422993 0.000000
vn 0.000000 0.000000 -1.000000
vn 0.000000 0.000000 -1.000000
vn 0.000000 0.000000 -1.000000
vn 0.000000 0.000000 -1.000000
vn -0.906133 -0.422993 0.000000
vn -0.906133 -0.422993 0.000000
vn -0.906133 -0.422993 0.000000
vn -0.906133 -0.422993 0.000000
vn -0.906133 -0.422993 0.000000
vn -0.906133 -0.422993 0.000000
vn -0.906133 -0.422993 0.000000
vn -0.906133 -0.422993 0.000000
vn 0.906133 0.422993 0.000000
vn 0.906133 0.422993 0.000000
vn 0.906133 0.422993 0.000000
vn 0.906133 0.422993 0.000000
s 1
g chair
f 1/1/1 16/23/2 13/20/3 3/3/4
s 2
f 97/113/5 98/114/6 99/115/7 100/116/8
s 3
f 5/5/9 14/21/10 15/22/11 7/7/12
s off
f 33/49/13 34/50/14 35/51/15 36/52/16
s 4
f 2/2/17 29/44/18 30/46/19 4/4/20
s 5
f 26/39/21 1/1/22 3/3/23 25/37/24
s 6
f 9/15/25 4/4/26 30/45/27 31/47/28
s 3
f 11/17/29 10/16/30 6/6/31 8/8/32
s off
f 38/53/33 37/54/34 39/55/35 40/56/36
s 1
f 9/15/37 12/18/38 2/2/39 4/4/40
s 6
f 31/47/28 32/48/41 13/20/42 9/15/25
s 3
f 11/17/29 15/22/11 14/21/10 10/16/30
s 7
f 12/19/43 16/24/44 27/41/45 28/42/46
s 1
f 9/15/37 13/20/3 16/23/2 12/18/38
s 5
f 7/13/47 18/27/48 17/25/49 5/14/50
s off
f 45/61/51 46/62/52 47/63/53 48/64/54
s 7
f 19/29/55 15/22/56 11/17/57 20/30/58
s off
f 42/57/59 41/58/60 43/59/61 44/60/62
s 4
f 22/34/63 21/32/64 8/11/65 6/12/66
s 6
f 23/35/67 22/33/68 6/6/69 10/16/70
f 10/16/70 14/21/71 24/36/72 23/35/67
s 2
f 102/120/73 101/117/74 103/118/75 104/119/76
s 5
f 18/27/48 26/39/21 25/37/24 17/25/49
s 7
f 19/29/55 27/41/45 26/40/77 18/28/78
f 20/30/58 28/42/46 27/41/45 19/29/55
f 21/31/79 29/43/80 28/42/46 20/30/58
s 4
f 22/34/63 30/46/19 29/44/18 21/32/64
s 6
f 23/35/67 31/47/28 30/45/27 22/33/68
f 24/36/72 32/48/41 31/47/28 23/35/67
s 2
f 102/120/73 100/116/8 99/115/7 101/117/74
s off
f 26/40/81 27/41/82 34/50/83 33/49/84
f 27/41/85 16/24/86 35/51/87 34/50/88
f 16/24/89 1/9/90 36/52/91 35/51/92
f 1/9/93 26/40/94 33/49/95 36/52/96
f 12/19/97 28/42/98 37/54/99 38/53/100
f 28/42/101 29/43/102 39/55/103 37/54/104
f 29/43/105 2/10/106 40/56/107 39/55/108
f 2/10/109 12/19/110 38/53/111 40/56/112
f 21/31/113 20/30/114 41/58/115 42/57/116
f 20/30/117 11/17/118 43/59/119 41/58/120
f 11/17/121 8/8/122 44/60/123 43/59/124
f 8/8/125 21/31/126 42/57/127 44/60/128
f 7/7/129 15/22/130 46/62/131 45/61/132
f 15/22/133 19/29/134 47/63/135 46/62/136
f 19/29/137 18/28/138 48/64/139 47/63/140
f 18/28/141 7/7/142 45/61/143 48/64/144
f 3/3/145 13/20/146 50/66/147 49/65/148
f 13/20/149 32/48/150 51/67/151 50/66/152
f 25/38/153 3/3/154 49/65/155 52/68/156
f 24/36/157 14/21/158 55/70/159 53/69/160
f 14/21/161 5/5/162 56/71/163 55/70/164
f 5/5/165 17/26/166 54/72/167 56/71/168
f 17/26/169 25/38/170 52/68/171 54/72/172
f 32/48/173 24/36/174 53/69/175 51/67/176
f 49/65/177 50/66/178 58/74/179 57/73/180
f 50/66/181 51/67/182 59/75/183 58/74/184
f 52/68/185 49/65/186 57/73/187 60/76/188
f 53/69/189 55/70/190 63/78/191 61/77/192
f 55/70/193 56/71/194 64/79/195 63/78/196
f 56/71/197 54/72/198 62/80/199 64/79/200
f 54/72/201 52/68/202 60/76/203 62/80/204
f 51/67/205 53/69/206 61/77/207 59/75/208
f 57/73/209 58/74/210 66/82/211 65/81/212
f 58/74/213 59/75/214 67/83/215 66/82/216
f 60/76/217 57/73/218 65/81/219 68/84/220
f 61/77/221 63/78/222 71/86/223 69/85/224
f 63/78/225 64/79/226 72/87/227 71/86/228
f 64/79/229 62/80/230 70/88/231 72/87/232
f 62/80/233 60/76/234 68/84/235 70/88/236
f 59/75/237 61/77/238 69/85/239 67/83/240
f 65/81/241 66/82/242 74/90/243 73/89/244
f 66/82/245 67/83/246 75/91/247 74/90/248
f 68/84/249 65/81/250 73/89/251 76/92/252
f 69/85/253 71/86/254 79/94/255 77/93/256
f 71/86/257 72/87/258 80/95/259 79/94/260
f 72/87/261 70/88/262 78/96/263 80/95/264
f 70/88/265 68/84/266 76/92/267 78/96/268
f 67/83/269 69/85/270 77/93/271 75/91/272
f 73/89/273 74/90/274 82/98/275 81/97/276
f 74/90/277 75/91/278 83/99/279 82/98/280
f 76/92/281 73/89/282 81/97/283 84/100/284
f 77/93/285 79/94/286 87/102/287 85/101/288
f 79/94/289 80/95/290 88/103/291 87/102/292
f 80/95/293 78/96/294 86/104/295 88/103/296
f 78/96/297 76/92/298 84/100/299 86/104/300
f 75/91/301 77/93/302 85/101/303 83/99/304
f 81/97/305 82/98/306 90/106/307 89/105/308
f 82/98/309 83/99/310 91/107/311 90/106/312
f 84/100/313 81/97/314 89/105/315 92/108/316
f 85/101/317 87/102/318 95/110/319 93/109/320
f 87/102/321 88/103/322 96/111/323 95/110/324
f 88/103/325 86/104/326 94/112/327 96/111/328
f 86/104/329 84/100/330 92/108/331 94/112/332
f 83/99/333 85/101/334 93/109/335 91/107/336
f 89/105/337 90/106/338 98/114/339 97/113/340
f 90/106/341 91/107/342 99/115/343 98/114/344
f 92/108/345 89/105/346 97/113/347 100/116/348
f 93/109/349 95/110/350 103/118/351 101/117/352
f 95/110/353 96/111/354 104/119/355 103/118/356
f 96/111/357 94/112/358 102/120/359 104/119/360
f 94/112/361 92/108/362 100/116/363 102/120/364
f 91/107/365 93/109/366 101/117/367 99/115/368
