# This file uses centimeters as units for non-parametric coordinates.

mtllib champagne glass.mtl
g default
v -0.144513 0.592373 -0.198905
v -0.162779 0.592373 -0.224047
v -0.224046 0.592373 -0.162779
v -0.198905 0.592373 -0.144513
v 0.224046 0.592373 0.162779
v 0.198905 0.592373 0.144512
v 0.144513 0.592373 0.198904
v 0.162779 0.592373 0.224046
v 0.075975 0.592373 0.233826
v -0.000000 0.347695 -0.000000
v -0.233826 0.592373 -0.075975
v 0.006721 0.306074 0.020684
v 0.085578 0.592373 0.263382
v -0.000000 0.592373 0.276936
v -0.000000 0.306074 0.021748
v -0.021749 0.306074 -0.000000
v -0.276937 0.592373 -0.000000
v -0.263382 0.592373 -0.085578
v -0.020684 0.306074 -0.006721
v 0.012783 0.306074 0.017595
v -0.017595 0.306074 -0.012784
v -0.075975 0.592373 -0.233827
v 0.233826 0.592373 0.075975
v -0.085578 0.592373 -0.263383
v 0.263382 0.592373 0.085578
v -0.000000 0.592373 -0.245860
v 0.245859 0.592373 -0.000000
v -0.012784 0.306074 -0.017595
v 0.017595 0.306074 0.012783
v 0.233826 0.592373 -0.075975
v 0.075975 0.592373 -0.233826
v 0.144512 0.592373 -0.198905
v 0.198904 0.592373 -0.144513
v -0.006721 0.306074 -0.020684
v 0.020684 0.306074 0.006720
v -0.000000 0.592373 -0.276937
v 0.276936 0.592373 -0.000000
v -0.135086 0.008905 0.098146
v -0.098146 0.008905 0.135086
v -0.000000 0.024509 -0.000000
v -0.051598 0.008905 0.158803
v -0.158803 0.008905 0.051598
v -0.098146 -0.000000 0.135086
v -0.135086 -0.000000 0.098146
v -0.000000 -0.000000 -0.000000
v -0.051598 -0.000000 0.158803
v -0.158803 -0.000000 0.051598
v -0.000000 0.008905 0.166975
v -0.166976 0.008905 -0.000000
v -0.000000 -0.000000 0.166975
v -0.166976 -0.000000 -0.000000
v -0.000000 0.306074 -0.021749
v 0.021748 0.306074 -0.000000
v 0.051598 0.008905 0.158803
v -0.158803 0.008905 -0.051599
v 0.051598 -0.000000 0.158803
v -0.158803 -0.000000 -0.051599
v 0.263382 0.592373 -0.085578
v 0.085578 0.592373 -0.263382
v 0.098146 0.008905 0.135086
v -0.135086 0.008905 -0.098146
v 0.098146 -0.000000 0.135086
v -0.135086 -0.000000 -0.098146
v -0.012784 0.024509 0.017595
v -0.017595 0.024509 0.012783
v -0.006721 0.024509 0.020684
v -0.020684 0.024509 0.006720
v -0.000000 0.024509 0.021748
v -0.021749 0.024509 -0.000000
v 0.020684 0.306074 -0.006721
v 0.006721 0.306074 -0.020684
v 0.006721 0.024509 0.020684
v -0.020684 0.024509 -0.006721
v 0.012783 0.024509 0.017595
v -0.017595 0.024509 -0.012784
v -0.012784 0.024509 -0.017595
v 0.017595 0.024509 0.012783
v -0.006721 0.024509 -0.020684
v 0.020684 0.024509 0.006720
v -0.098146 0.008905 -0.135086
v 0.135086 0.008905 0.098146
v -0.000000 0.024509 -0.021749
v 0.021748 0.024509 -0.000000
v 0.020684 0.024509 -0.006721
v 0.006721 0.024509 -0.020684
v 0.012783 0.024509 -0.017595
v 0.017595 0.024509 -0.012784
v -0.098146 -0.000000 -0.135086
v 0.135086 -0.000000 0.098146
v 0.017595 0.306074 -0.012784
v 0.224046 0.592373 -0.162779
v 0.162779 0.592373 -0.224047
v 0.012783 0.306074 -0.017595
v -0.051598 0.008905 -0.158803
v 0.158803 0.008905 0.051598
v -0.051598 -0.000000 -0.158803
v 0.158803 -0.000000 0.051598
v -0.000000 0.008905 -0.166976
v 0.166976 0.008905 -0.000000
v -0.000000 -0.000000 -0.166976
v 0.166976 -0.000000 -0.000000
v 0.158803 0.008905 -0.051599
v 0.051598 0.008905 -0.158803
v -0.017595 0.306074 0.012783
v -0.012784 0.306074 0.017595
v -0.006721 0.306074 0.020684
v -0.020684 0.306074 0.006720
v 0.158803 -0.000000 -0.051599
v 0.051598 -0.000000 -0.158803
v 0.135086 0.008905 -0.098146
v 0.098146 0.008905 -0.135086
v 0.135086 -0.000000 -0.098146
v 0.098146 -0.000000 -0.135086
v -0.263382 0.592373 0.085578
v -0.085578 0.592373 0.263382
v -0.245860 0.592373 -0.000000
v -0.000000 0.592373 0.245859
v -0.224046 0.592373 0.162779
v -0.162779 0.592373 0.224046
v -0.233826 0.592373 0.075975
v -0.075975 0.592373 0.233826
v -0.198905 0.592373 0.144512
v -0.144513 0.592373 0.198904
vt 0.384279 0.409277
vt 0.353054 0.452254
vt 0.297746 0.396946
vt 0.340723 0.365721
vt 0.702254 0.103054
vt 0.659277 0.134279
vt 0.615722 0.090723
vt 0.646946 0.047746
vt 0.362186 0.606246
vt 0.342498 0.606246
vt 0.500000 1.000000
vt 0.519688 0.606246
vt 0.500000 0.606246
vt 0.486257 0.960734
vt 0.325000 0.500000
vt 0.350000 0.500000
vt 0.488220 0.960734
vt 0.498037 0.960734
vt 0.475000 0.500000
vt 0.500000 0.500000
vt 0.500000 0.960734
vt 0.539375 0.606246
vt 0.322811 0.606246
vt 0.484294 0.960734
vt 0.300000 0.500000
vt 0.525000 0.500000
vt 0.501963 0.960734
vt 0.559063 0.606246
vt 0.303123 0.606246
vt 0.439162 0.437241
vt 0.422746 0.487764
vt 0.737764 0.172746
vt 0.687241 0.189162
vt 0.578751 0.606246
vt 0.696877 0.606246
vt 0.677189 0.606246
vt 0.550000 0.500000
vt 0.503927 0.960734
vt 0.482330 0.960734
vt 0.275000 0.500000
vt 0.657502 0.606246
vt 0.598438 0.606246
vt 0.618126 0.606246
vt 0.637814 0.606246
vt 0.575000 0.500000
vt 0.505890 0.960734
vt 0.480367 0.960734
vt 0.250000 0.500000
vt 0.500000 0.446877
vt 0.500000 0.500000
vt 0.750000 0.250000
vt 0.696877 0.250000
vt 0.373591 0.064409
vt 0.408159 0.029841
vt 0.500000 0.150000
vt 0.451716 0.007647
vt 0.351397 0.107966
vt 0.408159 0.970159
vt 0.373591 0.935591
vt 0.500000 0.837500
vt 0.451716 0.992353
vt 0.351397 0.892034
vt 0.500000 -0.000000
vt 0.343750 0.156250
vt 0.500000 1.000000
vt 0.343750 0.843750
vt 0.600000 0.500000
vt 0.507853 0.960734
vt 0.517670 0.960734
vt 0.725000 0.500000
vt 0.750000 0.500000
vt 0.519633 0.960734
vt 0.548284 0.007647
vt 0.351397 0.204534
vt 0.548284 0.992353
vt 0.351397 0.795466
vt 0.737764 0.327254
vt 0.687241 0.310838
vt 0.560838 0.437241
vt 0.577254 0.487764
vt 0.591842 0.029841
vt 0.373591 0.248091
vt 0.591841 0.970159
vt 0.373591 0.751909
vt 0.408159 0.970159
vt 0.373591 0.935591
vt 0.500000 0.837500
vt 0.451716 0.992353
vt 0.351397 0.892034
vt 0.500000 1.000000
vt 0.343750 0.843750
vt 0.515706 0.960734
vt 0.700000 0.500000
vt 0.625000 0.500000
vt 0.509817 0.960734
vt 0.548284 0.992353
vt 0.351397 0.795466
vt 0.591841 0.970159
vt 0.373591 0.751909
vt 0.408159 0.717341
vt 0.626409 0.935591
vt 0.451716 0.695147
vt 0.648603 0.892034
vt 0.408159 0.282659
vt 0.626409 0.064408
vt 0.500000 0.687500
vt 0.656250 0.843750
vt 0.648603 0.795466
vt 0.548284 0.695147
vt 0.591842 0.717341
vt 0.626409 0.751908
vt 0.408159 0.717341
vt 0.626409 0.935591
vt 0.513743 0.960734
vt 0.675000 0.500000
vt 0.650000 0.500000
vt 0.511780 0.960734
vt 0.702254 0.396946
vt 0.659277 0.365721
vt 0.615721 0.409277
vt 0.646946 0.452254
vt 0.451716 0.304853
vt 0.648603 0.107966
vt 0.450000 0.312500
vt 0.462500 0.312500
vt 0.462500 0.688440
vt 0.450000 0.688440
vt 0.451716 0.695147
vt 0.648603 0.892034
vt 0.437500 0.312500
vt 0.437500 0.688440
vt 0.475000 0.312500
vt 0.475000 0.688440
vt 0.500000 0.312500
vt 0.656250 0.156250
vt 0.500000 0.687500
vt 0.656250 0.843750
vt 0.648603 0.204534
vt 0.548284 0.304853
vt 0.462500 0.324599
vt 0.462500 0.688440
vt 0.450000 0.688440
vt 0.450000 0.324599
vt 0.437500 0.688440
vt 0.437500 0.324599
vt 0.475000 0.324599
vt 0.475000 0.688440
vt 0.425000 0.312500
vt 0.425000 0.688440
vt 0.487500 0.312500
vt 0.487500 0.688440
vt 0.425000 0.688440
vt 0.425000 0.324599
vt 0.487500 0.324599
vt 0.487500 0.688440
vt 0.648603 0.795466
vt 0.548284 0.695147
vt 0.626409 0.248091
vt 0.591841 0.282659
vt 0.412500 0.688440
vt 0.412500 0.324599
vt 0.500000 0.324599
vt 0.500000 0.688440
vt 0.626409 0.751908
vt 0.591842 0.717341
vt 0.400000 0.688440
vt 0.400000 0.324599
vt 0.512500 0.324599
vt 0.512500 0.688440
vt 0.525000 0.324599
vt 0.525000 0.688440
vt 0.387500 0.688440
vt 0.387500 0.324599
vt 0.537500 0.324599
vt 0.537500 0.688440
vt 0.375000 0.688440
vt 0.375000 0.324599
vt 0.550000 0.324599
vt 0.550000 0.688440
vt 0.625000 0.324599
vt 0.625000 0.688440
vt 0.612500 0.688440
vt 0.612500 0.324599
vt 0.412500 0.312500
vt 0.412500 0.688440
vt 0.500000 0.312500
vt 0.500000 0.688440
vt 0.600000 0.688440
vt 0.600000 0.324599
vt 0.562500 0.324599
vt 0.562500 0.688440
vt 0.575000 0.324599
vt 0.575000 0.688440
vt 0.587500 0.688440
vt 0.587500 0.324599
vt 0.400000 0.312500
vt 0.400000 0.688440
vt 0.512500 0.312500
vt 0.512500 0.688440
vt 0.525000 0.312500
vt 0.525000 0.688440
vt 0.387500 0.312500
vt 0.387500 0.688440
vt 0.537500 0.312500
vt 0.537500 0.688440
vt 0.375000 0.312500
vt 0.375000 0.688440
vt 0.550000 0.312500
vt 0.550000 0.688440
vt 0.612500 0.312500
vt 0.625000 0.312500
vt 0.625000 0.688440
vt 0.612500 0.688440
vt 0.600000 0.312500
vt 0.600000 0.688440
vt 0.562500 0.312500
vt 0.562500 0.688440
vt 0.587500 0.312500
vt 0.587500 0.688440
vt 0.575000 0.312500
vt 0.575000 0.688440
vt 0.496073 0.960734
vt 0.450000 0.500000
vt 0.375000 0.500000
vt 0.490183 0.960734
vt 0.480312 0.606246
vt 0.381874 0.606246
vt 0.494110 0.960734
vt 0.425000 0.500000
vt 0.400000 0.500000
vt 0.492147 0.960734
vt 0.460625 0.606246
vt 0.401562 0.606246
vt 0.440937 0.606246
vt 0.421249 0.606246
vt 0.262236 0.327254
vt 0.312759 0.310838
vt 0.560838 0.062759
vt 0.577254 0.012236
vt 0.250000 0.250000
vt 0.303123 0.250000
vt 0.500000 0.053123
vt 0.500000 -0.000000
vt 0.262236 0.172746
vt 0.312759 0.189162
vt 0.439162 0.062759
vt 0.422746 0.012236
vt 0.297746 0.103054
vt 0.340723 0.134279
vt 0.384279 0.090723
vt 0.353054 0.047746
vn 0.000000 1.000000 -0.000000
vn 0.000000 1.000000 -0.000000
vn 0.000000 1.000000 -0.000000
vn 0.000000 1.000000 -0.000000
vn 0.000000 1.000000 0.000000
vn 0.000000 1.000000 0.000000
vn 0.000000 1.000000 0.000000
vn 0.000000 1.000000 0.000000
vn -0.217981 0.708808 -0.670877
vn -0.414625 0.708808 -0.570682
vn 0.000000 1.000000 0.000000
vn 0.570682 0.708808 0.414625
vn 0.670877 0.708808 0.217981
vn 0.280002 -0.664476 0.692871
vn 0.231307 -0.665382 0.709763
vn 0.052189 -0.664476 0.745485
vn 0.000658 -0.665382 0.746502
vn -0.745485 -0.664476 0.052189
vn -0.746503 -0.665382 0.000658
vn -0.725126 -0.664476 -0.180733
vn -0.710169 -0.665382 -0.230056
vn 0.414625 0.708808 0.570682
vn -0.570682 0.708808 -0.414625
vn 0.480407 -0.664476 0.572434
vn 0.439315 -0.665382 0.603547
vn -0.633786 -0.664476 -0.395964
vn -0.604320 -0.665382 -0.438251
vn 0.217981 0.708807 0.670877
vn -0.670877 0.708808 -0.217981
vn 0.000000 1.000000 -0.000000
vn 0.000000 1.000000 -0.000000
vn 0.000000 1.000000 0.000000
vn 0.000000 1.000000 0.000000
vn -0.000000 0.708808 0.705402
vn -0.705402 0.708807 0.000001
vn -0.480407 -0.664475 -0.572435
vn -0.439315 -0.665382 -0.603547
vn 0.633786 -0.664476 0.395964
vn 0.604320 -0.665382 0.438251
vn -0.670877 0.708807 0.217981
vn -0.217981 0.708807 0.670877
vn -0.414625 0.708807 0.570682
vn -0.570682 0.708807 0.414625
vn -0.280003 -0.664475 -0.692872
vn -0.231308 -0.665382 -0.709763
vn 0.725126 -0.664476 0.180732
vn 0.710170 -0.665382 0.230056
vn -0.000000 1.000000 -0.000000
vn -0.000000 1.000000 -0.000000
vn 0.000000 1.000000 -0.000000
vn 0.000000 1.000000 -0.000000
vn -0.075272 0.995662 0.054689
vn -0.054688 0.995662 0.075272
vn -0.000000 1.000000 -0.000000
vn -0.028751 0.995662 0.088488
vn -0.088487 0.995662 0.028751
vn 0.000000 -1.000000 0.000001
vn 0.000000 -1.000000 0.000001
vn 0.000000 -1.000000 0.000000
vn 0.000000 -1.000000 0.000000
vn 0.000000 -1.000000 0.000000
vn 0.000000 0.995662 0.093041
vn -0.093041 0.995662 -0.000000
vn 0.000000 -1.000000 0.000000
vn 0.000000 -1.000000 0.000000
vn -0.052190 -0.664476 -0.745485
vn -0.000658 -0.665382 -0.746503
vn 0.745486 -0.664475 -0.052189
vn 0.746503 -0.665382 -0.000659
vn 0.028751 0.995662 0.088488
vn -0.088487 0.995662 -0.028750
vn 0.000000 -1.000000 -0.000001
vn 0.000000 -1.000000 0.000000
vn -0.000000 1.000000 -0.000000
vn 0.000000 1.000000 -0.000000
vn -0.000000 1.000000 -0.000000
vn -0.000000 1.000000 -0.000000
vn 0.054688 0.995662 0.075272
vn -0.075272 0.995662 -0.054689
vn 0.000000 -1.000000 -0.000001
vn 0.000000 -1.000000 0.000000
vn 0.000000 -1.000000 -0.000004
vn 0.000000 -1.000000 -0.000004
vn 0.000000 -1.000000 -0.000001
vn 0.000000 -1.000000 0.000000
vn 0.000000 -1.000000 0.000000
vn 0.000000 -1.000000 0.000000
vn 0.000000 -1.000000 0.000000
vn 0.692872 -0.664475 -0.280002
vn 0.709763 -0.665382 -0.231308
vn 0.180733 -0.664476 -0.725126
vn 0.230056 -0.665382 -0.710169
vn 0.000000 -1.000000 0.000000
vn 0.000000 -1.000000 0.000000
vn 0.000000 -1.000000 0.000000
vn 0.000000 -1.000000 0.000000
vn 0.000000 -1.000000 0.000000
vn 0.000000 -1.000000 0.000000
vn 0.000000 -1.000000 0.000000
vn 0.000000 -1.000000 0.000000
vn -0.054688 0.995662 -0.075273
vn 0.075272 0.995662 0.054689
vn 0.000000 -1.000000 -0.000001
vn 0.000000 -1.000000 0.000000
vn 0.000000 -1.000000 0.000000
vn 0.000000 -1.000000 -0.000003
vn 0.000000 -1.000000 -0.000002
vn 0.000000 -1.000000 0.000000
vn 0.000000 -1.000000 0.000000
vn 0.000000 -1.000000 0.000000
vn 0.572434 -0.664476 -0.480407
vn 0.603547 -0.665382 -0.439315
vn 0.395964 -0.664476 -0.633786
vn 0.438251 -0.665382 -0.604320
vn -0.000000 1.000000 -0.000000
vn -0.000000 1.000000 -0.000000
vn -0.000000 1.000000 -0.000000
vn -0.000000 1.000000 -0.000000
vn -0.028751 0.995662 -0.088488
vn 0.088487 0.995662 0.028751
vn -0.587787 0.000000 0.809016
vn -0.809017 0.000000 0.587786
vn -0.587787 0.000000 0.809016
vn -0.809016 0.000000 0.587786
vn 0.000000 -1.000000 0.000000
vn 0.000000 -1.000000 0.000000
vn -0.309017 0.000000 0.951057
vn -0.309017 0.000000 0.951057
vn -0.951056 0.000000 0.309018
vn -0.951056 0.000000 0.309019
vn 0.000000 0.995662 -0.093042
vn 0.093041 0.995662 0.000000
vn 0.000000 -1.000000 -0.000000
vn 0.000000 -1.000000 0.000001
vn 0.088487 0.995662 -0.028750
vn 0.028751 0.995662 -0.088488
vn -0.809017 0.000000 0.587785
vn -0.809017 0.000000 0.587785
vn -0.587785 0.000000 0.809017
vn -0.587786 0.000000 0.809017
vn -0.309017 0.000000 0.951056
vn -0.309017 0.000000 0.951057
vn -0.951056 0.000000 0.309017
vn -0.951056 0.000000 0.309017
vn -0.000000 0.000000 1.000000
vn 0.000000 0.000000 1.000000
vn -1.000000 0.000000 0.000002
vn -1.000000 0.000000 0.000002
vn -0.000000 0.000000 1.000000
vn 0.000000 0.000000 1.000000
vn -1.000000 -0.000000 -0.000000
vn -1.000000 0.000000 0.000000
vn 0.000000 -1.000000 0.000001
vn 0.000000 -1.000000 -0.000000
vn 0.075272 0.995662 -0.054689
vn 0.054688 0.995662 -0.075273
vn 0.309017 0.000000 0.951057
vn 0.309017 0.000000 0.951057
vn -0.951056 -0.000000 -0.309017
vn -0.951056 -0.000000 -0.309017
vn 0.000000 -1.000000 0.000000
vn 0.000000 -1.000000 0.000000
vn 0.587785 0.000000 0.809017
vn 0.587785 0.000000 0.809017
vn -0.809017 -0.000000 -0.587785
vn -0.809017 -0.000000 -0.587785
vn -0.587785 -0.000000 -0.809017
vn -0.587785 -0.000000 -0.809017
vn 0.809017 0.000000 0.587785
vn 0.809017 0.000000 0.587785
vn -0.309017 -0.000000 -0.951057
vn -0.309017 -0.000000 -0.951056
vn 0.951057 0.000000 0.309016
vn 0.951057 0.000000 0.309016
vn 0.000001 -0.000000 -1.000000
vn -0.000000 -0.000000 -1.000000
vn 1.000000 -0.000000 -0.000001
vn 1.000000 -0.000000 -0.000001
vn 0.309017 0.000000 0.951057
vn 0.309016 0.000000 0.951057
vn -0.951057 -0.000000 -0.309016
vn -0.951057 -0.000000 -0.309017
vn 0.951056 -0.000000 -0.309017
vn 0.951056 -0.000000 -0.309017
vn 0.309017 -0.000000 -0.951056
vn 0.309017 -0.000000 -0.951056
vn 0.587785 -0.000000 -0.809017
vn 0.587785 -0.000000 -0.809017
vn 0.809017 -0.000000 -0.587785
vn 0.809017 -0.000000 -0.587785
vn 0.587785 0.000000 0.809017
vn 0.587784 0.000000 0.809018
vn -0.809017 -0.000000 -0.587786
vn -0.809016 -0.000000 -0.587786
vn -0.587787 -0.000000 -0.809016
vn -0.587786 -0.000000 -0.809016
vn 0.809017 0.000000 0.587785
vn 0.809016 0.000000 0.587786
vn -0.309017 -0.000000 -0.951056
vn -0.309017 -0.000000 -0.951057
vn 0.951057 0.000000 0.309015
vn 0.951057 0.000000 0.309015
vn 0.000000 -0.000000 -1.000000
vn 0.000000 -0.000000 -1.000000
vn 1.000000 -0.000000 -0.000002
vn 1.000000 -0.000000 -0.000002
vn 0.951057 -0.000000 -0.309017
vn 0.951056 -0.000000 -0.309017
vn 0.309019 -0.000000 -0.951056
vn 0.309018 -0.000000 -0.951056
vn 0.809017 -0.000000 -0.587786
vn 0.809016 -0.000000 -0.587786
vn 0.587785 -0.000000 -0.809017
vn 0.587784 -0.000000 -0.809018
vn -0.692872 -0.664476 0.280002
vn -0.709763 -0.665382 0.231307
vn -0.180734 -0.664476 0.725126
vn -0.230056 -0.665382 0.710169
vn 0.705402 0.708807 -0.000000
vn 0.000000 0.708808 -0.705402
vn -0.572435 -0.664475 0.480407
vn -0.603547 -0.665382 0.439315
vn -0.395964 -0.664475 0.633786
vn -0.438251 -0.665382 0.604320
vn 0.670877 0.708808 -0.217981
vn 0.217981 0.708808 -0.670877
vn 0.570682 0.708808 -0.414625
vn 0.414625 0.708808 -0.570682
vn 0.000000 1.000000 -0.000000
vn 0.000000 1.000000 -0.000000
vn 0.000000 1.000000 0.000000
vn 0.000000 1.000000 0.000000
vn 0.000000 1.000000 -0.000000
vn -0.000000 1.000000 -0.000000
vn -0.000000 1.000000 0.000000
vn -0.000000 1.000000 0.000000
vn -0.000000 1.000000 0.000000
vn -0.000000 1.000000 0.000000
vn -0.000000 1.000000 0.000000
vn -0.000000 1.000000 0.000000
vn -0.000000 1.000000 0.000000
vn -0.000000 1.000000 0.000000
vn -0.000000 1.000000 0.000000
vn -0.000000 1.000000 0.000000
s 1
g pCone4
usemtl initialShadingGroup
f 1/1/1 2/2/2 4/4/3
f 4/4/3 2/2/2 3/3/4
f 5/5/5 6/6/6 8/8/7
f 8/8/7 6/6/6 7/7/8
s 3
f 9/9/9 7/10/10 10/11/11
f 4/12/12 11/13/13 10/11/11
s 5
f 12/14/14 13/15/15 15/17/16
f 13/15/15 14/16/17 15/17/16
f 16/18/18 17/19/19 19/21/20
f 17/19/19 18/20/21 19/21/20
s 3
f 1/22/22 4/12/12 10/11/11
f 7/10/10 6/23/23 10/11/11
s 5
f 20/24/24 8/25/25 12/14/14
f 8/25/25 13/15/15 12/14/14
f 19/21/20 18/20/21 21/27/26
f 18/20/21 3/26/27 21/27/26
s 3
f 22/28/28 1/22/22 10/11/11
f 6/23/23 23/29/29 10/11/11
s 1
f 22/30/30 24/31/31 1/1/1
f 1/1/1 24/31/31 2/2/2
f 25/32/32 23/33/33 5/5/5
f 5/5/5 23/33/33 6/6/6
s 3
f 26/34/34 22/28/28 10/11/11
f 23/35/29 27/36/35 10/11/11
s 5
f 21/27/26 3/26/27 28/38/36
f 3/26/27 2/37/37 28/38/36
f 29/39/38 5/40/39 20/24/24
f 5/40/39 8/25/25 20/24/24
s 3
f 27/36/35 30/41/40 10/11/11
f 31/42/41 26/34/34 10/11/11
f 32/43/42 31/42/41 10/11/11
f 30/41/40 33/44/43 10/11/11
f 33/44/43 32/43/42 10/11/11
s 5
f 28/38/36 2/37/37 34/46/44
f 2/37/37 24/45/45 34/46/44
f 35/47/46 25/48/47 29/39/38
f 25/48/47 5/40/39 29/39/38
s 1
f 22/30/30 26/49/48 24/31/31
f 24/31/31 26/49/48 36/50/49
f 37/51/50 27/52/51 25/32/32
f 25/32/32 27/52/51 23/33/33
s 13
f 38/53/52 39/54/53 40/55/54
f 39/54/53 41/56/55 40/55/54
f 42/57/56 38/53/52 40/55/54
s 14
f 43/58/57 44/59/58 45/60/59
f 46/61/60 43/58/57 45/60/59
f 44/59/58 47/62/61 45/60/59
s 13
f 41/56/55 48/63/62 40/55/54
f 49/64/63 42/57/56 40/55/54
s 14
f 50/65/64 46/61/60 45/60/59
f 47/62/61 51/66/65 45/60/59
s 5
f 34/46/44 24/45/45 52/68/66
f 24/45/45 36/67/67 52/68/66
f 53/69/68 37/70/69 35/72/46
f 37/70/69 25/71/47 35/72/46
s 13
f 48/63/62 54/73/70 40/55/54
f 55/74/71 49/64/63 40/55/54
s 14
f 56/75/72 50/65/64 45/60/59
f 51/66/65 57/76/73 45/60/59
s 1
f 58/77/74 30/78/75 37/51/50
f 37/51/50 30/78/75 27/52/51
f 36/50/49 26/49/48 59/80/76
f 59/80/76 26/49/48 31/79/77
s 13
f 54/73/70 60/81/78 40/55/54
f 61/82/79 55/74/71 40/55/54
s 14
f 62/83/80 56/75/72 45/60/59
f 57/76/73 63/84/81 45/60/59
s 17
f 64/85/82 65/86/83 40/87/84
f 66/88/85 64/85/82 40/87/84
f 65/86/83 67/89/86 40/87/84
f 68/90/87 66/88/85 40/87/84
f 67/89/86 69/91/88 40/87/84
s 5
f 70/92/89 58/93/90 53/69/68
f 58/93/90 37/70/69 53/69/68
f 52/68/66 36/67/67 71/95/91
f 36/67/67 59/94/92 71/95/91
s 17
f 72/96/93 68/90/87 40/87/84
f 69/91/88 73/97/94 40/87/84
f 74/98/95 72/96/93 40/87/84
f 73/97/94 75/99/96 40/87/84
f 75/99/96 76/100/97 40/87/84
f 77/101/98 74/98/95 40/87/84
f 76/100/97 78/102/99 40/87/84
f 79/103/100 77/101/98 40/87/84
s 13
f 80/104/101 61/82/79 40/55/54
f 60/81/78 81/105/102 40/55/54
s 17
f 78/102/99 82/106/103 40/87/84
f 83/107/104 79/103/100 40/87/84
f 84/108/105 83/107/104 40/87/84
f 82/106/103 85/109/106 40/87/84
f 85/109/106 86/110/107 40/87/84
f 87/111/108 84/108/105 40/87/84
f 86/110/107 87/111/108 40/87/84
s 14
f 63/84/81 88/112/109 45/60/59
f 89/113/110 62/83/80 45/60/59
s 5
f 90/114/111 91/115/112 70/92/89
f 91/115/112 58/93/90 70/92/89
f 71/95/91 59/94/92 93/117/113
f 59/94/92 92/116/114 93/117/113
s 1
f 91/118/115 33/119/116 58/77/74
f 58/77/74 33/119/116 30/78/75
f 59/80/76 31/79/77 92/121/117
f 92/121/117 31/79/77 32/120/118
s 5
f 93/117/113 92/116/114 90/114/111
f 92/116/114 91/115/112 90/114/111
s 13
f 94/122/119 80/104/101 40/55/54
f 81/105/102 95/123/120 40/55/54
s 21
f 39/124/121 38/125/122 43/127/123
f 43/127/123 38/125/122 44/126/124
s 14
f 88/112/109 96/128/125 45/60/59
f 97/129/126 89/113/110 45/60/59
s 1
f 92/121/117 32/120/118 91/118/115
f 91/118/115 32/120/118 33/119/116
s 21
f 41/130/127 39/124/121 46/131/128
f 46/131/128 39/124/121 43/127/123
f 38/125/122 42/132/129 44/126/124
f 44/126/124 42/132/129 47/133/130
s 13
f 98/134/131 94/122/119 40/55/54
f 95/123/120 99/135/132 40/55/54
s 14
f 96/128/125 100/136/133 45/60/59
f 101/137/134 97/129/126 45/60/59
s 13
f 99/135/132 102/138/135 40/55/54
f 103/139/136 98/134/131 40/55/54
s 22
f 104/140/137 65/141/138 105/143/139
f 105/143/139 65/141/138 64/142/140
f 105/143/139 64/142/140 106/145/141
f 106/145/141 64/142/140 66/144/142
f 107/146/143 67/147/144 104/140/137
f 104/140/137 67/147/144 65/141/138
s 21
f 48/148/145 41/130/127 50/149/146
f 50/149/146 41/130/127 46/131/128
f 42/132/129 49/150/147 47/133/130
f 47/133/130 49/150/147 51/151/148
s 22
f 106/145/141 66/144/142 15/153/149
f 15/153/149 66/144/142 68/152/150
f 16/154/151 69/155/152 107/146/143
f 107/146/143 69/155/152 67/147/144
s 14
f 108/156/153 101/137/134 45/60/59
f 100/136/133 109/157/154 45/60/59
s 13
f 102/138/135 110/158/155 40/55/54
f 111/159/156 103/139/136 40/55/54
s 22
f 15/153/149 68/152/150 12/161/157
f 12/161/157 68/152/150 72/160/158
f 19/162/159 73/163/160 16/154/151
f 16/154/151 73/163/160 69/155/152
s 13
f 110/158/155 111/159/156 40/55/54
s 14
f 112/164/161 108/156/153 45/60/59
f 109/157/154 113/165/162 45/60/59
s 22
f 12/161/157 72/160/158 20/167/163
f 20/167/163 72/160/158 74/166/164
f 21/168/165 75/169/166 19/162/159
f 19/162/159 75/169/166 73/163/160
s 14
f 113/165/162 112/164/161 45/60/59
s 22
f 28/170/167 76/171/168 21/168/165
f 21/168/165 76/171/168 75/169/166
f 20/167/163 74/166/164 29/173/169
f 29/173/169 74/166/164 77/172/170
f 34/174/171 78/175/172 28/170/167
f 28/170/167 78/175/172 76/171/168
f 29/173/169 77/172/170 35/177/173
f 35/177/173 77/172/170 79/176/174
f 52/178/175 82/179/176 34/174/171
f 34/174/171 82/179/176 78/175/172
f 35/180/173 79/181/174 53/183/177
f 53/183/177 79/181/174 83/182/178
s 21
f 54/184/179 48/148/145 56/185/180
f 56/185/180 48/148/145 50/149/146
f 49/150/147 55/186/181 51/151/148
f 51/151/148 55/186/181 57/187/182
s 22
f 53/183/177 83/182/178 70/189/183
f 70/189/183 83/182/178 84/188/184
f 71/190/185 85/191/186 52/178/175
f 52/178/175 85/191/186 82/179/176
f 93/192/187 86/193/188 71/190/185
f 71/190/185 86/193/188 85/191/186
f 70/189/183 84/188/184 90/195/189
f 90/195/189 84/188/184 87/194/190
f 90/195/189 87/194/190 93/192/187
f 93/192/187 87/194/190 86/193/188
s 21
f 60/196/191 54/184/179 62/197/192
f 62/197/192 54/184/179 56/185/180
f 55/186/181 61/198/193 57/187/182
f 57/187/182 61/198/193 63/199/194
f 61/198/193 80/200/195 63/199/194
f 63/199/194 80/200/195 88/201/196
f 81/202/197 60/196/191 89/203/198
f 89/203/198 60/196/191 62/197/192
f 80/200/195 94/204/199 88/201/196
f 88/201/196 94/204/199 96/205/200
f 95/206/201 81/202/197 97/207/202
f 97/207/202 81/202/197 89/203/198
f 94/204/199 98/208/203 96/205/200
f 96/205/200 98/208/203 100/209/204
f 99/210/205 95/211/201 101/213/206
f 101/213/206 95/211/201 97/212/202
f 102/214/207 99/210/205 108/215/208
f 108/215/208 99/210/205 101/213/206
f 98/208/203 103/216/209 100/209/204
f 100/209/204 103/216/209 109/217/210
f 110/218/211 102/214/207 112/219/212
f 112/219/212 102/214/207 108/215/208
f 103/216/209 111/220/213 109/217/210
f 109/217/210 111/220/213 113/221/214
f 111/220/213 110/218/211 113/221/214
f 113/221/214 110/218/211 112/219/212
s 5
f 107/222/215 114/223/216 16/18/18
f 114/223/216 17/19/19 16/18/18
f 15/17/16 14/16/17 106/225/217
f 14/16/17 115/224/218 106/225/217
s 3
f 11/13/13 116/226/219 10/11/11
f 117/227/220 9/9/9 10/11/11
s 5
f 104/228/221 118/229/222 107/222/215
f 118/229/222 114/223/216 107/222/215
f 106/225/217 115/224/218 105/231/223
f 115/224/218 119/230/224 105/231/223
s 3
f 116/226/219 120/232/225 10/11/11
f 121/233/226 117/227/220 10/11/11
s 5
f 105/231/223 119/230/224 104/228/221
f 119/230/224 118/229/222 104/228/221
s 3
f 120/232/225 122/234/227 10/11/11
f 123/235/228 121/233/226 10/11/11
f 122/234/227 123/235/228 10/11/11
s 1
f 4/4/3 3/3/4 11/237/229
f 11/237/229 3/3/4 18/236/230
f 8/8/7 7/7/8 13/239/231
f 13/239/231 7/7/8 9/238/232
f 11/237/229 18/236/230 116/241/233
f 116/241/233 18/236/230 17/240/234
f 13/239/231 9/238/232 14/243/235
f 14/243/235 9/238/232 117/242/236
f 116/241/233 17/240/234 120/245/237
f 120/245/237 17/240/234 114/244/238
f 121/246/239 115/247/240 117/242/236
f 117/242/236 115/247/240 14/243/235
f 120/245/237 114/244/238 122/249/241
f 122/249/241 114/244/238 118/248/242
f 123/250/243 119/251/244 121/246/239
f 121/246/239 119/251/244 115/247/240
f 122/249/241 118/248/242 123/250/243
f 123/250/243 118/248/242 119/251/244
