# This file uses centimeters as units for non-parametric coordinates.

mtllib corner.mtl
g default
v 0.487870 0.000000 -0.487870
v 0.487870 0.012195 -0.500000
v 0.500000 0.012195 -0.487870
v -0.487870 0.012195 0.500000
v -0.500000 0.012195 0.487870
v -0.487870 -0.000000 0.487870
v -0.106577 0.889883 -0.106577
v -0.106577 0.889883 -0.487870
v -0.106577 0.012195 -0.487870
v -0.106577 0.012195 -0.106577
v -0.487870 0.012195 -0.106577
v -0.487870 0.889883 -0.106577
v -0.094446 0.889883 -0.500000
v 0.487870 0.889883 -0.500000
v -0.094446 0.012195 -0.500000
v -0.500000 0.889883 0.487870
v -0.500000 0.889883 -0.094446
v -0.500000 0.012195 -0.094446
v -0.094446 0.902078 -0.487870
v -0.487870 0.902078 -0.094446
v -0.094446 0.012195 0.500000
v -0.094446 -0.000000 0.487870
v 0.487870 0.000000 -0.094446
v 0.487870 -0.000000 -0.094446
v 0.487870 0.000000 -0.094446
v 0.500000 0.012195 -0.094446
v -0.094446 -0.000000 -0.094446
v 0.487870 -0.000000 0.487870
v 0.500000 0.012195 -0.094446
v 0.500000 0.889883 -0.487870
v -0.487870 0.889883 0.500000
v -0.094446 0.902078 -0.094446
v 0.487870 0.902078 -0.487870
v -0.487870 0.902078 0.487870
v 0.487870 -0.000000 0.487870
v 0.500000 0.012195 0.487870
v 0.487870 0.012195 0.500000
v 0.500000 0.889883 -0.094446
v -0.094446 0.889883 0.500000
v 0.487870 0.012195 0.500000
v 0.487870 0.902078 -0.094446
v 0.487870 0.902078 -0.094446
v 0.487870 0.902078 -0.094446
v -0.094446 0.902078 0.487870
v 0.500000 0.889883 -0.094446
v 0.487870 0.889883 0.500000
v 0.500000 0.889883 0.487870
v 0.487870 0.902078 0.487870
v 0.487870 0.889883 0.500000
v 0.487870 0.902078 0.487870
v -0.487870 -0.000000 -0.094446
v -0.094446 0.000000 -0.487870
vt 0.620000 0.753033
vt 0.620000 0.746620
vt 0.625000 0.746620
vt 0.375000 0.746620
vt 0.380000 0.746620
vt 0.380000 0.753033
vt 0.223356 0.246620
vt 0.128033 0.246620
vt 0.128033 0.003380
vt 0.223356 0.003380
vt 0.776644 0.003380
vt 0.871967 0.003380
vt 0.871967 0.246620
vt 0.776644 0.246620
vt 0.380000 0.503380
vt 0.620000 0.503380
vt 0.380000 0.746620
vt 0.380000 0.503380
vt 0.620000 0.503380
vt 0.620000 0.746620
vt 0.375000 0.496967
vt 0.380000 0.496967
vt 0.620000 0.496967
vt 0.625000 0.496967
vt 0.375000 0.851388
vt 0.375000 0.753033
vt 0.380000 0.851388
vt 0.620001 0.996967
vt 0.620000 0.996967
vt 0.620000 0.996967
vt 0.620000 0.851388
vt 0.625000 0.753033
vt 0.625000 0.851388
vt 0.620001 0.851388
vt 0.620000 0.851388
vt 0.380000 0.996967
vt 0.620001 0.003380
vt 0.620000 0.003380
vt 0.620000 0.000000
vt 0.620001 0.000000
vt 0.625000 0.503380
vt 0.375000 0.503380
vt 0.380000 0.398612
vt 0.375000 0.401644
vt 0.625000 0.401644
vt 0.620000 0.398612
vt 0.620000 0.496967
vt 0.625000 0.496967
vt 0.375000 0.496967
vt 0.380000 0.496967
vt 0.380000 0.000000
vt 0.380000 0.003380
vt 0.371967 0.003380
vt 0.773612 0.003380
vt 0.871967 0.003380
vt 0.871967 0.246620
vt 0.773612 0.246620
vt 0.128033 0.003380
vt 0.226388 0.003380
vt 0.226388 0.246620
vt 0.128033 0.246620
vt 0.380000 0.996967
vt 0.375000 0.996967
vt 0.620000 0.253033
vt 0.620001 0.253033
vt 0.620000 0.253033
vt 0.620000 0.398612
vt 0.380000 0.398612
vt 0.620001 0.246620
vt 0.620000 0.246620
vt 0.375000 0.996967
vt 0.371967 0.246620
vt 0.380000 0.246620
vt 0.380000 0.253033
vt 0.375000 0.398612
vt 0.371967 0.003380
vt 0.371967 0.246620
vt 0.380000 0.253033
vt 0.375000 0.253033
vt 0.625000 0.398612
vt 0.620000 0.398612
vt 0.375000 0.253033
vt 0.620000 0.753033
vt 0.380000 0.851388
vt 0.380000 0.753033
vt 0.625000 0.503380
vt 0.625000 0.746620
vt 0.375000 0.503380
vt 0.375000 0.746620
vt 0.625000 0.753033
vt 0.625000 0.848356
vt 0.375000 0.848356
vt 0.375000 0.753033
vn 0.578381 -0.575286 -0.578378
vn 0.578381 -0.575286 -0.578378
vn 0.578381 -0.575286 -0.578378
vn -0.578380 -0.575288 0.578377
vn -0.578380 -0.575288 0.578377
vn -0.578380 -0.575288 0.578377
vn -1.000000 0.000000 0.000000
vn -1.000000 0.000000 0.000000
vn -1.000000 0.000000 0.000000
vn -1.000000 0.000000 0.000000
vn 0.000000 0.000000 -1.000000
vn 0.000000 0.000000 -1.000000
vn 0.000000 0.000000 -1.000000
vn 0.000000 0.000000 -1.000000
vn 0.000000 0.000000 -1.000000
vn 0.000000 0.000000 -1.000000
vn 0.000000 0.000000 -1.000000
vn 0.000000 0.000000 -1.000000
vn -1.000000 0.000000 0.000000
vn -1.000000 0.000000 0.000000
vn -1.000000 0.000000 0.000000
vn -1.000000 0.000000 0.000000
vn -0.578379 0.575288 -0.578379
vn -0.578379 0.575288 -0.578379
vn -0.578379 0.575288 -0.578379
vn -0.578380 0.575289 -0.578377
vn -0.578379 0.575289 -0.578377
vn -0.578380 0.575289 -0.578377
vn 0.000000 -0.705210 0.708999
vn 0.000000 -0.705210 0.708999
vn 0.000000 -0.705210 0.708999
vn 0.000000 -0.705210 0.708999
vn 0.000000 -0.000000 -0.000000
vn 0.000000 -0.000000 -0.000000
vn 0.000000 -0.000000 -0.000000
vn 0.708999 -0.705210 0.000000
vn 0.708999 -0.705210 0.000000
vn 0.708999 -0.705210 0.000000
vn 0.708999 -0.705210 0.000000
vn 0.708999 -0.705209 0.000000
vn 0.000000 -1.000000 -0.000000
vn 0.000000 -1.000000 -0.000000
vn -0.000000 -1.000000 -0.000000
vn 0.000000 -1.000000 -0.000000
vn 0.622043 -0.551904 -0.555396
vn 0.622043 -0.551904 -0.555396
vn 0.622043 -0.551904 -0.555396
vn 0.622043 -0.551904 -0.555396
vn 0.707107 0.000000 -0.707106
vn 0.707107 0.000000 -0.707106
vn 0.707107 0.000000 -0.707106
vn 0.707107 0.000000 -0.707106
vn -0.707107 0.000000 0.707106
vn -0.707107 0.000000 0.707106
vn -0.707107 0.000000 0.707106
vn -0.707107 0.000000 0.707106
vn -0.709000 0.705209 0.000000
vn -0.709000 0.705209 0.000000
vn -0.709000 0.705209 0.000000
vn -0.709000 0.705209 0.000000
vn 0.000000 0.705208 -0.709000
vn 0.000000 0.705209 -0.709000
vn 0.000000 0.705209 -0.709000
vn 0.000000 0.705208 -0.709000
vn 0.578379 0.575288 -0.578379
vn 0.578379 0.575288 -0.578379
vn 0.578379 0.575288 -0.578379
vn -0.578378 0.575290 0.578378
vn -0.578378 0.575290 0.578378
vn -0.578378 0.575290 0.578378
vn 0.578380 -0.575288 0.578377
vn 0.578380 -0.575288 0.578377
vn 0.578380 -0.575288 0.578377
vn 0.000000 0.705209 -0.709000
vn 0.000000 0.705209 -0.709000
vn 0.000000 0.705209 -0.709000
vn 0.000000 0.705209 -0.709000
vn -0.708999 0.705209 0.000000
vn -0.708999 0.705209 0.000000
vn -0.708999 0.705209 0.000000
vn -0.708999 0.705209 0.000000
vn 1.000000 0.000000 0.000000
vn 1.000000 0.000000 0.000000
vn 1.000000 0.000000 0.000000
vn 1.000000 0.000000 0.000000
vn 0.000000 0.000000 1.000000
vn 0.000000 0.000000 1.000000
vn 0.000000 0.000000 1.000000
vn 0.000000 0.000000 1.000000
vn -0.000000 -1.000000 -0.000000
vn -0.000000 -1.000000 -0.000000
vn 0.000000 -0.705210 0.708999
vn 0.000000 -0.705210 0.708999
vn 0.708998 -0.705210 0.000000
vn 0.708998 -0.705210 0.000000
vn 0.708998 -0.705210 0.000000
vn 0.708998 -0.705210 0.000000
vn 0.000000 0.000000 -0.000000
vn 0.000000 0.000000 -0.000000
vn 0.000000 0.000000 -0.000000
vn 0.000000 1.000000 0.000000
vn 0.000000 1.000000 0.000000
vn 0.000000 1.000000 0.000000
vn 0.000000 1.000000 0.000000
vn 0.000000 1.000000 0.000000
vn 0.000000 1.000000 0.000000
vn 0.000000 1.000000 0.000000
vn 0.706022 0.000000 -0.708190
vn 0.706022 0.000000 -0.708190
vn 0.706022 0.000000 -0.708190
vn 0.706022 0.000000 -0.708190
vn 0.000000 -0.539415 0.842040
vn 0.000000 -0.539415 0.842040
vn 0.578378 0.575290 0.578378
vn 0.578378 0.575290 0.578378
vn 0.578378 0.575290 0.578378
vn 0.000000 0.705209 0.709000
vn 0.000000 0.705210 0.708999
vn 0.000000 0.705210 0.708999
vn 0.000000 0.705209 0.709000
vn 0.000000 0.000000 1.000000
vn 0.000000 0.000000 1.000000
vn 1.000000 0.000000 0.000000
vn 1.000000 0.000000 0.000000
vn 1.000000 0.000000 0.000000
vn 1.000000 0.000000 0.000000
vn 0.509697 0.527597 -0.679596
vn 0.509697 0.527597 -0.679596
vn 0.509697 0.527597 -0.679596
vn 0.509697 0.527597 -0.679596
vn 0.000000 1.000000 0.000000
vn 0.000000 0.000000 1.000000
vn 0.000000 0.000000 1.000000
vn 0.707107 0.000000 0.707106
vn 0.707107 0.000000 0.707106
vn 0.707107 0.000000 0.707106
vn 0.707107 0.000000 0.707106
vn 0.000000 0.705209 0.709000
vn 0.000000 0.705209 0.709000
vn 0.708999 0.705209 0.000000
vn 0.708999 0.705209 0.000000
vn 0.708999 0.705209 0.000000
vn 0.708999 0.705209 0.000000
vn 0.000000 1.000000 0.000000
vn 0.000000 1.000000 0.000000
vn 0.709000 0.705209 0.000000
vn 0.709000 0.705209 0.000000
vn 0.709000 0.705209 0.000000
vn 0.709000 0.705209 0.000000
vn 0.709000 0.705209 0.000000
vn 0.000000 0.539414 0.842041
vn 0.000000 0.539414 0.842041
vn 0.000000 -1.000000 -0.000000
vn 0.000000 -1.000000 -0.000000
vn 0.000000 -1.000000 -0.000000
vn 0.000000 -1.000000 -0.000000
vn -0.707107 0.000000 -0.707107
vn -0.707107 0.000000 -0.707107
vn -0.707107 0.000000 -0.707107
vn -0.707107 0.000000 -0.707107
vn -0.707107 0.000000 -0.707106
vn -0.707107 0.000000 -0.707106
vn -0.707107 0.000000 -0.707106
vn -0.707107 0.000000 -0.707106
vn -0.708998 -0.705210 0.000000
vn -0.708998 -0.705210 0.000000
vn -0.708998 -0.705210 0.000000
vn -0.708998 -0.705210 0.000000
vn -0.000000 -0.705210 -0.708999
vn -0.000000 -0.705210 -0.708999
vn -0.000000 -0.705210 -0.708999
vn -0.000000 -0.705210 -0.708999
vn -0.578378 -0.575289 -0.578378
vn -0.578379 -0.575289 -0.578378
vn -0.578379 -0.575289 -0.578378
vn -0.578381 -0.575287 -0.578378
vn -0.578381 -0.575287 -0.578378
vn -0.578381 -0.575287 -0.578378
vn 0.000000 -0.705210 -0.708999
vn 0.000000 -0.705210 -0.708999
vn 0.000000 -0.705210 -0.708999
vn 0.000000 -0.705210 -0.708999
vn -0.708999 -0.705209 0.000000
vn -0.708999 -0.705209 0.000000
vn -0.708999 -0.705209 0.000000
vn -0.708999 -0.705209 0.000000
s off
g Cabinet group_pasted__group1_pasted__pCube1
usemtl initialShadingGroup
f 1/1/1 2/2/2 3/3/3
f 4/4/4 5/5/5 6/6/6
f 7/7/7 8/8/8 9/9/9 10/10/10
f 10/11/11 11/12/12 12/13/13 7/14/14
f 13/15/15 14/16/16 2/2/17 15/17/18
f 16/18/19 17/19/20 18/20/21 5/5/22
f 8/21/23 19/22/24 13/15/25
f 17/19/26 20/23/27 12/24/28
s 1
f 21/25/29 4/26/30 6/6/31 22/27/32
s off
f 23/28/33 24/29/34 25/30/35
f 25/31/36 1/1/37 3/32/38 26/33/39 23/34/40
s 2
f 27/35/41 25/30/42 28/36/43 22/27/44
s off
f 26/37/45 29/38/46 24/39/47 23/40/48
f 14/16/49 30/41/50 3/3/51 2/2/52
f 31/42/53 16/18/54 5/5/55 4/4/56
f 32/43/57 19/22/58 8/21/59 7/44/60
f 7/45/61 12/24/62 20/23/63 32/46/64
f 14/16/65 33/47/66 30/48/67
f 31/49/68 34/50/69 16/18/70
f 35/51/71 36/52/72 37/53/73
f 13/15/74 19/22/75 33/47/76 14/16/77
f 16/18/78 34/50/79 20/23/80 17/19/81
f 26/54/82 3/55/83 30/56/84 38/57/85
s 3
f 4/58/86 21/59/87 39/60/88 31/61/89
s 2
f 25/30/42 24/29/90 35/62/91 28/36/43
s 1
f 40/63/92 21/25/29 22/27/32 28/36/93
s off
f 36/52/94 35/51/95 24/39/96 29/38/97
f 41/64/98 42/65/99 43/66/100
s 4
f 43/67/101 33/47/102 19/22/103 32/43/104
f 32/46/104 20/23/105 34/50/106 44/68/107
s off
f 38/69/108 45/70/109 29/38/110 26/37/111
s 1
f 35/62/112 37/71/113 40/63/92 28/36/93
s off
f 46/72/114 47/73/115 48/74/116
s 5
f 44/68/117 34/50/118 31/49/119 39/75/120
s 3
f 21/59/87 40/76/121 49/77/122 39/60/88
s off
f 36/52/123 29/38/124 45/70/125 47/73/126
f 42/65/127 41/64/128 45/70/129 38/69/130
s 4
f 43/66/101 32/46/104 44/68/107 50/78/131
s 3
f 40/76/121 37/53/132 46/72/133 49/77/122
s off
f 37/53/134 36/52/135 47/73/136 46/72/137
s 5
f 50/78/138 44/68/117 39/75/120 49/79/139
s off
f 48/74/140 47/73/141 45/70/142 41/64/143
s 4
f 48/74/144 41/64/145 43/66/101 50/78/131
s off
f 38/80/146 30/48/147 33/47/148 43/67/149 42/81/150
s 5
f 46/82/151 48/74/152 50/78/138 49/79/139
s 2
f 6/6/153 51/83/154 27/35/41 22/27/44
f 27/84/41 52/85/155 1/1/156 25/31/42
s off
f 17/19/157 12/86/158 11/87/159 18/20/160
f 8/88/161 13/15/162 15/17/163 9/89/164
f 6/6/165 5/5/166 18/20/167 51/83/168
f 52/85/169 15/17/170 2/2/171 1/1/172
f 51/83/173 18/20/174 11/87/175
f 9/89/176 15/17/177 52/85/178
f 27/35/179 51/83/180 11/90/181 10/91/182
f 10/92/183 9/93/184 52/85/185 27/84/186
g default
v -0.106577 0.914274 -0.487870
v -0.094446 0.914274 -0.500000
v -0.094446 0.902079 -0.487870
v -0.487870 0.902079 -0.094446
v -0.500000 0.914274 -0.094446
v -0.487870 0.914274 -0.106577
v -0.106577 0.994746 -0.487870
v -0.094446 1.006942 -0.487870
v -0.094446 0.994746 -0.500000
v -0.500000 0.994746 -0.094446
v -0.487870 1.006942 -0.094446
v -0.487870 0.994746 -0.106577
v 0.487870 0.902079 -0.487870
v 0.487870 0.914274 -0.500000
v 0.500000 0.914274 -0.487870
v -0.487870 0.914274 0.500000
v -0.500000 0.914274 0.487870
v -0.487870 0.902079 0.487870
v -0.106577 0.914274 -0.106577
v -0.094446 0.902079 -0.094446
v -0.106577 0.994746 -0.106577
v 0.487870 0.994746 -0.500000
v 0.487870 1.006942 -0.487870
v 0.500000 0.994746 -0.487870
v -0.487870 0.994746 0.500000
v -0.487870 1.006942 0.487870
v -0.500000 0.994746 0.487870
v -0.094446 1.006942 -0.094446
v 0.487870 0.902079 -0.094446
v 0.487870 0.902079 -0.094446
v 0.487870 0.902079 -0.094446
v 0.487870 1.006942 -0.094446
v 0.487870 1.006942 -0.094446
v 0.487870 1.006942 -0.094446
v -0.094446 0.902079 0.487870
v -0.094446 1.006942 0.487870
v 0.487870 0.902079 0.487870
v 0.500000 0.914274 0.487870
v 0.487870 0.914274 0.500000
v -0.094446 0.914274 0.500000
v 0.487870 0.994746 0.500000
v 0.500000 0.994746 0.487870
v 0.487870 1.006942 0.487870
v 0.500000 0.914274 -0.094446
v 0.500000 0.994746 -0.094446
v -0.094446 0.994746 0.500000
v 0.487870 0.902079 0.487870
v 0.500000 0.914274 -0.094446
v 0.500000 0.994746 -0.094446
v 0.487870 1.006942 0.487870
v 0.487870 0.914274 0.500000
v 0.487870 0.994746 0.500000
vt 0.375000 0.746620
vt 0.380000 0.746620
vt 0.380000 0.753033
vt 0.620000 0.753033
vt 0.620000 0.746620
vt 0.625000 0.746620
vt 0.375000 0.496967
vt 0.380000 0.496967
vt 0.380000 0.503380
vt 0.620000 0.503380
vt 0.620000 0.496967
vt 0.625000 0.496967
vt 0.375000 0.503380
vt 0.625000 0.503380
vt 0.620000 0.753033
vt 0.620000 0.746620
vt 0.625000 0.746620
vt 0.375000 0.746620
vt 0.380000 0.746620
vt 0.380000 0.753033
vt 0.375000 0.848356
vt 0.375000 0.753033
vt 0.380000 0.851388
vt 0.620000 0.851388
vt 0.625000 0.753033
vt 0.625000 0.848356
vt 0.223356 0.246620
vt 0.128033 0.246620
vt 0.128033 0.003380
vt 0.223356 0.003380
vt 0.776644 0.003380
vt 0.871967 0.003380
vt 0.871967 0.246620
vt 0.776644 0.246620
vt 0.620000 0.503380
vt 0.620000 0.496967
vt 0.625000 0.496967
vt 0.375000 0.496967
vt 0.380000 0.496967
vt 0.380000 0.503380
vt 0.380000 0.398612
vt 0.375000 0.401644
vt 0.625000 0.401644
vt 0.620000 0.398612
vt 0.620001 0.996967
vt 0.620000 0.996967
vt 0.620000 0.996967
vt 0.620000 0.253033
vt 0.620001 0.253033
vt 0.620000 0.253033
vt 0.620000 0.851388
vt 0.380000 0.851388
vt 0.620000 0.398612
vt 0.380000 0.398612
vt 0.625000 0.503380
vt 0.375000 0.503380
vt 0.380000 0.000000
vt 0.380000 0.003380
vt 0.371967 0.003380
vt 0.375000 0.851388
vt 0.375000 0.753033
vt 0.371967 0.246620
vt 0.380000 0.246620
vt 0.380000 0.253033
vt 0.773612 0.003380
vt 0.871967 0.003380
vt 0.871967 0.246620
vt 0.773612 0.246620
vt 0.128033 0.003380
vt 0.226388 0.003380
vt 0.226388 0.246620
vt 0.128033 0.246620
vt 0.375000 0.398612
vt 0.380000 0.996967
vt 0.620001 0.003380
vt 0.620000 0.003380
vt 0.620000 0.000000
vt 0.620001 0.000000
vt 0.620001 0.246620
vt 0.620000 0.246620
vt 0.380000 0.253033
vt 0.380000 0.996967
vt 0.375000 0.996967
vt 0.371967 0.003380
vt 0.371967 0.246620
vt 0.375000 0.253033
vt 0.625000 0.753033
vt 0.625000 0.851388
vt 0.620001 0.851388
vt 0.375000 0.996967
vt 0.625000 0.398612
vt 0.620000 0.398612
vt 0.375000 0.253033
vn -0.578379 -0.575288 -0.578379
vn -0.578379 -0.575288 -0.578379
vn -0.578379 -0.575288 -0.578379
vn -0.578378 -0.575290 -0.578378
vn -0.578378 -0.575290 -0.578378
vn -0.578378 -0.575290 -0.578378
vn -0.578383 0.575282 -0.578380
vn -0.578383 0.575282 -0.578380
vn -0.578383 0.575282 -0.578380
vn -0.578382 0.575284 -0.578379
vn -0.578383 0.575284 -0.578379
vn -0.578382 0.575284 -0.578379
vn -0.707106 0.000000 -0.707107
vn -0.707106 0.000000 -0.707107
vn -0.707106 0.000000 -0.707107
vn -0.707106 0.000000 -0.707107
vn -0.707107 0.000000 -0.707107
vn -0.707107 0.000000 -0.707107
vn -0.707107 0.000000 -0.707107
vn -0.707107 0.000000 -0.707107
vn 0.578379 -0.575288 -0.578379
vn 0.578379 -0.575288 -0.578379
vn 0.578379 -0.575288 -0.578379
vn -0.578378 -0.575290 0.578378
vn -0.578378 -0.575290 0.578378
vn -0.578378 -0.575290 0.578378
vn -0.708998 -0.705210 0.000000
vn -0.708998 -0.705210 0.000000
vn -0.708998 -0.705210 0.000000
vn -0.708998 -0.705210 0.000000
vn 0.000000 -0.705211 -0.708997
vn 0.000000 -0.705211 -0.708997
vn 0.000000 -0.705211 -0.708997
vn 0.000000 -0.705211 -0.708997
vn -1.000000 0.000000 0.000000
vn -1.000000 0.000000 0.000000
vn -1.000000 0.000000 0.000000
vn -1.000000 0.000000 0.000000
vn 0.000000 0.000000 -1.000000
vn 0.000000 0.000000 -1.000000
vn 0.000000 0.000000 -1.000000
vn 0.000000 0.000000 -1.000000
vn 0.578384 0.575282 -0.578380
vn 0.578384 0.575282 -0.578380
vn 0.578384 0.575282 -0.578380
vn -0.578382 0.575284 0.578379
vn -0.578383 0.575284 0.578379
vn -0.578382 0.575284 0.578379
vn -0.709005 0.705203 0.000000
vn -0.709005 0.705203 0.000000
vn -0.709005 0.705203 0.000000
vn -0.709005 0.705203 0.000000
vn 0.000000 0.705204 -0.709004
vn 0.000000 0.705204 -0.709004
vn 0.000000 0.705204 -0.709004
vn 0.000000 0.705204 -0.709004
vn 0.000000 -0.705209 -0.709000
vn 0.000000 -0.705209 -0.709000
vn 0.000000 -0.705209 -0.709000
vn 0.000000 -0.705209 -0.709000
vn -0.708998 -0.705211 0.000000
vn -0.708998 -0.705211 0.000000
vn -0.708998 -0.705211 0.000000
vn -0.708998 -0.705211 0.000000
vn 0.000000 0.000000 -1.000000
vn 0.000000 0.000000 -1.000000
vn 0.000000 0.000000 -1.000000
vn 0.000000 0.000000 -1.000000
vn -1.000000 0.000000 0.000000
vn -1.000000 0.000000 0.000000
vn -1.000000 0.000000 0.000000
vn -1.000000 0.000000 0.000000
vn 0.000000 0.705203 -0.709006
vn 0.000000 0.705203 -0.709006
vn 0.000000 0.705203 -0.709006
vn 0.000000 0.705203 -0.709006
vn -0.709005 0.705204 0.000000
vn -0.709005 0.705204 0.000000
vn -0.709005 0.705204 0.000000
vn -0.709005 0.705204 0.000000
vn 0.000000 -0.000000 0.000000
vn 0.000000 -0.000000 0.000000
vn 0.000000 -0.000000 0.000000
vn 0.000000 0.000000 -0.000000
vn 0.000000 0.000000 -0.000000
vn 0.000000 0.000000 -0.000000
vn 0.000000 -1.000000 0.000000
vn 0.000000 -1.000000 0.000000
vn 0.000000 -1.000000 0.000000
vn 0.000000 -1.000000 0.000000
vn 0.000000 -1.000000 0.000000
vn 0.000000 -1.000000 0.000000
vn 0.000000 -1.000000 0.000000
vn 0.000000 1.000000 0.000000
vn 0.000000 1.000000 0.000000
vn 0.000000 1.000000 0.000000
vn 0.000000 1.000000 0.000000
vn 0.000000 1.000000 0.000000
vn 0.000000 1.000000 0.000000
vn 0.000000 1.000000 0.000000
vn 0.707106 0.000000 -0.707107
vn 0.707106 0.000000 -0.707107
vn 0.707106 0.000000 -0.707107
vn 0.707106 0.000000 -0.707107
vn -0.707106 0.000000 0.707107
vn -0.707106 0.000000 0.707107
vn -0.707106 0.000000 0.707107
vn -0.707106 0.000000 0.707107
vn 0.578378 -0.575290 0.578378
vn 0.578378 -0.575290 0.578378
vn 0.578378 -0.575290 0.578378
vn 0.000000 -0.705210 0.708999
vn 0.000000 -0.705212 0.708997
vn 0.000000 -0.705212 0.708997
vn 0.000000 -0.705210 0.708999
vn 0.578382 0.575284 0.578379
vn 0.578382 0.575284 0.578379
vn 0.578383 0.575284 0.578379
vn 1.000000 0.000000 0.000000
vn 1.000000 0.000000 0.000000
vn 1.000000 0.000000 0.000000
vn 1.000000 0.000000 0.000000
vn 0.000000 0.000000 1.000000
vn 0.000000 0.000000 1.000000
vn 0.000000 0.000000 1.000000
vn 0.000000 0.000000 1.000000
vn 0.000000 0.705203 0.709006
vn 0.000000 0.705203 0.709006
vn 0.000000 0.705203 0.709006
vn 0.000000 0.705203 0.709006
vn 0.000000 -1.000000 0.000000
vn 0.330003 -0.341592 -0.880007
vn 0.330003 -0.341592 -0.880007
vn 0.330003 -0.341592 -0.880008
vn 0.330003 -0.341592 -0.880008
vn 0.696565 0.000000 -0.717493
vn 0.696565 0.000000 -0.717493
vn 0.696565 0.000000 -0.717493
vn 0.696565 0.000000 -0.717493
vn 0.709005 0.705203 0.000000
vn 0.694801 0.719202 0.000000
vn 0.694801 0.719202 0.000000
vn 0.709005 0.705203 0.000000
vn 0.000000 1.000000 0.000000
vn 0.000000 -1.000000 0.000000
vn 0.000000 -1.000000 0.000000
vn 0.000000 -0.705209 0.709000
vn 0.000000 -0.705209 0.709000
vn 0.708998 -0.705211 0.000000
vn 0.708998 -0.705211 0.000000
vn 0.708998 -0.705211 0.000000
vn 0.708998 -0.705211 0.000000
vn 0.000000 0.000000 1.000000
vn 0.000000 0.000000 1.000000
vn 1.000000 0.000000 0.000000
vn 1.000000 0.000000 0.000000
vn 1.000000 0.000000 0.000000
vn 1.000000 0.000000 0.000000
vn 0.000000 0.705203 0.709006
vn 0.000000 0.705203 0.709006
vn 0.709005 0.705204 0.000000
vn 0.709005 0.705204 0.000000
vn 0.709005 0.705204 0.000000
vn 0.709005 0.705204 0.000000
vn 0.000000 1.000000 0.000000
vn 0.000000 1.000000 0.000000
vn 0.708998 -0.705210 0.000000
vn 0.708998 -0.705210 0.000000
vn 0.708998 -0.705210 0.000000
vn 0.708998 -0.705210 0.000000
vn 0.708998 -0.705210 0.000000
vn 0.000000 -0.539416 0.842039
vn 0.000000 -0.539416 0.842039
vn 0.709005 0.705203 0.000000
vn 0.709005 0.705203 0.000000
vn 0.709005 0.705203 0.000000
vn 0.000000 0.000000 1.000000
vn 0.000000 0.000000 1.000000
vn 0.707106 0.000000 0.707107
vn 0.707106 0.000000 0.707107
vn 0.707106 0.000000 0.707107
vn 0.707106 0.000000 0.707107
vn 0.000000 0.539409 0.842044
vn 0.000000 0.539409 0.842044
s off
g group_pasted__group1_pasted__pCube1 Top
usemtl initialShadingGroup
f 53/94/187 54/95/188 55/96/189
f 56/97/190 57/98/191 58/99/192
f 59/100/193 60/101/194 61/102/195
f 62/103/196 63/104/197 64/105/198
f 59/106/199 61/102/200 54/95/201 53/94/202
f 62/103/203 64/107/204 58/99/205 57/98/206
f 65/108/207 66/109/208 67/110/209
f 68/111/210 69/112/211 70/113/212
f 71/114/213 53/115/214 55/96/215 72/116/216
f 72/117/217 56/97/218 58/118/219 71/119/220
f 73/120/221 59/121/222 53/122/223 71/123/224
f 71/124/225 58/125/226 64/126/227 73/127/228
f 74/128/229 75/129/230 76/130/231
f 77/131/232 78/132/233 79/133/234
f 80/134/235 60/101/236 59/100/237 73/135/238
f 73/136/239 64/105/240 63/104/241 80/137/242
f 55/96/243 54/95/244 66/109/245 65/108/246
f 70/113/247 69/112/248 57/98/249 56/97/250
f 61/102/251 74/128/252 66/109/253 54/95/254
f 79/133/255 62/103/256 57/98/257 69/112/258
f 61/102/259 60/101/260 75/129/261 74/128/262
f 79/133/263 78/132/264 63/104/265 62/103/266
f 81/138/267 82/139/268 83/140/269
f 84/141/270 85/142/271 86/143/272
s 1
f 72/116/273 55/96/274 65/108/275 83/144/276
f 70/113/277 56/97/278 72/117/273 87/145/279
s 2
f 86/146/280 75/129/281 60/101/282 80/134/283
f 80/137/283 63/104/284 78/132/285 88/147/286
s off
f 74/128/287 76/148/288 67/110/289 66/109/290
f 77/149/291 79/133/292 69/112/293 68/111/294
f 89/150/295 90/151/296 91/152/297
s 3
f 92/153/298 68/154/299 70/113/300 87/145/301
s off
f 93/155/302 94/156/303 95/157/304
f 96/158/305 67/159/306 76/160/307 97/161/308
s 4
f 68/162/309 92/163/310 98/164/311 77/165/312
s 5
f 88/147/313 78/132/314 77/131/315 98/166/316
s 1
f 72/117/273 83/140/276 99/167/317 87/145/279
s off
f 96/168/318 100/169/319 82/170/320 81/171/321
f 97/172/322 101/173/323 100/169/324 96/168/325
s 6
f 85/142/326 84/141/327 101/173/328 97/172/329
s 2
f 86/143/280 80/137/283 88/147/286 102/174/330
s 1
f 83/140/276 82/139/331 89/175/332 99/167/317
s 3
f 103/176/333 92/153/298 87/145/301 99/167/334
s off
f 90/151/335 89/150/336 82/170/337 100/169/338
s 4
f 92/163/310 103/177/339 104/178/340 98/164/311
s off
f 90/151/341 100/169/342 101/173/343 94/156/344
s 5
f 102/174/345 88/147/313 98/166/316 104/179/346
s off
f 95/157/347 94/156/348 101/173/349 84/141/350
s 2
f 95/157/351 84/141/352 86/143/280 102/174/330
s off
f 83/144/353 65/108/354 67/180/355 96/181/356 81/182/357
s 3
f 89/175/358 91/183/359 103/176/333 99/167/334
s 6
f 97/184/329 76/130/360 75/129/361 86/146/362 85/185/326
s 4
f 103/177/339 91/152/363 93/155/364 104/178/340
s off
f 91/152/365 90/151/366 94/156/367 93/155/368
s 5
f 93/186/369 95/157/370 102/174/345 104/179/346
