# This file uses centimeters as units for non-parametric coordinates.

g default
v 0.092546 -0.013860 -0.092546
v 0.000000 -0.013860 -0.130879
v -0.092546 -0.013860 -0.092546
v -0.130879 -0.013860 0.000000
v -0.092546 -0.013860 0.092546
v 0.000000 -0.013860 0.130879
v 0.092546 -0.013860 0.092546
v 0.130879 -0.013860 0.000000
v 0.092546 0.013860 -0.092546
v 0.000000 0.013860 -0.130879
v -0.092546 0.013860 -0.092546
v -0.130879 0.013860 0.000000
v -0.092546 0.013860 0.092546
v 0.000000 0.013860 0.130879
v 0.092546 0.013860 0.092546
v 0.130879 0.013860 0.000000
v 0.054277 -0.013860 -0.054277
v 0.000000 -0.013860 -0.076760
v -0.054277 -0.013860 -0.054277
v -0.076760 -0.013860 0.000000
v -0.054277 -0.013860 0.054277
v 0.000000 -0.013860 0.076760
v 0.054277 -0.013860 0.054277
v 0.076760 -0.013860 0.000000
v 0.054277 0.013860 -0.054277
v 0.000000 0.013860 -0.076760
v -0.054277 0.013860 -0.054277
v -0.076760 0.013860 0.000000
v -0.054277 0.013860 0.054277
v 0.000000 0.013860 0.076760
v 0.054277 0.013860 0.054277
v 0.076760 0.013860 0.000000
v -0.023446 0.013860 -0.121167
v -0.013751 0.013860 -0.071064
v -0.013751 -0.013860 -0.071064
v -0.023446 -0.013860 -0.121167
v -0.071113 0.013860 -0.101423
v -0.041707 0.013860 -0.059484
v -0.041707 -0.013860 -0.059484
v -0.071113 -0.013860 -0.101423
v -0.129675 -0.013860 -0.384907
v -0.129675 0.013860 -0.384907
v -0.177342 -0.013860 -0.365163
v -0.177342 0.013860 -0.365163
v -0.172164 0.013860 -0.352309
v -0.172164 -0.013860 -0.352309
v -0.124498 -0.013860 -0.372053
v -0.124498 0.013860 -0.372053
v -0.161613 0.013860 -0.326112
v -0.161613 -0.013860 -0.326112
v -0.113946 -0.013860 -0.345856
v -0.113946 0.013860 -0.345856
v -0.156601 0.013860 -0.313671
v -0.156601 -0.013860 -0.313671
v -0.108935 -0.013860 -0.333415
v -0.108935 0.013860 -0.333415
v -0.147130 0.013860 -0.290156
v -0.147130 -0.013860 -0.290156
v -0.099464 -0.013860 -0.309900
v -0.099464 0.013860 -0.309900
v -0.175359 0.013860 -0.278652
v -0.175359 -0.013860 -0.278652
v -0.184830 0.013860 -0.302166
v -0.184830 -0.013860 -0.302166
v -0.209664 0.013860 -0.307547
v -0.209664 -0.013860 -0.307547
v -0.220216 0.013860 -0.333744
v -0.220216 -0.013860 -0.333744
vt 0.610485 0.045765
vt 0.500000 0.000000
vt 0.389515 0.045765
vt 0.343750 0.156250
vt 0.389515 0.266735
vt 0.500000 0.312500
vt 0.610485 0.266735
vt 0.656250 0.156250
vt 0.375000 0.312500
vt 0.406250 0.312500
vt 0.437500 0.312500
vt 0.468750 0.312500
vt 0.500000 0.312500
vt 0.531250 0.312500
vt 0.562500 0.312500
vt 0.593750 0.312500
vt 0.625000 0.312500
vt 0.375000 0.688440
vt 0.406250 0.688440
vt 0.437500 0.688440
vt 0.468750 0.688440
vt 0.500000 0.688440
vt 0.531250 0.688440
vt 0.562500 0.688440
vt 0.593750 0.688440
vt 0.625000 0.688440
vt 0.610485 0.733265
vt 0.500000 0.687500
vt 0.389515 0.733265
vt 0.343750 0.843750
vt 0.389515 0.954235
vt 0.500000 1.000000
vt 0.610485 0.954235
vt 0.656250 0.843750
vt 0.500000 0.000000
vt 0.610485 0.045765
vt 0.389515 0.045765
vt 0.343750 0.156250
vt 0.389515 0.266735
vt 0.500000 0.312500
vt 0.610485 0.266735
vt 0.656250 0.156250
vt 0.610485 0.954235
vt 0.500000 1.000000
vt 0.389515 0.954235
vt 0.343750 0.843750
vt 0.389515 0.733265
vt 0.500000 0.687500
vt 0.610485 0.733265
vt 0.656250 0.843750
vt 0.472008 0.988406
vt 0.414167 0.688440
vt 0.472008 0.988406
vt 0.472008 0.011595
vt 0.414167 0.312500
vt 0.472008 0.011595
vt 0.415102 0.964834
vt 0.430263 0.688440
vt 0.415102 0.964834
vt 0.415102 0.035166
vt 0.430263 0.312500
vt 0.415102 0.035166
vt 0.414167 0.688440
vt 0.414167 0.312500
vt 0.430263 0.312500
vt 0.430263 0.688440
vt 0.430263 0.688440
vt 0.430263 0.312500
vt 0.414167 0.312500
vt 0.414167 0.688440
vt 0.430263 0.688440
vt 0.430263 0.312500
vt 0.414167 0.312500
vt 0.414167 0.688440
vt 0.430263 0.688440
vt 0.430263 0.312500
vt 0.414167 0.312500
vt 0.414167 0.688440
vt 0.430263 0.688440
vt 0.430263 0.312500
vt 0.414167 0.312500
vt 0.414167 0.688440
vt 0.430263 0.312500
vt 0.430263 0.688440
vt 0.430263 0.688440
vt 0.430263 0.312500
vt 0.430263 0.312500
vt 0.430263 0.688440
vt 0.430263 0.688440
vt 0.430263 0.312500
vn 0.382683 0.000000 -0.923880
vn 0.382683 0.000000 -0.923880
vn 0.382683 0.000000 -0.923880
vn 0.382683 0.000000 -0.923880
vn -0.382684 0.000000 -0.923879
vn -0.382684 0.000000 -0.923879
vn -0.382684 0.000000 -0.923879
vn -0.382684 0.000000 -0.923879
vn -0.923880 0.000000 -0.382683
vn -0.923880 0.000000 -0.382683
vn -0.923880 0.000000 -0.382683
vn -0.923880 0.000000 -0.382683
vn -0.923880 0.000000 0.382683
vn -0.923880 0.000000 0.382683
vn -0.923880 0.000000 0.382683
vn -0.923880 0.000000 0.382683
vn -0.382683 0.000000 0.923880
vn -0.382683 0.000000 0.923880
vn -0.382683 0.000000 0.923880
vn -0.382683 0.000000 0.923880
vn 0.382683 0.000000 0.923880
vn 0.382683 0.000000 0.923880
vn 0.382683 0.000000 0.923880
vn 0.382683 0.000000 0.923880
vn 0.923880 0.000000 0.382683
vn 0.923880 0.000000 0.382683
vn 0.923880 0.000000 0.382683
vn 0.923880 0.000000 0.382683
vn 0.923880 0.000000 -0.382683
vn 0.923880 0.000000 -0.382683
vn 0.923880 0.000000 -0.382683
vn 0.923880 0.000000 -0.382683
vn 0.000000 -1.000000 0.000000
vn 0.000000 -1.000000 0.000000
vn 0.000000 -1.000000 0.000000
vn 0.000000 -1.000000 0.000000
vn 0.000000 -1.000000 0.000000
vn 0.000000 -1.000000 0.000000
vn 0.000000 -1.000000 0.000000
vn 0.000000 -1.000000 0.000000
vn 0.000000 -1.000000 0.000000
vn 0.000000 -1.000000 0.000000
vn 0.000000 -1.000000 -0.000000
vn 0.000000 -1.000000 -0.000000
vn 0.000000 -1.000000 0.000000
vn 0.000000 -1.000000 0.000000
vn 0.000000 -1.000000 0.000000
vn 0.000000 -1.000000 0.000000
vn 0.000000 -1.000000 0.000000
vn 0.000000 -1.000000 0.000000
vn 0.000000 1.000000 0.000000
vn 0.000000 1.000000 0.000000
vn 0.000000 1.000000 0.000000
vn 0.000000 1.000000 0.000000
vn 0.000000 1.000000 0.000000
vn 0.000000 1.000000 0.000000
vn 0.000000 1.000000 0.000000
vn 0.000000 1.000000 0.000000
vn 0.000000 1.000000 0.000000
vn 0.000000 1.000000 0.000000
vn 0.000000 1.000000 -0.000000
vn 0.000000 1.000000 -0.000000
vn 0.000000 1.000000 -0.000000
vn 0.000000 1.000000 -0.000000
vn 0.000000 1.000000 0.000000
vn 0.000000 1.000000 0.000000
vn 0.000000 1.000000 0.000000
vn 0.000000 1.000000 0.000000
vn -0.382684 0.000000 0.923879
vn -0.382684 0.000000 0.923879
vn -0.382684 0.000000 0.923879
vn -0.382684 0.000000 0.923879
vn -0.923879 0.000000 0.382684
vn -0.923879 0.000000 0.382684
vn -0.923879 0.000000 0.382684
vn -0.923879 0.000000 0.382684
vn -0.923879 0.000000 -0.382684
vn -0.923879 0.000000 -0.382684
vn -0.923879 0.000000 -0.382684
vn -0.923879 0.000000 -0.382684
vn -0.382684 0.000000 -0.923880
vn -0.382684 0.000000 -0.923880
vn -0.382684 0.000000 -0.923880
vn -0.382684 0.000000 -0.923880
vn 0.382683 0.000000 -0.923880
vn 0.382683 0.000000 -0.923880
vn 0.382683 0.000000 -0.923880
vn 0.382683 0.000000 -0.923880
vn 0.923879 0.000000 -0.382684
vn 0.923879 0.000000 -0.382684
vn 0.923879 0.000000 -0.382684
vn 0.923879 0.000000 -0.382684
vn 0.923879 0.000000 0.382684
vn 0.923879 0.000000 0.382684
vn 0.923879 0.000000 0.382684
vn 0.923879 0.000000 0.382684
vn 0.382684 0.000000 0.923879
vn 0.382684 0.000000 0.923879
vn 0.382684 0.000000 0.923879
vn 0.382684 0.000000 0.923879
vn 0.000000 1.000000 0.000000
vn 0.000000 1.000000 0.000000
vn 0.382683 0.000001 0.923880
vn 0.382683 0.000001 0.923880
vn 0.000000 -1.000000 0.000000
vn 0.000000 -1.000000 0.000000
vn -0.382684 0.000000 -0.923879
vn -0.382684 0.000000 -0.923879
vn -0.382684 0.000000 -0.923879
vn -0.382684 0.000000 -0.923879
vn 0.382682 0.000001 0.923880
vn 0.382682 0.000001 0.923880
vn -0.382683 -0.000001 -0.923880
vn -0.382683 -0.000001 -0.923880
vn -0.382683 -0.000001 -0.923880
vn -0.382683 -0.000001 -0.923880
vn 0.927586 0.000000 -0.373611
vn 0.927586 0.000000 -0.373611
vn 0.927585 0.000000 -0.373611
vn 0.927585 0.000000 -0.373611
vn 0.000000 -1.000000 0.000000
vn 0.000000 -1.000000 0.000000
vn 0.000000 -1.000000 0.000000
vn 0.000000 -1.000000 0.000000
vn -0.927586 0.000000 0.373611
vn -0.927586 0.000000 0.373611
vn -0.927586 0.000000 0.373611
vn -0.927586 0.000000 0.373611
vn 0.000000 1.000000 -0.000000
vn 0.000000 1.000000 -0.000000
vn 0.000000 1.000000 -0.000000
vn 0.000000 1.000000 -0.000000
vn -0.927583 0.000000 0.373618
vn -0.927583 0.000000 0.373618
vn -0.927583 0.000000 0.373618
vn -0.927583 0.000000 0.373618
vn 0.000000 -1.000000 0.000000
vn 0.000000 -1.000000 0.000000
vn 0.000000 -1.000000 0.000000
vn 0.000000 -1.000000 0.000000
vn 0.927585 0.000000 -0.373611
vn 0.927585 0.000000 -0.373611
vn 0.927586 0.000000 -0.373609
vn 0.927586 0.000000 -0.373609
vn 0.000000 1.000000 -0.000000
vn 0.000000 1.000000 -0.000000
vn 0.000000 1.000000 -0.000000
vn 0.000000 1.000000 -0.000000
vn -0.927587 0.000000 0.373608
vn -0.927587 0.000000 0.373608
vn -0.927587 0.000000 0.373608
vn -0.927587 0.000000 0.373608
vn 0.000000 -1.000000 -0.000000
vn 0.000000 -1.000000 -0.000000
vn 0.927586 0.000000 -0.373610
vn 0.927586 0.000000 -0.373610
vn 0.000000 1.000000 0.000000
vn 0.000000 1.000000 0.000000
vn -0.927583 0.000000 0.373618
vn -0.927583 0.000000 0.373618
vn -0.927583 0.000000 0.373618
vn -0.927583 0.000000 0.373618
vn 0.000000 -1.000000 0.000000
vn 0.000000 -1.000000 0.000000
vn 0.927586 0.000000 -0.373610
vn 0.927586 0.000000 -0.373610
vn 0.000000 1.000000 0.000000
vn 0.000000 1.000000 0.000000
vn -0.927587 0.000000 0.373606
vn -0.927587 0.000000 0.373606
vn -0.927587 0.000000 0.373606
vn -0.927587 0.000000 0.373606
vn 0.377401 0.000000 0.926050
vn 0.377401 0.000000 0.926050
vn 0.377401 0.000000 0.926050
vn 0.377401 0.000000 0.926050
vn 0.000000 1.000000 0.000000
vn 0.000000 1.000000 0.000000
vn 0.000000 1.000000 0.000000
vn 0.000000 1.000000 0.000000
vn -0.377402 0.000000 -0.926050
vn -0.377402 0.000000 -0.926050
vn -0.377402 0.000000 -0.926050
vn -0.377402 0.000000 -0.926050
vn 0.000000 -1.000000 0.000000
vn 0.000000 -1.000000 0.000000
vn 0.000000 -1.000000 0.000000
vn 0.000000 -1.000000 0.000000
vn 0.360400 0.000000 0.932798
vn 0.360400 0.000000 0.932798
vn 0.360400 0.000000 0.932798
vn 0.360400 0.000000 0.932798
vn 0.000000 1.000000 0.000000
vn 0.000000 1.000000 0.000000
vn 0.000000 1.000000 0.000000
vn 0.000000 1.000000 0.000000
vn -0.360400 0.000000 -0.932798
vn -0.360400 0.000000 -0.932798
vn -0.360400 0.000000 -0.932798
vn -0.360400 0.000000 -0.932798
vn 0.000000 -1.000000 0.000000
vn 0.000000 -1.000000 0.000000
vn 0.000000 -1.000000 0.000000
vn 0.000000 -1.000000 0.000000
s off
g key1
f 1/9/1 2/10/2 10/19/3 9/18/4
f 2/10/5 36/55/6 33/52/7 10/19/8
f 3/11/9 4/12/10 12/21/11 11/20/12
f 4/12/13 5/13/14 13/22/15 12/21/16
f 5/13/17 6/14/18 14/23/19 13/22/20
f 6/14/21 7/15/22 15/24/23 14/23/24
f 7/15/25 8/16/26 16/25/27 15/24/28
f 8/16/29 1/17/30 9/26/31 16/25/32
s 1
f 2/2/33 1/1/34 17/36/35 18/35/36
f 36/56/37 2/2/33 18/35/36 35/54/38
f 4/4/39 3/3/40 19/37/41 20/38/42
f 5/5/43 4/4/39 20/38/42 21/39/44
f 6/6/45 5/5/43 21/39/44 22/40/46
f 7/7/47 6/6/45 22/40/46 23/41/48
f 8/8/49 7/7/47 23/41/48 24/42/50
f 1/1/34 8/8/49 24/42/50 17/36/35
s 3
f 9/33/51 10/32/52 26/44/53 25/43/54
f 10/32/52 33/51/55 34/53/56 26/44/53
f 11/31/57 12/30/58 28/46/59 27/45/60
f 12/30/58 13/29/61 29/47/62 28/46/59
f 13/29/61 14/28/63 30/48/64 29/47/62
f 14/28/63 15/27/65 31/49/66 30/48/64
f 15/27/65 16/34/67 32/50/68 31/49/66
f 16/34/67 9/33/51 25/43/54 32/50/68
s off
f 18/35/69 17/36/70 25/43/71 26/44/72
f 17/36/73 24/42/74 32/50/75 25/43/76
f 24/42/77 23/41/78 31/49/79 32/50/80
f 23/41/81 22/40/82 30/48/83 31/49/84
f 22/40/85 21/39/86 29/47/87 30/48/88
f 21/39/89 20/38/90 28/46/91 29/47/92
f 20/38/93 19/37/94 27/45/95 28/46/96
s 5
f 35/54/97 18/35/98 26/44/99 34/53/100
s 3
f 33/51/55 37/57/101 38/59/102 34/53/56
s 5
f 39/60/103 35/54/97 34/53/100 38/59/104
s 1
f 40/62/105 36/56/37 35/54/38 39/60/106
s off
f 42/63/107 41/64/108 43/65/109 44/66/110
s 3
f 37/57/101 11/31/57 27/45/60 38/59/102
s 5
f 19/37/111 39/60/103 38/59/104 27/45/112
s 1
f 3/3/40 40/62/105 39/60/106 19/37/41
s off
f 37/58/113 40/61/114 3/11/115 11/20/116
s 6
f 33/52/117 36/55/118 59/81/119 60/82/120
s 7
f 36/55/121 40/61/122 58/80/123 59/81/124
s off
f 40/61/125 37/58/126 57/79/127 58/80/128
s 8
f 37/58/129 33/52/130 60/82/131 57/79/132
s off
f 46/68/133 45/67/134 44/66/135 43/65/136
s 7
f 47/69/137 46/68/138 43/65/139 41/64/140
s 6
f 48/70/141 47/69/142 41/64/143 42/63/144
s 8
f 45/67/145 48/70/146 42/63/147 44/66/148
s off
f 66/87/149 65/88/150 67/89/151 68/90/152
s 7
f 51/73/153 50/72/154 46/68/138 47/69/137
s 6
f 52/74/155 51/73/156 47/69/142 48/70/141
s 8
f 49/71/157 52/74/158 48/70/146 45/67/145
s off
f 54/76/159 53/75/160 49/71/161 50/72/162
s 7
f 55/77/163 54/76/164 50/72/154 51/73/153
s 6
f 56/78/165 55/77/166 51/73/156 52/74/155
s 8
f 53/75/167 56/78/168 52/74/158 49/71/157
s off
f 62/83/169 61/84/170 63/85/171 64/86/172
s 7
f 59/81/124 58/80/123 54/76/164 55/77/163
s 6
f 60/82/120 59/81/119 55/77/166 56/78/165
s 8
f 57/79/132 60/82/131 56/78/168 53/75/167
s off
f 58/80/173 57/79/174 61/84/175 62/83/176
f 57/79/177 53/75/178 63/85/179 61/84/180
f 53/75/181 54/76/182 64/86/183 63/85/184
f 54/76/185 58/80/186 62/83/187 64/86/188
f 50/72/189 49/71/190 65/88/191 66/87/192
f 49/71/193 45/67/194 67/89/195 65/88/196
f 45/67/197 46/68/198 68/90/199 67/89/200
f 46/68/201 50/72/202 66/87/203 68/90/204
