# This file uses centimeters as units for non-parametric coordinates.

g default
v 0.101936 0.274461 0.014667
v 0.038936 0.320233 0.014667
v -0.038936 0.320233 0.014667
v -0.101936 0.274461 0.014667
v -0.126000 0.200400 0.014667
v -0.101936 0.126339 0.014667
v -0.038936 0.080566 0.014667
v 0.038936 0.080567 0.014667
v 0.101936 0.126339 0.014667
v 0.126000 0.200400 0.014667
v 0.101936 0.274461 0.022667
v 0.038936 0.320233 0.022667
v -0.038936 0.320233 0.022667
v -0.101936 0.274461 0.022667
v -0.126000 0.200400 0.022667
v -0.101936 0.126339 0.022667
v -0.038936 0.080566 0.022667
v 0.038936 0.080566 0.022667
v 0.101936 0.126339 0.022667
v 0.126000 0.200400 0.022667
v 0.000000 0.200400 0.014667
v 0.000000 0.200400 0.022667
v -0.064506 0.080566 0.014667
v 0.064506 0.080567 0.014667
v 0.064506 0.080566 0.022667
v -0.064506 0.080566 0.022667
v -0.162090 0.080566 0.014667
v 0.162090 0.080567 0.014667
v 0.162090 0.080566 0.022667
v -0.162090 0.080566 0.022667
v -0.162090 -0.253673 0.014667
v 0.162090 -0.253673 0.014667
v 0.162090 -0.253673 0.022667
v -0.162090 -0.253673 0.022667
v -0.078683 -0.259508 0.014667
v 0.078683 -0.259508 0.014667
v 0.078683 -0.259508 0.022667
v -0.078683 -0.259508 0.022667
v -0.046008 -0.394966 0.014667
v 0.046008 -0.394966 0.014667
v 0.046008 -0.394966 0.022667
v -0.046008 -0.394966 0.022667
vt 0.626409 0.064409
vt 0.548284 0.007647
vt 0.451716 0.007647
vt 0.373591 0.064409
vt 0.343750 0.156250
vt 0.373591 0.248091
vt 0.451716 0.304853
vt 0.548284 0.304853
vt 0.626409 0.248091
vt 0.656250 0.156250
vt 0.375000 0.312500
vt 0.400000 0.312500
vt 0.425000 0.312500
vt 0.450000 0.312500
vt 0.475000 0.312500
vt 0.500000 0.312500
vt 0.525000 0.312500
vt 0.550000 0.312500
vt 0.575000 0.312500
vt 0.600000 0.312500
vt 0.625000 0.312500
vt 0.375000 0.688440
vt 0.400000 0.688440
vt 0.425000 0.688440
vt 0.450000 0.688440
vt 0.475000 0.688440
vt 0.500000 0.688440
vt 0.525000 0.688440
vt 0.550000 0.688440
vt 0.575000 0.688440
vt 0.600000 0.688440
vt 0.625000 0.688440
vt 0.626409 0.751909
vt 0.548284 0.695147
vt 0.451716 0.695147
vt 0.373591 0.751909
vt 0.343750 0.843750
vt 0.373591 0.935591
vt 0.451716 0.992353
vt 0.548284 0.992353
vt 0.626409 0.935591
vt 0.656250 0.843750
vt 0.500000 0.150000
vt 0.500000 0.837500
vt 0.525000 0.312500
vt 0.550000 0.312500
vt 0.550000 0.688440
vt 0.525000 0.688440
vt 0.525000 0.312500
vt 0.550000 0.312500
vt 0.550000 0.688440
vt 0.525000 0.688440
vt 0.525000 0.312500
vt 0.550000 0.312500
vt 0.550000 0.688440
vt 0.525000 0.688440
vt 0.525000 0.312500
vt 0.550000 0.312500
vt 0.550000 0.688440
vt 0.525000 0.688440
vt 0.525000 0.312500
vt 0.550000 0.312500
vt 0.550000 0.688440
vt 0.525000 0.688440
vn 0.587785 0.809017 0.000000
vn 0.587785 0.809017 0.000000
vn 0.587785 0.809017 0.000000
vn 0.587785 0.809017 0.000000
vn 0.000000 1.000000 0.000000
vn 0.000000 1.000000 0.000000
vn 0.000000 1.000000 0.000000
vn 0.000000 1.000000 0.000000
vn -0.587785 0.809017 0.000000
vn -0.587785 0.809017 0.000000
vn -0.587785 0.809017 0.000000
vn -0.587785 0.809017 0.000000
vn -0.951057 0.309017 0.000001
vn -0.951057 0.309017 0.000001
vn -0.951057 0.309017 0.000001
vn -0.951057 0.309017 0.000001
vn -0.951057 -0.309017 0.000000
vn -0.951057 -0.309017 0.000000
vn -0.951057 -0.309016 0.000000
vn -0.951057 -0.309016 0.000000
vn -0.587785 -0.809017 0.000007
vn -0.587785 -0.809017 0.000007
vn -0.587785 -0.809017 0.000007
vn -0.587785 -0.809017 0.000007
vn 0.000000 -1.000000 0.000000
vn 0.000000 -1.000000 0.000000
vn 0.000000 -1.000000 0.000000
vn 0.000000 -1.000000 0.000000
vn 0.587785 -0.809017 0.000000
vn 0.587785 -0.809017 0.000000
vn 0.587785 -0.809017 0.000000
vn 0.587785 -0.809017 0.000000
vn 0.951057 -0.309016 0.000000
vn 0.951057 -0.309016 0.000000
vn 0.951057 -0.309016 0.000000
vn 0.951057 -0.309016 0.000000
vn 0.951057 0.309017 0.000001
vn 0.951057 0.309017 0.000001
vn 0.951057 0.309017 0.000001
vn 0.951057 0.309017 0.000001
vn -0.000000 -0.000000 -1.000000
vn -0.000000 -0.000000 -1.000000
vn -0.000000 0.000000 -1.000000
vn 0.000000 -0.000000 -1.000000
vn 0.000000 -0.000000 -1.000000
vn 0.000000 0.000000 -1.000000
vn 0.000000 0.000000 -1.000000
vn 0.000000 0.000000 -1.000000
vn -0.000000 0.000000 -1.000000
vn -0.000000 0.000000 -1.000000
vn 0.000000 0.000000 -1.000000
vn 0.000000 0.000000 1.000000
vn 0.000000 0.000000 1.000000
vn 0.000000 0.000000 1.000000
vn 0.000000 0.000000 1.000000
vn 0.000000 0.000000 1.000000
vn 0.000000 0.000000 1.000000
vn 0.000000 -0.000000 1.000000
vn 0.000000 -0.000000 1.000000
vn 0.000000 -0.000000 1.000000
vn 0.000000 -0.000000 1.000000
vn 0.000000 0.000000 1.000000
vn 0.000000 0.000000 -0.000000
vn 0.000000 0.000000 -0.000000
vn 0.000000 0.000000 -0.000000
vn 0.000000 0.000000 -0.000000
vn 0.000000 1.000000 0.000008
vn 0.000000 1.000000 0.000008
vn 0.000000 1.000000 0.000008
vn 0.000000 1.000000 0.000008
vn 0.000000 0.000000 -0.000000
vn 0.000000 0.000000 -0.000000
vn 0.000000 0.000000 -0.000000
vn 0.000000 0.000000 -0.000000
vn 0.000000 1.000000 -0.000007
vn 0.000000 1.000000 -0.000007
vn 0.000000 1.000000 -0.000007
vn 0.000000 1.000000 -0.000007
vn 0.000000 0.000000 0.000000
vn 0.000000 0.000000 0.000000
vn 0.000000 0.000000 0.000000
vn 0.000000 0.000000 0.000000
vn 0.000000 1.000000 0.000007
vn 0.000000 1.000000 0.000007
vn 0.000000 1.000000 0.000007
vn 0.000000 1.000000 0.000007
vn 0.000000 0.000000 -0.000000
vn 0.000000 0.000000 -0.000000
vn 0.000000 0.000000 -0.000000
vn 0.000000 0.000000 -0.000000
vn 0.000000 1.000000 -0.000007
vn 0.000000 1.000000 -0.000007
vn 0.000000 1.000000 -0.000007
vn 0.000000 1.000000 -0.000007
vn 0.000000 -0.000000 -1.000000
vn 0.000000 -0.000000 -1.000000
vn 0.000000 -0.000000 -1.000000
vn 0.000000 -0.000000 -1.000000
vn 1.000000 -0.000000 0.000000
vn 1.000000 -0.000000 0.000000
vn 1.000000 -0.000000 0.000000
vn 1.000000 -0.000000 0.000000
vn 0.000000 0.000000 1.000000
vn 0.000000 0.000000 1.000000
vn 0.000000 0.000000 1.000000
vn 0.000000 0.000000 1.000000
vn -1.000000 0.000000 0.000000
vn -1.000000 0.000000 0.000000
vn -1.000000 0.000000 0.000000
vn -1.000000 0.000000 0.000000
vn 0.000000 0.000000 -1.000000
vn 0.000000 0.000000 -1.000000
vn 0.000000 0.000000 -1.000000
vn 0.000000 0.000000 -1.000000
vn 0.069796 -0.997561 0.000000
vn 0.069796 -0.997561 0.000000
vn 0.069796 -0.997561 0.000000
vn 0.069796 -0.997561 0.000000
vn 0.000000 0.000000 1.000000
vn 0.000000 0.000000 1.000000
vn 0.000000 0.000000 1.000000
vn 0.000000 0.000000 1.000000
vn -0.069796 -0.997561 0.000000
vn -0.069796 -0.997561 0.000000
vn -0.069796 -0.997561 0.000000
vn -0.069796 -0.997561 0.000000
vn 0.000000 0.000000 -1.000000
vn 0.000000 0.000000 -1.000000
vn 0.000000 0.000000 -1.000000
vn 0.000000 0.000000 -1.000000
vn 0.972117 -0.234498 0.000000
vn 0.972117 -0.234498 0.000000
vn 0.972117 -0.234498 0.000000
vn 0.972117 -0.234498 0.000000
vn 0.000000 0.000000 1.000000
vn 0.000000 0.000000 1.000000
vn 0.000000 0.000000 1.000000
vn 0.000000 0.000000 1.000000
vn -0.972117 -0.234498 0.000000
vn -0.972117 -0.234498 0.000000
vn -0.972117 -0.234498 0.000000
vn -0.972117 -0.234498 0.000000
s off
g man washroom_sign
f 1/11/1 2/12/2 12/23/3 11/22/4
f 2/12/5 3/13/6 13/24/7 12/23/8
f 3/13/9 4/14/10 14/25/11 13/24/12
f 4/14/13 5/15/14 15/26/15 14/25/16
f 5/15/17 6/16/18 16/27/19 15/26/20
f 6/16/21 7/17/22 17/28/23 16/27/24
f 39/61/25 40/62/26 41/63/27 42/64/28
f 8/18/29 9/19/30 19/30/31 18/29/32
f 9/19/33 10/20/34 20/31/35 19/30/36
f 10/20/37 1/21/38 11/32/39 20/31/40
s 1
f 2/2/41 1/1/42 21/43/43
f 3/3/44 2/2/41 21/43/43
f 4/4/45 3/3/44 21/43/43
f 5/5/46 4/4/45 21/43/43
f 6/6/47 5/5/46 21/43/43
f 7/7/48 6/6/47 21/43/43
f 8/8/49 7/7/48 21/43/43
f 9/9/50 8/8/49 21/43/43
f 10/10/51 9/9/50 21/43/43
f 1/1/42 10/10/51 21/43/43
s 2
f 11/41/52 12/40/53 22/44/54
f 12/40/53 13/39/55 22/44/54
f 13/39/55 14/38/56 22/44/54
f 14/38/56 15/37/57 22/44/54
f 15/37/57 16/36/58 22/44/54
f 16/36/58 17/35/59 22/44/54
f 17/35/59 18/34/60 22/44/54
f 18/34/60 19/33/61 22/44/54
f 19/33/61 20/42/62 22/44/54
f 20/42/62 11/41/52 22/44/54
s off
f 7/17/63 8/18/64 24/46/65 23/45/66
f 8/18/67 18/29/68 25/47/69 24/46/70
f 18/29/71 17/28/72 26/48/73 25/47/74
f 17/28/75 7/17/76 23/45/77 26/48/78
f 23/45/79 24/46/80 28/50/81 27/49/82
f 24/46/83 25/47/84 29/51/85 28/50/86
f 25/47/87 26/48/88 30/52/89 29/51/90
f 26/48/91 23/45/92 27/49/93 30/52/94
f 27/49/95 28/50/96 32/54/97 31/53/98
f 28/50/99 29/51/100 33/55/101 32/54/102
f 29/51/103 30/52/104 34/56/105 33/55/106
f 30/52/107 27/49/108 31/53/109 34/56/110
f 31/53/111 32/54/112 36/58/113 35/57/114
f 32/54/115 33/55/116 37/59/117 36/58/118
f 33/55/119 34/56/120 38/60/121 37/59/122
f 34/56/123 31/53/124 35/57/125 38/60/126
f 35/57/127 36/58/128 40/62/129 39/61/130
f 36/58/131 37/59/132 41/63/133 40/62/134
f 37/59/135 38/60/136 42/64/137 41/63/138
f 38/60/139 35/57/140 39/61/141 42/64/142
g default
v -0.500000 -0.500000 -0.015000
v 0.500000 -0.500000 -0.015000
v -0.500000 -0.500000 0.015000
v 0.500000 -0.500000 0.015000
v -0.500000 0.500000 0.015000
v 0.500000 0.500000 0.015000
v -0.500000 0.500000 -0.015000
v 0.500000 0.500000 -0.015000
vt 0.375000 0.000000
vt 0.625000 0.000000
vt 0.375000 0.250000
vt 0.625000 0.250000
vt 0.375000 0.500000
vt 0.625000 0.500000
vt 0.375000 0.750000
vt 0.625000 0.750000
vt 0.375000 1.000000
vt 0.625000 1.000000
vt 0.875000 0.000000
vt 0.875000 0.250000
vt 0.125000 0.000000
vt 0.125000 0.250000
vn 0.000000 -1.000000 0.000000
vn 0.000000 -1.000000 0.000000
vn 0.000000 -1.000000 0.000000
vn 0.000000 -1.000000 0.000000
vn 0.000000 0.000000 1.000000
vn 0.000000 0.000000 1.000000
vn 0.000000 0.000000 1.000000
vn 0.000000 0.000000 1.000000
vn 0.000000 1.000000 0.000000
vn 0.000000 1.000000 0.000000
vn 0.000000 1.000000 0.000000
vn 0.000000 1.000000 0.000000
vn 0.000000 0.000000 -1.000000
vn 0.000000 0.000000 -1.000000
vn 0.000000 0.000000 -1.000000
vn 0.000000 0.000000 -1.000000
vn 1.000000 0.000000 0.000000
vn 1.000000 0.000000 0.000000
vn 1.000000 0.000000 0.000000
vn 1.000000 0.000000 0.000000
vn -1.000000 0.000000 0.000000
vn -1.000000 0.000000 0.000000
vn -1.000000 0.000000 0.000000
vn -1.000000 0.000000 0.000000
s off
g washroom_sign back
f 43/65/143 44/66/144 46/68/145 45/67/146
f 45/67/147 46/68/148 48/70/149 47/69/150
f 47/69/151 48/70/152 50/72/153 49/71/154
f 49/71/155 50/72/156 44/74/157 43/73/158
f 44/66/159 50/75/160 48/76/161 46/68/162
f 49/77/163 43/65/164 45/67/165 47/78/166
