# This file uses centimeters as units for non-parametric coordinates.

g default
v -0.012893 -0.458677 0.426176
v 0.012893 -0.458677 0.426176
v -0.012893 0.458677 0.426176
v 0.012893 0.458677 0.426176
v -0.012893 0.458677 -0.426176
v 0.012893 0.458677 -0.426176
v -0.012893 -0.458677 -0.426176
v 0.012893 -0.458677 -0.426176
vt 0.375000 0.000000
vt 0.625000 0.000000
vt 0.625000 0.250000
vt 0.375000 0.250000
vt 0.625000 0.500000
vt 0.375000 0.500000
vt 0.625000 0.750000
vt 0.375000 0.750000
vt 0.625000 1.000000
vt 0.375000 1.000000
vt 0.875000 0.000000
vt 0.875000 0.250000
vt 0.125000 0.000000
vt 0.125000 0.250000
vn 0.000000 0.000000 1.000000
vn 0.000000 0.000000 1.000000
vn 0.000000 0.000000 1.000000
vn 0.000000 0.000000 1.000000
vn 0.000000 1.000000 0.000000
vn 0.000000 1.000000 0.000000
vn 0.000000 1.000000 0.000000
vn 0.000000 1.000000 0.000000
vn 0.000000 0.000000 -1.000000
vn 0.000000 0.000000 -1.000000
vn 0.000000 0.000000 -1.000000
vn 0.000000 0.000000 -1.000000
vn 0.000000 -1.000000 0.000000
vn 0.000000 -1.000000 0.000000
vn 0.000000 -1.000000 0.000000
vn 0.000000 -1.000000 0.000000
vn 1.000000 0.000000 0.000000
vn 1.000000 0.000000 0.000000
vn 1.000000 0.000000 0.000000
vn 1.000000 0.000000 0.000000
vn -1.000000 0.000000 0.000000
vn -1.000000 0.000000 0.000000
vn -1.000000 0.000000 0.000000
vn -1.000000 0.000000 0.000000
s off
g stalldoor:doorstall
f 1/1/1 2/2/2 4/3/3 3/4/4
f 3/4/5 4/3/6 6/5/7 5/6/8
f 5/6/9 6/5/10 8/7/11 7/8/12
f 7/8/13 8/7/14 2/9/15 1/10/16
f 2/2/17 8/11/18 6/12/19 4/3/20
f 7/13/21 1/1/22 3/4/23 5/14/24
g default
v -0.057533 -0.049898 0.376726
v -0.038630 -0.049898 0.376726
v -0.057533 0.049898 0.376726
v -0.038630 0.049898 0.376726
v -0.057533 0.049898 0.357964
v -0.038630 0.049898 0.357964
v -0.057533 -0.049898 0.357964
v -0.038630 -0.049898 0.357964
v -0.038630 -0.038809 0.357964
v -0.057533 -0.038809 0.357964
v -0.057533 -0.038809 0.376726
v -0.038630 -0.038809 0.376726
v -0.038630 0.038809 0.357964
v -0.057533 0.038809 0.357964
v -0.057533 0.038809 0.376726
v -0.038630 0.038809 0.376726
v -0.012893 0.038809 0.376726
v -0.012893 0.038809 0.357964
v -0.012893 0.049898 0.357964
v -0.012893 0.049898 0.376726
v -0.012893 -0.049898 0.357964
v -0.012893 -0.049898 0.376726
v -0.012893 -0.038809 0.357964
v -0.012893 -0.038809 0.376726
vt 0.375000 0.222222
vt 0.625000 0.222222
vt 0.625000 0.250000
vt 0.375000 0.250000
vt 0.625000 0.500000
vt 0.375000 0.500000
vt 0.625000 0.527778
vt 0.375000 0.527778
vt 0.375000 0.750000
vt 0.625000 0.750000
vt 0.625000 1.000000
vt 0.375000 1.000000
vt 0.625000 0.222222
vt 0.875000 0.222222
vt 0.875000 0.250000
vt 0.625000 0.250000
vt 0.125000 0.222222
vt 0.125000 0.250000
vt 0.375000 0.722222
vt 0.625000 0.722222
vt 0.125000 0.000000
vt 0.375000 0.000000
vt 0.375000 0.027778
vt 0.125000 0.027778
vt 0.625000 0.000000
vt 0.625000 0.027778
vt 0.625000 0.000000
vt 0.875000 0.000000
vt 0.875000 0.027778
vt 0.625000 0.027778
vt 0.875000 0.027778
vt 0.875000 0.222222
vt 0.875000 0.250000
vt 0.875000 0.000000
vn 0.000000 0.000000 1.000000
vn 0.000000 0.000000 1.000000
vn 0.000000 0.000000 1.000000
vn 0.000000 0.000000 1.000000
vn 0.000000 1.000000 0.000000
vn 0.000000 1.000000 0.000000
vn 0.000000 1.000000 0.000000
vn 0.000000 1.000000 0.000000
vn 0.000000 0.000000 -1.000000
vn 0.000000 0.000000 -1.000000
vn 0.000000 0.000000 -1.000000
vn 0.000000 0.000000 -1.000000
vn 0.000000 -1.000000 0.000000
vn 0.000000 -1.000000 0.000000
vn 0.000000 -1.000000 0.000000
vn 0.000000 -1.000000 0.000000
vn 1.000000 0.000000 0.000000
vn 1.000000 0.000000 0.000000
vn 1.000000 0.000000 0.000000
vn 1.000000 0.000000 0.000000
vn -1.000000 0.000000 0.000000
vn -1.000000 0.000000 0.000000
vn -1.000000 0.000000 0.000000
vn -1.000000 0.000000 0.000000
vn 0.000000 0.000000 -1.000000
vn 0.000000 0.000000 -1.000000
vn 0.000000 0.000000 -1.000000
vn 0.000000 0.000000 -1.000000
vn -1.000000 0.000000 0.000000
vn -1.000000 0.000000 0.000000
vn -1.000000 0.000000 0.000000
vn -1.000000 0.000000 0.000000
vn 0.000000 0.000000 1.000000
vn 0.000000 0.000000 1.000000
vn 0.000000 0.000000 1.000000
vn 0.000000 0.000000 1.000000
vn 1.000000 0.000000 0.000000
vn 1.000000 0.000000 0.000000
vn 1.000000 0.000000 0.000000
vn 1.000000 0.000000 0.000000
vn 0.000000 0.000000 -1.000000
vn 0.000000 0.000000 -1.000000
vn 0.000000 0.000000 -1.000000
vn 0.000000 0.000000 -1.000000
vn -1.000000 0.000000 0.000000
vn -1.000000 0.000000 0.000000
vn -1.000000 0.000000 0.000000
vn -1.000000 0.000000 0.000000
vn 0.000000 0.000000 1.000000
vn 0.000000 0.000000 1.000000
vn 0.000000 0.000000 1.000000
vn 0.000000 0.000000 1.000000
vn 1.000000 0.000000 0.000000
vn 1.000000 0.000000 0.000000
vn 1.000000 0.000000 0.000000
vn 1.000000 0.000000 0.000000
vn 0.000000 -1.000000 0.000000
vn 0.000000 -1.000000 0.000000
vn 0.000000 -1.000000 0.000000
vn 0.000000 -1.000000 0.000000
vn 0.000000 0.000000 -1.000000
vn 0.000000 0.000000 -1.000000
vn 0.000000 0.000000 -1.000000
vn 0.000000 0.000000 -1.000000
vn 0.000000 1.000000 0.000000
vn 0.000000 1.000000 0.000000
vn 0.000000 1.000000 0.000000
vn 0.000000 1.000000 0.000000
vn 0.000000 0.000000 1.000000
vn 0.000000 0.000000 1.000000
vn 0.000000 0.000000 1.000000
vn 0.000000 0.000000 1.000000
vn 0.000000 -1.000000 0.000000
vn 0.000000 -1.000000 0.000000
vn 0.000000 -1.000000 0.000000
vn 0.000000 -1.000000 0.000000
vn 0.000000 0.000000 -1.000000
vn 0.000000 0.000000 -1.000000
vn 0.000000 0.000000 -1.000000
vn 0.000000 0.000000 -1.000000
vn 0.000000 1.000000 0.000000
vn 0.000000 1.000000 0.000000
vn 0.000000 1.000000 0.000000
vn 0.000000 1.000000 0.000000
vn 0.000000 0.000000 1.000000
vn 0.000000 0.000000 1.000000
vn 0.000000 0.000000 1.000000
vn 0.000000 0.000000 1.000000
s off
g stalldoor:stallhandle
f 23/15/25 24/16/26 12/17/27 11/18/28
f 11/18/29 12/17/30 14/19/31 13/20/32
f 13/20/33 14/19/34 21/21/35 22/22/36
f 15/23/37 16/24/38 10/25/39 9/26/40
f 25/27/41 26/28/42 27/29/43 28/30/44
f 22/31/45 23/15/46 11/18/47 13/32/48
f 18/33/49 17/34/50 16/24/51 15/23/52
f 15/35/53 9/36/54 19/37/55 18/38/56
f 9/36/57 10/39/58 20/40/59 19/37/60
f 30/41/61 29/42/62 31/43/63 32/44/64
f 18/33/65 22/22/66 21/21/67 17/34/68
f 19/37/69 23/15/70 22/31/71 18/38/72
f 20/40/73 24/16/74 23/15/75 19/37/76
f 17/45/77 21/46/78 24/16/79 20/40/80
f 24/16/81 21/46/82 26/28/83 25/27/84
f 21/46/85 14/47/86 27/29/87 26/28/88
f 14/47/89 12/17/90 28/30/91 27/29/92
f 12/17/93 24/16/94 25/27/95 28/30/96
f 10/39/97 16/48/98 29/42/99 30/41/100
f 16/48/101 17/45/102 31/43/103 29/42/104
f 17/45/105 20/40/106 32/44/107 31/43/108
f 20/40/109 10/39/110 30/41/111 32/44/112
g default
v 0.057533 -0.049898 0.357964
v 0.038630 -0.049898 0.357964
v 0.057533 0.049898 0.357964
v 0.038630 0.049898 0.357964
v 0.057533 0.049898 0.376726
v 0.038630 0.049898 0.376726
v 0.057533 -0.049898 0.376726
v 0.038630 -0.049898 0.376726
v 0.038630 -0.038809 0.376726
v 0.057533 -0.038809 0.376726
v 0.057533 -0.038809 0.357964
v 0.038630 -0.038809 0.357964
v 0.038630 0.038809 0.376726
v 0.057533 0.038809 0.376726
v 0.057533 0.038809 0.357964
v 0.038630 0.038809 0.357964
v 0.012893 0.038809 0.357964
v 0.012893 0.038809 0.376726
v 0.012893 0.049898 0.376726
v 0.012893 0.049898 0.357964
v 0.012893 -0.049898 0.376726
v 0.012893 -0.049898 0.357964
v 0.012893 -0.038809 0.376726
v 0.012893 -0.038809 0.357964
vt 0.375000 0.222222
vt 0.625000 0.222222
vt 0.625000 0.250000
vt 0.375000 0.250000
vt 0.625000 0.500000
vt 0.375000 0.500000
vt 0.625000 0.527778
vt 0.375000 0.527778
vt 0.375000 0.750000
vt 0.625000 0.750000
vt 0.625000 1.000000
vt 0.375000 1.000000
vt 0.625000 0.222222
vt 0.875000 0.222222
vt 0.875000 0.250000
vt 0.625000 0.250000
vt 0.125000 0.222222
vt 0.125000 0.250000
vt 0.375000 0.722222
vt 0.625000 0.722222
vt 0.125000 0.000000
vt 0.375000 0.000000
vt 0.375000 0.027778
vt 0.125000 0.027778
vt 0.625000 0.000000
vt 0.625000 0.027778
vt 0.625000 0.000000
vt 0.875000 0.000000
vt 0.875000 0.027778
vt 0.625000 0.027778
vt 0.875000 0.027778
vt 0.875000 0.222222
vt 0.875000 0.250000
vt 0.875000 0.000000
vn 0.000000 0.000000 -1.000000
vn 0.000000 0.000000 -1.000000
vn 0.000000 0.000000 -1.000000
vn 0.000000 0.000000 -1.000000
vn 0.000000 1.000000 0.000000
vn 0.000000 1.000000 0.000000
vn 0.000000 1.000000 0.000000
vn 0.000000 1.000000 0.000000
vn 0.000000 0.000000 1.000000
vn 0.000000 0.000000 1.000000
vn 0.000000 0.000000 1.000000
vn 0.000000 0.000000 1.000000
vn 0.000000 -1.000000 0.000000
vn 0.000000 -1.000000 0.000000
vn 0.000000 -1.000000 0.000000
vn 0.000000 -1.000000 0.000000
vn -1.000000 0.000000 0.000000
vn -1.000000 0.000000 0.000000
vn -1.000000 0.000000 0.000000
vn -1.000000 0.000000 0.000000
vn 1.000000 0.000000 0.000000
vn 1.000000 0.000000 0.000000
vn 1.000000 0.000000 0.000000
vn 1.000000 0.000000 0.000000
vn 0.000000 0.000000 1.000000
vn 0.000000 0.000000 1.000000
vn 0.000000 0.000000 1.000000
vn 0.000000 0.000000 1.000000
vn 1.000000 0.000000 0.000000
vn 1.000000 0.000000 0.000000
vn 1.000000 0.000000 0.000000
vn 1.000000 0.000000 0.000000
vn 0.000000 0.000000 -1.000000
vn 0.000000 0.000000 -1.000000
vn 0.000000 0.000000 -1.000000
vn 0.000000 0.000000 -1.000000
vn -1.000000 0.000000 0.000000
vn -1.000000 0.000000 0.000000
vn -1.000000 0.000000 0.000000
vn -1.000000 0.000000 0.000000
vn 0.000000 0.000000 1.000000
vn 0.000000 0.000000 1.000000
vn 0.000000 0.000000 1.000000
vn 0.000000 0.000000 1.000000
vn 1.000000 0.000000 0.000000
vn 1.000000 0.000000 0.000000
vn 1.000000 0.000000 0.000000
vn 1.000000 0.000000 0.000000
vn 0.000000 0.000000 -1.000000
vn 0.000000 0.000000 -1.000000
vn 0.000000 0.000000 -1.000000
vn 0.000000 0.000000 -1.000000
vn -1.000000 0.000000 0.000000
vn -1.000000 0.000000 0.000000
vn -1.000000 0.000000 0.000000
vn -1.000000 0.000000 0.000000
vn 0.000000 -1.000000 0.000000
vn 0.000000 -1.000000 0.000000
vn 0.000000 -1.000000 0.000000
vn 0.000000 -1.000000 0.000000
vn 0.000000 0.000000 1.000000
vn 0.000000 0.000000 1.000000
vn 0.000000 0.000000 1.000000
vn 0.000000 0.000000 1.000000
vn 0.000000 1.000000 0.000000
vn 0.000000 1.000000 0.000000
vn 0.000000 1.000000 0.000000
vn 0.000000 1.000000 0.000000
vn 0.000000 0.000000 -1.000000
vn 0.000000 0.000000 -1.000000
vn 0.000000 0.000000 -1.000000
vn 0.000000 0.000000 -1.000000
vn 0.000000 -1.000000 0.000000
vn 0.000000 -1.000000 0.000000
vn 0.000000 -1.000000 0.000000
vn 0.000000 -1.000000 0.000000
vn 0.000000 0.000000 1.000000
vn 0.000000 0.000000 1.000000
vn 0.000000 0.000000 1.000000
vn 0.000000 0.000000 1.000000
vn 0.000000 1.000000 0.000000
vn 0.000000 1.000000 0.000000
vn 0.000000 1.000000 0.000000
vn 0.000000 1.000000 0.000000
vn 0.000000 0.000000 -1.000000
vn 0.000000 0.000000 -1.000000
vn 0.000000 0.000000 -1.000000
vn 0.000000 0.000000 -1.000000
s off
g stalldoor:stallhandle_inside
f 47/49/113 48/50/114 36/51/115 35/52/116
f 35/52/117 36/51/118 38/53/119 37/54/120
f 37/54/121 38/53/122 45/55/123 46/56/124
f 39/57/125 40/58/126 34/59/127 33/60/128
f 49/61/129 50/62/130 51/63/131 52/64/132
f 46/65/133 47/49/134 35/52/135 37/66/136
f 42/67/137 41/68/138 40/58/139 39/57/140
f 39/69/141 33/70/142 43/71/143 42/72/144
f 33/70/145 34/73/146 44/74/147 43/71/148
f 54/75/149 53/76/150 55/77/151 56/78/152
f 42/67/153 46/56/154 45/55/155 41/68/156
f 43/71/157 47/49/158 46/65/159 42/72/160
f 44/74/161 48/50/162 47/49/163 43/71/164
f 41/79/165 45/80/166 48/50/167 44/74/168
f 48/50/169 45/80/170 50/62/171 49/61/172
f 45/80/173 38/81/174 51/63/175 50/62/176
f 38/81/177 36/51/178 52/64/179 51/63/180
f 36/51/181 48/50/182 49/61/183 52/64/184
f 34/73/185 40/82/186 53/76/187 54/75/188
f 40/82/189 41/79/190 55/77/191 53/76/192
f 41/79/193 44/74/194 56/78/195 55/77/196
f 44/74/197 34/73/198 54/75/199 56/78/200
