# This file uses centimeters as units for non-parametric coordinates.

g default
v -0.012893 -0.458677 1.000000
v 0.012893 -0.458677 1.000000
v -0.012893 0.458677 1.000000
v 0.012893 0.458677 1.000000
v -0.012893 0.458677 0.147648
v 0.012893 0.458677 0.147648
v -0.012893 -0.458677 0.147648
v 0.012893 -0.458677 0.147648
vt 0.375000 0.000000
vt 0.625000 0.000000
vt 0.375000 0.250000
vt 0.625000 0.250000
vt 0.375000 0.500000
vt 0.625000 0.500000
vt 0.375000 0.750000
vt 0.625000 0.750000
vt 0.375000 1.000000
vt 0.625000 1.000000
vt 0.875000 0.000000
vt 0.875000 0.250000
vt 0.125000 0.000000
vt 0.125000 0.250000
vn 0.000000 0.000000 1.000000
vn 0.000000 0.000000 1.000000
vn 0.000000 0.000000 1.000000
vn 0.000000 0.000000 1.000000
vn 0.000000 1.000000 0.000000
vn 0.000000 1.000000 0.000000
vn 0.000000 1.000000 0.000000
vn 0.000000 1.000000 0.000000
vn 0.000000 0.000000 -1.000000
vn 0.000000 0.000000 -1.000000
vn 0.000000 0.000000 -1.000000
vn 0.000000 0.000000 -1.000000
vn 0.000000 -1.000000 0.000000
vn 0.000000 -1.000000 0.000000
vn 0.000000 -1.000000 0.000000
vn 0.000000 -1.000000 0.000000
vn 1.000000 0.000000 0.000000
vn 1.000000 0.000000 0.000000
vn 1.000000 0.000000 0.000000
vn 1.000000 0.000000 0.000000
vn -1.000000 0.000000 0.000000
vn -1.000000 0.000000 0.000000
vn -1.000000 0.000000 0.000000
vn -1.000000 0.000000 0.000000
s off
g door stall
f 1/1/1 2/2/2 4/4/3 3/3/4
f 3/3/5 4/4/6 6/6/7 5/5/8
f 5/5/9 6/6/10 8/8/11 7/7/12
f 7/7/13 8/8/14 2/10/15 1/9/16
f 2/2/17 8/11/18 6/12/19 4/4/20
f 7/13/21 1/1/22 3/3/23 5/14/24
g default
v -0.057533 -0.049898 0.950550
v -0.038630 -0.049898 0.950550
v -0.057533 0.049898 0.950550
v -0.038630 0.049898 0.950550
v -0.057533 0.049898 0.931788
v -0.038630 0.049898 0.931788
v -0.057533 -0.049898 0.931788
v -0.038630 -0.049898 0.931788
v -0.038630 -0.038809 0.931788
v -0.057533 -0.038809 0.931788
v -0.057533 -0.038809 0.950550
v -0.038630 -0.038809 0.950550
v -0.038630 0.038809 0.931788
v -0.057533 0.038809 0.931788
v -0.057533 0.038809 0.950550
v -0.038630 0.038809 0.950550
v -0.012893 0.038809 0.950550
v -0.012893 0.038809 0.931788
v -0.012893 0.049898 0.931788
v -0.012893 0.049898 0.950550
v -0.012893 -0.049898 0.931788
v -0.012893 -0.049898 0.950550
v -0.012893 -0.038809 0.931788
v -0.012893 -0.038809 0.950550
vt 0.375000 0.000000
vt 0.625000 0.000000
vt 0.375000 0.250000
vt 0.625000 0.250000
vt 0.375000 0.500000
vt 0.625000 0.500000
vt 0.375000 0.750000
vt 0.625000 0.750000
vt 0.375000 1.000000
vt 0.625000 1.000000
vt 0.875000 0.000000
vt 0.875000 0.250000
vt 0.125000 0.000000
vt 0.125000 0.250000
vt 0.625000 0.722222
vt 0.875000 0.027778
vt 0.125000 0.027778
vt 0.375000 0.722222
vt 0.375000 0.027778
vt 0.625000 0.027778
vt 0.625000 0.527778
vt 0.875000 0.222222
vt 0.125000 0.222222
vt 0.375000 0.527778
vt 0.375000 0.222222
vt 0.625000 0.222222
vt 0.625000 0.222222
vt 0.875000 0.222222
vt 0.875000 0.250000
vt 0.625000 0.250000
vt 0.625000 0.000000
vt 0.875000 0.000000
vt 0.875000 0.027778
vt 0.625000 0.027778
vn 0.000000 0.000000 1.000000
vn 0.000000 0.000000 1.000000
vn 0.000000 0.000000 1.000000
vn 0.000000 0.000000 1.000000
vn 0.000000 1.000000 0.000000
vn 0.000000 1.000000 0.000000
vn 0.000000 1.000000 0.000000
vn 0.000000 1.000000 0.000000
vn 0.000000 0.000000 -1.000000
vn 0.000000 0.000000 -1.000000
vn 0.000000 0.000000 -1.000000
vn 0.000000 0.000000 -1.000000
vn 0.000000 -1.000000 0.000000
vn 0.000000 -1.000000 0.000000
vn 0.000000 -1.000000 0.000000
vn 0.000000 -1.000000 0.000000
vn 1.000000 0.000000 0.000000
vn 1.000000 0.000000 0.000000
vn 1.000000 0.000000 0.000000
vn 1.000000 0.000000 0.000000
vn -1.000000 0.000000 0.000000
vn -1.000000 0.000000 0.000000
vn -1.000000 0.000000 0.000000
vn -1.000000 0.000000 0.000000
vn 0.000000 0.000000 -1.000000
vn 0.000000 0.000000 -1.000000
vn 0.000000 0.000000 -1.000000
vn 0.000000 0.000000 -1.000000
vn -1.000000 0.000000 0.000000
vn -1.000000 0.000000 0.000000
vn -1.000000 0.000000 0.000000
vn -1.000000 0.000000 0.000000
vn 0.000000 0.000000 1.000000
vn 0.000000 0.000000 1.000000
vn 0.000000 0.000000 1.000000
vn 0.000000 0.000000 1.000000
vn 1.000000 0.000000 0.000000
vn 1.000000 0.000000 0.000000
vn 1.000000 0.000000 0.000000
vn 1.000000 0.000000 0.000000
vn 1.000000 0.000000 0.000000
vn 1.000000 0.000000 0.000000
vn 1.000000 0.000000 0.000000
vn 1.000000 0.000000 0.000000
vn 0.000000 -1.000000 0.000000
vn 0.000000 -1.000000 0.000000
vn 0.000000 -1.000000 0.000000
vn 0.000000 -1.000000 0.000000
vn 0.000000 0.000000 -1.000000
vn 0.000000 0.000000 -1.000000
vn 0.000000 0.000000 -1.000000
vn 0.000000 0.000000 -1.000000
vn 0.000000 1.000000 0.000000
vn 0.000000 1.000000 0.000000
vn 0.000000 1.000000 0.000000
vn 0.000000 1.000000 0.000000
vn 0.000000 0.000000 1.000000
vn 0.000000 0.000000 1.000000
vn 0.000000 0.000000 1.000000
vn 0.000000 0.000000 1.000000
vn 0.000000 -1.000000 0.000000
vn 0.000000 -1.000000 0.000000
vn 0.000000 -1.000000 0.000000
vn 0.000000 -1.000000 0.000000
vn 0.000000 0.000000 -1.000000
vn 0.000000 0.000000 -1.000000
vn 0.000000 0.000000 -1.000000
vn 0.000000 0.000000 -1.000000
vn 0.000000 1.000000 0.000000
vn 0.000000 1.000000 0.000000
vn 0.000000 1.000000 0.000000
vn 0.000000 1.000000 0.000000
vn 0.000000 0.000000 1.000000
vn 0.000000 0.000000 1.000000
vn 0.000000 0.000000 1.000000
vn 0.000000 0.000000 1.000000
s 1
g stall handle
f 23/39/25 24/40/26 12/18/27 11/17/28
s off
f 11/17/29 12/18/30 14/20/31 13/19/32
s 2
f 13/19/33 14/20/34 21/35/35 22/38/36
s off
f 15/21/37 16/22/38 10/24/39 9/23/40
f 25/41/41 26/42/42 27/43/43 28/44/44
s 3
f 22/37/45 23/39/46 11/17/47 13/28/48
s 2
f 18/32/49 17/29/50 16/22/51 15/21/52
s 3
f 15/27/53 9/15/54 19/33/55 18/31/56
s 1
f 9/15/57 10/16/58 20/34/59 19/33/60
s off
f 30/45/61 29/46/62 31/47/63 32/48/64
s 2
f 18/32/49 22/38/36 21/35/35 17/29/50
s 3
f 19/33/55 23/39/46 22/37/45 18/31/56
s 1
f 20/34/59 24/40/26 23/39/25 19/33/60
s off
f 17/30/65 21/36/66 24/40/67 20/34/68
f 24/40/69 21/36/70 26/42/71 25/41/72
f 21/36/73 14/26/74 27/43/75 26/42/76
f 14/26/77 12/18/78 28/44/79 27/43/80
f 12/18/81 24/40/82 25/41/83 28/44/84
f 10/16/85 16/25/86 29/46/87 30/45/88
f 16/25/89 17/30/90 31/47/91 29/46/92
f 17/30/93 20/34/94 32/48/95 31/47/96
f 20/34/97 10/16/98 30/45/99 32/48/100
g default
v 0.057533 -0.049898 0.931788
v 0.038630 -0.049898 0.931788
v 0.057533 0.049898 0.931788
v 0.038630 0.049898 0.931788
v 0.057533 0.049898 0.950550
v 0.038630 0.049898 0.950550
v 0.057533 -0.049898 0.950550
v 0.038630 -0.049898 0.950550
v 0.038630 -0.038809 0.950550
v 0.057533 -0.038809 0.950550
v 0.057533 -0.038809 0.931788
v 0.038630 -0.038809 0.931788
v 0.038630 0.038809 0.950550
v 0.057533 0.038809 0.950550
v 0.057533 0.038809 0.931788
v 0.038630 0.038809 0.931788
v 0.012893 0.038809 0.931788
v 0.012893 0.038809 0.950550
v 0.012893 0.049898 0.950550
v 0.012893 0.049898 0.931788
v 0.012893 -0.049898 0.950550
v 0.012893 -0.049898 0.931788
v 0.012893 -0.038809 0.950550
v 0.012893 -0.038809 0.931788
vt 0.375000 0.000000
vt 0.625000 0.000000
vt 0.375000 0.250000
vt 0.625000 0.250000
vt 0.375000 0.500000
vt 0.625000 0.500000
vt 0.375000 0.750000
vt 0.625000 0.750000
vt 0.375000 1.000000
vt 0.625000 1.000000
vt 0.875000 0.000000
vt 0.875000 0.250000
vt 0.125000 0.000000
vt 0.125000 0.250000
vt 0.625000 0.722222
vt 0.875000 0.027778
vt 0.125000 0.027778
vt 0.375000 0.722222
vt 0.375000 0.027778
vt 0.625000 0.027778
vt 0.625000 0.527778
vt 0.875000 0.222222
vt 0.125000 0.222222
vt 0.375000 0.527778
vt 0.375000 0.222222
vt 0.625000 0.222222
vt 0.625000 0.222222
vt 0.875000 0.222222
vt 0.875000 0.250000
vt 0.625000 0.250000
vt 0.625000 0.000000
vt 0.875000 0.000000
vt 0.875000 0.027778
vt 0.625000 0.027778
vn 0.000000 0.000000 -1.000000
vn 0.000000 0.000000 -1.000000
vn 0.000000 0.000000 -1.000000
vn 0.000000 0.000000 -1.000000
vn 0.000000 1.000000 0.000000
vn 0.000000 1.000000 0.000000
vn 0.000000 1.000000 0.000000
vn 0.000000 1.000000 0.000000
vn 0.000000 0.000000 1.000000
vn 0.000000 0.000000 1.000000
vn 0.000000 0.000000 1.000000
vn 0.000000 0.000000 1.000000
vn 0.000000 -1.000000 0.000000
vn 0.000000 -1.000000 0.000000
vn 0.000000 -1.000000 0.000000
vn 0.000000 -1.000000 0.000000
vn -1.000000 0.000000 0.000000
vn -1.000000 0.000000 0.000000
vn -1.000000 0.000000 0.000000
vn -1.000000 0.000000 0.000000
vn 1.000000 0.000000 0.000000
vn 1.000000 0.000000 0.000000
vn 1.000000 0.000000 0.000000
vn 1.000000 0.000000 0.000000
vn 0.000000 0.000000 1.000000
vn 0.000000 0.000000 1.000000
vn 0.000000 0.000000 1.000000
vn 0.000000 0.000000 1.000000
vn 1.000000 0.000000 0.000000
vn 1.000000 0.000000 0.000000
vn 1.000000 0.000000 0.000000
vn 1.000000 0.000000 0.000000
vn 0.000000 0.000000 -1.000000
vn 0.000000 0.000000 -1.000000
vn 0.000000 0.000000 -1.000000
vn 0.000000 0.000000 -1.000000
vn -1.000000 0.000000 0.000000
vn -1.000000 0.000000 0.000000
vn -1.000000 0.000000 0.000000
vn -1.000000 0.000000 0.000000
vn -1.000000 0.000000 0.000000
vn -1.000000 0.000000 0.000000
vn -1.000000 0.000000 0.000000
vn -1.000000 0.000000 0.000000
vn 0.000000 -1.000000 0.000000
vn 0.000000 -1.000000 0.000000
vn 0.000000 -1.000000 0.000000
vn 0.000000 -1.000000 0.000000
vn 0.000000 0.000000 1.000000
vn 0.000000 0.000000 1.000000
vn 0.000000 0.000000 1.000000
vn 0.000000 0.000000 1.000000
vn 0.000000 1.000000 0.000000
vn 0.000000 1.000000 0.000000
vn 0.000000 1.000000 0.000000
vn 0.000000 1.000000 0.000000
vn 0.000000 0.000000 -1.000000
vn 0.000000 0.000000 -1.000000
vn 0.000000 0.000000 -1.000000
vn 0.000000 0.000000 -1.000000
vn 0.000000 -1.000000 0.000000
vn 0.000000 -1.000000 0.000000
vn 0.000000 -1.000000 0.000000
vn 0.000000 -1.000000 0.000000
vn 0.000000 0.000000 1.000000
vn 0.000000 0.000000 1.000000
vn 0.000000 0.000000 1.000000
vn 0.000000 0.000000 1.000000
vn 0.000000 1.000000 0.000000
vn 0.000000 1.000000 0.000000
vn 0.000000 1.000000 0.000000
vn 0.000000 1.000000 0.000000
vn 0.000000 0.000000 -1.000000
vn 0.000000 0.000000 -1.000000
vn 0.000000 0.000000 -1.000000
vn 0.000000 0.000000 -1.000000
s 1
g stall handle_inside
f 47/73/101 48/74/102 36/52/103 35/51/104
s off
f 35/51/105 36/52/106 38/54/107 37/53/108
s 2
f 37/53/109 38/54/110 45/69/111 46/72/112
s off
f 39/55/113 40/56/114 34/58/115 33/57/116
f 49/75/117 50/76/118 51/77/119 52/78/120
s 3
f 46/71/121 47/73/122 35/51/123 37/62/124
s 2
f 42/66/125 41/63/126 40/56/127 39/55/128
s 3
f 39/61/129 33/49/130 43/67/131 42/65/132
s 1
f 33/49/133 34/50/134 44/68/135 43/67/136
s off
f 54/79/137 53/80/138 55/81/139 56/82/140
s 2
f 42/66/125 46/72/112 45/69/111 41/63/126
s 3
f 43/67/131 47/73/122 46/71/121 42/65/132
s 1
f 44/68/135 48/74/102 47/73/101 43/67/136
s off
f 41/64/141 45/70/142 48/74/143 44/68/144
f 48/74/145 45/70/146 50/76/147 49/75/148
f 45/70/149 38/60/150 51/77/151 50/76/152
f 38/60/153 36/52/154 52/78/155 51/77/156
f 36/52/157 48/74/158 49/75/159 52/78/160
f 34/50/161 40/59/162 53/80/163 54/79/164
f 40/59/165 41/64/166 55/81/167 53/80/168
f 41/64/169 44/68/170 56/82/171 55/81/172
f 44/68/173 34/50/174 54/79/175 56/82/176
