# This file uses centimeters as units for non-parametric coordinates.

g default
v 0.611657 -1.000000 -0.444395
v 0.233632 -1.000000 -0.719046
v -0.233632 -1.000000 -0.719046
v -0.611657 -1.000000 -0.444395
v -0.756050 -1.000000 0.000000
v -0.611657 -1.000000 0.444395
v -0.233632 -1.000000 0.719046
v 0.233632 -1.000000 0.719046
v 0.611657 -1.000000 0.444395
v 0.756050 -1.000000 -0.000000
v 0.809017 1.000000 -0.587785
v 0.309017 1.000000 -0.951057
v -0.309017 1.000000 -0.951057
v -0.809017 1.000000 -0.587785
v -1.000000 1.000000 0.000000
v -0.809017 1.000000 0.587785
v -0.309017 1.000000 0.951057
v 0.309017 1.000000 0.951057
v 0.809017 1.000000 0.587785
v 1.000000 1.000000 0.000000
v -0.000000 -1.000000 -0.000000
v 0.252645 -0.878015 0.777560
v -0.252645 -0.878015 0.777560
v -0.661432 -0.878015 0.480559
v -0.817575 -0.878015 0.000000
v -0.661432 -0.878015 -0.480558
v -0.252645 -0.878015 -0.777560
v 0.252644 -0.878015 -0.777560
v 0.661432 -0.878015 -0.480559
v 0.817575 -0.878015 -0.000000
v 0.661432 -0.878015 0.480558
v 0.723952 1.000000 -0.525982
v 0.276525 1.000000 -0.851057
v -0.276525 1.000000 -0.851057
v -0.723952 1.000000 -0.525982
v -0.894854 1.000000 0.000000
v -0.723952 1.000000 0.525982
v -0.276525 1.000000 0.851057
v 0.276525 1.000000 0.851057
v 0.723952 1.000000 0.525982
v 0.894854 1.000000 -0.000000
v 0.638887 -0.440649 -0.464179
v 0.244033 -0.440649 -0.751057
v 0.000000 -0.440649 -0.000000
v -0.244033 -0.440649 -0.751057
v -0.638887 -0.440649 -0.464178
v -0.789708 -0.440649 0.000000
v -0.638887 -0.440649 0.464179
v -0.244033 -0.440649 0.751056
v 0.244033 -0.440649 0.751056
v 0.638887 -0.440649 0.464178
v 0.789708 -0.440649 -0.000000
vt 0.626409 0.064409
vt 0.548284 0.007647
vt 0.451716 0.007647
vt 0.373591 0.064409
vt 0.343750 0.156250
vt 0.373591 0.248091
vt 0.451716 0.304853
vt 0.548284 0.304853
vt 0.626409 0.248091
vt 0.656250 0.156250
vt 0.375000 0.312500
vt 0.400000 0.312500
vt 0.425000 0.312500
vt 0.450000 0.312500
vt 0.475000 0.312500
vt 0.500000 0.312500
vt 0.525000 0.312500
vt 0.550000 0.312500
vt 0.575000 0.312500
vt 0.600000 0.312500
vt 0.625000 0.312500
vt 0.375000 0.688440
vt 0.400000 0.688440
vt 0.425000 0.688440
vt 0.450000 0.688440
vt 0.475000 0.688440
vt 0.500000 0.688440
vt 0.525000 0.688440
vt 0.550000 0.688440
vt 0.575000 0.688440
vt 0.600000 0.688440
vt 0.625000 0.688440
vt 0.626409 0.751909
vt 0.548284 0.695147
vt 0.451716 0.695147
vt 0.373591 0.751909
vt 0.343750 0.843750
vt 0.373591 0.935591
vt 0.451716 0.992353
vt 0.548284 0.992353
vt 0.626409 0.935591
vt 0.656250 0.843750
vt 0.500000 0.150000
vt 0.500000 0.837500
vt 0.550000 0.335430
vt 0.525000 0.335430
vt 0.500000 0.335430
vt 0.475000 0.335430
vt 0.450000 0.335430
vt 0.425000 0.335430
vt 0.400000 0.335430
vt 0.625000 0.335430
vt 0.375000 0.335430
vt 0.600000 0.335430
vt 0.575000 0.335430
vt 0.626409 0.935591
vt 0.548284 0.992353
vt 0.451716 0.992353
vt 0.373591 0.935591
vt 0.343750 0.843750
vt 0.373591 0.751909
vt 0.451716 0.695147
vt 0.548284 0.695147
vt 0.626409 0.751909
vt 0.656250 0.843750
vt 0.626409 0.935591
vt 0.548284 0.992353
vt 0.451716 0.992353
vt 0.373591 0.935591
vt 0.343750 0.843750
vt 0.373591 0.751909
vt 0.451716 0.695147
vt 0.548284 0.695147
vt 0.626409 0.751909
vt 0.656250 0.843750
vn 0.529968 -0.432497 -0.729438
vn 0.529968 -0.432497 -0.729438
vn 0.584202 -0.110248 -0.804085
vn 0.584202 -0.110248 -0.804085
vn -0.000000 -0.432497 -0.901635
vn -0.000000 -0.432497 -0.901636
vn -0.000000 -0.110248 -0.993904
vn -0.000000 -0.110248 -0.993904
vn -0.529968 -0.432497 -0.729438
vn -0.529968 -0.432497 -0.729438
vn -0.584202 -0.110248 -0.804085
vn -0.584202 -0.110248 -0.804085
vn -0.857506 -0.432497 -0.278621
vn -0.857506 -0.432497 -0.278621
vn -0.945259 -0.110248 -0.307133
vn -0.945259 -0.110248 -0.307133
vn -0.857506 -0.432496 0.278621
vn -0.857506 -0.432496 0.278621
vn -0.945259 -0.110248 0.307133
vn -0.945259 -0.110248 0.307133
vn -0.529968 -0.432496 0.729439
vn -0.529968 -0.432497 0.729439
vn -0.584202 -0.110248 0.804085
vn -0.584202 -0.110248 0.804085
vn 0.000000 -0.432497 0.901635
vn 0.000000 -0.432497 0.901635
vn 0.000000 -0.110248 0.993904
vn 0.000000 -0.110248 0.993904
vn 0.529968 -0.432497 0.729438
vn 0.529968 -0.432497 0.729438
vn 0.584202 -0.110248 0.804085
vn 0.584202 -0.110248 0.804085
vn 0.857506 -0.432497 0.278621
vn 0.857506 -0.432497 0.278621
vn 0.945259 -0.110248 0.307133
vn 0.945259 -0.110248 0.307133
vn 0.857506 -0.432497 -0.278621
vn 0.857507 -0.432497 -0.278621
vn 0.945259 -0.110248 -0.307133
vn 0.945259 -0.110248 -0.307133
vn 0.000000 -1.000000 0.000000
vn 0.000000 -1.000000 0.000000
vn 0.000000 -1.000000 0.000000
vn 0.000000 -1.000000 0.000000
vn 0.000000 -1.000000 0.000000
vn 0.000000 -1.000000 0.000000
vn 0.000000 -1.000000 0.000000
vn 0.000000 -1.000000 0.000000
vn 0.000000 -1.000000 0.000000
vn 0.000000 -1.000000 0.000000
vn 0.000000 -1.000000 0.000000
vn 0.000000 1.000000 0.000000
vn 0.000000 1.000000 0.000000
vn -0.000000 1.000000 0.000000
vn -0.000000 1.000000 0.000000
vn -0.000000 1.000000 0.000000
vn -0.000000 1.000000 0.000000
vn -0.000000 1.000000 -0.000000
vn -0.000000 1.000000 0.000000
vn 0.000000 1.000000 -0.000000
vn 0.000000 1.000000 -0.000000
vn 0.000000 1.000000 0.000000
vn 0.000000 -0.091991 0.995760
vn 0.000000 -0.091991 0.995760
vn -0.585293 -0.091991 0.805587
vn -0.585293 -0.091991 0.805587
vn -0.947024 -0.091991 0.307707
vn -0.947024 -0.091991 0.307707
vn -0.947024 -0.091991 -0.307707
vn -0.947024 -0.091991 -0.307707
vn -0.585293 -0.091991 -0.805586
vn -0.585293 -0.091991 -0.805586
vn -0.000000 -0.091991 -0.995760
vn -0.000000 -0.091991 -0.995760
vn 0.585293 -0.091991 -0.805587
vn 0.585293 -0.091991 -0.805587
vn 0.947024 -0.091991 -0.307707
vn 0.947024 -0.091991 -0.307707
vn 0.947024 -0.091991 0.307707
vn 0.947024 -0.091991 0.307707
vn 0.585293 -0.091991 0.805587
vn 0.585293 -0.091991 0.805587
vn 0.000000 1.000000 -0.000000
vn 0.000000 1.000000 0.000000
vn 0.000000 1.000000 0.000000
vn 0.000000 1.000000 -0.000000
vn 0.000000 1.000000 0.000000
vn 0.000000 1.000000 0.000000
vn 0.000000 1.000000 -0.000000
vn 0.000000 1.000000 -0.000000
vn 0.000000 1.000000 0.000000
vn 0.000000 1.000000 0.000000
vn 0.000000 1.000000 0.000000
vn 0.000000 1.000000 0.000000
vn 0.000000 1.000000 -0.000000
vn 0.000000 1.000000 -0.000000
vn 0.000000 1.000000 -0.000000
vn 0.000000 1.000000 -0.000000
vn 0.000000 1.000000 0.000000
vn 0.000000 1.000000 0.000000
vn 0.000000 1.000000 0.000000
vn 0.000000 1.000000 0.000000
vn -0.586374 0.069247 0.807075
vn -0.586374 0.069247 0.807075
vn -0.586374 0.069247 0.807075
vn -0.586374 0.069247 0.807075
vn 0.000000 0.069247 0.997600
vn 0.000000 0.069247 0.997600
vn 0.000000 0.069247 0.997600
vn 0.000000 0.069247 0.997600
vn 0.586374 0.069247 0.807075
vn 0.586374 0.069247 0.807075
vn 0.586374 0.069247 0.807075
vn 0.586374 0.069247 0.807075
vn 0.948774 0.069247 0.308275
vn 0.948774 0.069247 0.308275
vn 0.948774 0.069247 0.308275
vn 0.948774 0.069247 0.308275
vn 0.948774 0.069247 -0.308275
vn 0.948774 0.069247 -0.308275
vn 0.948774 0.069247 -0.308275
vn 0.948774 0.069247 -0.308275
vn 0.586374 0.069247 -0.807075
vn 0.586374 0.069247 -0.807075
vn 0.586374 0.069247 -0.807075
vn 0.586374 0.069247 -0.807075
vn -0.000000 0.069247 -0.997600
vn -0.000000 0.069247 -0.997600
vn -0.000000 0.069247 -0.997600
vn -0.000000 0.069247 -0.997600
vn -0.586374 0.069247 -0.807075
vn -0.586374 0.069247 -0.807075
vn -0.586374 0.069247 -0.807075
vn -0.586374 0.069247 -0.807075
vn -0.948774 0.069247 -0.308275
vn -0.948774 0.069247 -0.308275
vn -0.948774 0.069247 -0.308275
vn -0.948774 0.069247 -0.308275
vn -0.948774 0.069247 0.308275
vn -0.948774 0.069247 0.308275
vn -0.948774 0.069247 0.308275
vn -0.948774 0.069247 0.308275
s 1
g garbagecan
f 1/11/1 2/12/2 28/51/3 29/53/4
s 2
f 2/12/5 3/13/6 27/50/7 28/51/8
s 3
f 3/13/9 4/14/10 26/49/11 27/50/12
s 4
f 4/14/13 5/15/14 25/48/15 26/49/16
s 5
f 5/15/17 6/16/18 24/47/19 25/48/20
s 6
f 6/16/21 7/17/22 23/46/23 24/47/24
s 7
f 7/17/25 8/18/26 22/45/27 23/46/28
s 8
f 8/18/29 9/19/30 31/55/31 22/45/32
s 9
f 9/19/33 10/20/34 30/54/35 31/55/36
s 10
f 10/20/37 1/21/38 29/52/39 30/54/40
s 11
f 2/2/41 1/1/42 21/43/43
f 3/3/44 2/2/41 21/43/43
f 4/4/45 3/3/44 21/43/43
f 5/5/46 4/4/45 21/43/43
f 6/6/47 5/5/46 21/43/43
f 7/7/48 6/6/47 21/43/43
f 8/8/49 7/7/48 21/43/43
f 9/9/50 8/8/49 21/43/43
f 10/10/51 9/9/50 21/43/43
f 1/1/42 10/10/51 21/43/43
s 12
f 42/66/52 43/67/53 44/44/54
f 43/67/53 45/68/55 44/44/54
f 45/68/55 46/69/56 44/44/54
f 46/69/56 47/70/57 44/44/54
f 47/70/57 48/71/58 44/44/54
f 48/71/58 49/72/59 44/44/54
f 49/72/59 50/73/60 44/44/54
f 50/73/60 51/74/61 44/44/54
f 51/74/61 52/75/62 44/44/54
f 52/75/62 42/66/52 44/44/54
s 7
f 23/46/28 22/45/27 18/29/63 17/28/64
s 6
f 24/47/24 23/46/23 17/28/65 16/27/66
s 5
f 25/48/20 24/47/19 16/27/67 15/26/68
s 4
f 26/49/16 25/48/15 15/26/69 14/25/70
s 3
f 27/50/12 26/49/11 14/25/71 13/24/72
s 2
f 28/51/8 27/50/7 13/24/73 12/23/74
s 1
f 29/53/4 28/51/3 12/23/75 11/22/76
s 10
f 30/54/40 29/52/39 11/32/77 20/31/78
s 9
f 31/55/36 30/54/35 20/31/79 19/30/80
s 8
f 22/45/32 31/55/31 19/30/81 18/29/82
s 13
f 11/41/83 12/40/84 33/57/85 32/56/86
f 12/40/84 13/39/87 34/58/88 33/57/85
f 13/39/87 14/38/89 35/59/90 34/58/88
f 14/38/89 15/37/91 36/60/92 35/59/90
f 15/37/91 16/36/93 37/61/94 36/60/92
f 16/36/93 17/35/95 38/62/96 37/61/94
f 17/35/95 18/34/97 39/63/98 38/62/96
f 18/34/97 19/33/99 40/64/100 39/63/98
f 19/33/99 20/42/101 41/65/102 40/64/100
f 20/42/101 11/41/83 32/56/86 41/65/102
s off
f 32/56/103 33/57/104 43/67/105 42/66/106
f 33/57/107 34/58/108 45/68/109 43/67/110
f 34/58/111 35/59/112 46/69/113 45/68/114
f 35/59/115 36/60/116 47/70/117 46/69/118
f 36/60/119 37/61/120 48/71/121 47/70/122
f 37/61/123 38/62/124 49/72/125 48/71/126
f 38/62/127 39/63/128 50/73/129 49/72/130
f 39/63/131 40/64/132 51/74/133 50/73/134
f 40/64/135 41/65/136 52/75/137 51/74/138
f 41/65/139 32/56/140 42/66/141 52/75/142
g default
v 0.809017 1.032997 -0.430323
v 0.309017 1.055825 -0.792876
v -0.309017 1.055825 -0.792876
v -0.809017 1.032997 -0.430323
v -1.000000 0.996060 0.156301
v -0.809017 0.959124 0.742924
v -0.309017 0.936297 1.105478
v 0.309017 0.936297 1.105478
v 0.809017 0.959124 0.742924
v 1.000000 0.996060 0.156301
v 0.809017 1.250269 -0.416643
v 0.309017 1.273096 -0.779196
v -0.309017 1.273096 -0.779196
v -0.809017 1.250269 -0.416643
v -1.000000 1.213332 0.169981
v -0.809017 1.176396 0.756605
v -0.309017 1.153568 1.119158
v 0.309017 1.153568 1.119158
v 0.809017 1.176396 0.756605
v 1.000000 1.213332 0.169981
v 0.000000 0.996060 0.156301
v 0.404509 1.296389 -0.119264
v 0.154509 1.307803 -0.300541
v -0.154509 1.307803 -0.300541
v -0.404509 1.296389 -0.119264
v -0.500000 1.277921 0.174048
v -0.404509 1.259453 0.467360
v -0.154509 1.248039 0.648636
v 0.154509 1.248039 0.648636
v 0.404508 1.259453 0.467360
v 0.500000 1.277921 0.174048
v -0.184216 1.340836 0.220592
v 0.184216 1.340836 0.220592
v -0.184216 1.397959 0.224189
v 0.184216 1.397959 0.224189
v -0.184216 1.403300 0.139359
v 0.184216 1.403300 0.139359
v -0.184216 1.346177 0.135762
v 0.184216 1.346177 0.135762
v -0.134216 1.340836 0.220592
v 0.134216 1.340836 0.220592
v 0.134216 1.397959 0.224189
v -0.134216 1.397959 0.224189
v 0.134216 1.403300 0.139359
v -0.134216 1.403300 0.139359
v 0.134216 1.346177 0.135762
v -0.134216 1.346177 0.135762
v 0.184216 1.346177 0.135762
v 0.184216 1.340836 0.220592
v 0.134216 1.340836 0.220592
v 0.134216 1.346177 0.135762
v -0.184216 1.346177 0.135762
v -0.184216 1.340836 0.220592
v -0.134216 1.346177 0.135762
v -0.134216 1.340836 0.220592
v 0.184216 1.283345 0.131806
v 0.184216 1.278004 0.216636
v 0.134216 1.278004 0.216636
v 0.134216 1.283345 0.131806
v -0.184216 1.283345 0.131806
v -0.184216 1.278004 0.216636
v -0.134216 1.283345 0.131806
v -0.134216 1.278004 0.216636
vt 0.626409 0.064409
vt 0.548284 0.007647
vt 0.451716 0.007647
vt 0.373591 0.064409
vt 0.343750 0.156250
vt 0.373591 0.248091
vt 0.451716 0.304853
vt 0.548284 0.304853
vt 0.626409 0.248091
vt 0.656250 0.156250
vt 0.375000 0.312500
vt 0.400000 0.312500
vt 0.425000 0.312500
vt 0.450000 0.312500
vt 0.475000 0.312500
vt 0.500000 0.312500
vt 0.525000 0.312500
vt 0.550000 0.312500
vt 0.575000 0.312500
vt 0.600000 0.312500
vt 0.625000 0.312500
vt 0.375000 0.688440
vt 0.400000 0.688440
vt 0.425000 0.688440
vt 0.450000 0.688440
vt 0.475000 0.688440
vt 0.500000 0.688440
vt 0.525000 0.688440
vt 0.550000 0.688440
vt 0.575000 0.688440
vt 0.600000 0.688440
vt 0.625000 0.688440
vt 0.500000 0.150000
vt 0.000000 0.000000
vt 1.000000 0.000000
vt 1.000000 1.000000
vt 0.000000 1.000000
vt 0.000000 0.000000
vt 1.000000 0.000000
vt 1.000000 1.000000
vt 0.000000 1.000000
vt 0.000000 0.000000
vt 1.000000 0.000000
vt 1.000000 1.000000
vt 0.000000 1.000000
vt 0.000000 0.000000
vt 1.000000 0.000000
vt 1.000000 1.000000
vt 0.000000 1.000000
vt 0.000000 0.000000
vt 1.000000 0.000000
vt 1.000000 1.000000
vt 0.000000 1.000000
vt 0.000000 0.000000
vt 1.000000 0.000000
vt 1.000000 1.000000
vt 0.000000 1.000000
vt 0.000000 0.000000
vt 1.000000 0.000000
vt 1.000000 1.000000
vt 0.000000 1.000000
vt 0.000000 0.000000
vt 1.000000 0.000000
vt 1.000000 1.000000
vt 0.000000 1.000000
vt 0.000000 0.000000
vt 1.000000 0.000000
vt 1.000000 1.000000
vt 0.000000 1.000000
vt 0.000000 0.000000
vt 1.000000 0.000000
vt 1.000000 1.000000
vt 0.000000 1.000000
vt 0.375000 0.000000
vt 0.625000 0.000000
vt 0.625000 0.250000
vt 0.375000 0.250000
vt 0.625000 0.500000
vt 0.375000 0.500000
vt 0.625000 0.750000
vt 0.375000 0.750000
vt 0.625000 1.000000
vt 0.375000 1.000000
vt 0.625000 0.000000
vt 0.875000 0.000000
vt 0.875000 0.250000
vt 0.625000 0.250000
vt 0.125000 0.000000
vt 0.375000 0.000000
vt 0.375000 0.250000
vt 0.125000 0.250000
vt 0.625000 0.500000
vt 0.375000 0.500000
vt 0.625000 0.750000
vt 0.375000 0.750000
vt 0.625000 0.750000
vt 0.625000 1.000000
vt 0.625000 1.000000
vt 0.625000 0.750000
vt 0.375000 1.000000
vt 0.375000 0.750000
vt 0.375000 0.750000
vt 0.375000 1.000000
vt 0.625000 1.000000
vt 0.625000 1.000000
vt 0.625000 0.750000
vt 0.625000 1.000000
vt 0.625000 0.750000
vt 0.375000 1.000000
vt 0.375000 0.750000
vt 0.375000 1.000000
vt 0.375000 0.750000
vt 0.375000 1.000000
vn 0.587785 0.050838 -0.807418
vn 0.587785 0.050838 -0.807418
vn 0.587785 0.050838 -0.807418
vn 0.587785 0.050838 -0.807418
vn -0.000000 0.062840 -0.998024
vn -0.000000 0.062840 -0.998024
vn -0.000000 0.062840 -0.998024
vn -0.000000 0.062840 -0.998024
vn -0.587785 0.050838 -0.807418
vn -0.587785 0.050838 -0.807418
vn -0.587785 0.050838 -0.807418
vn -0.587785 0.050838 -0.807418
vn -0.951057 0.019419 -0.308406
vn -0.951057 0.019419 -0.308406
vn -0.951057 0.019419 -0.308406
vn -0.951057 0.019419 -0.308406
vn -0.951057 -0.019419 0.308406
vn -0.951057 -0.019419 0.308406
vn -0.951057 -0.019419 0.308406
vn -0.951057 -0.019419 0.308406
vn -0.587785 -0.050838 0.807418
vn -0.587785 -0.050838 0.807418
vn -0.587785 -0.050838 0.807418
vn -0.587785 -0.050838 0.807418
vn 0.000000 -0.062840 0.998024
vn 0.000000 -0.062840 0.998024
vn 0.000000 -0.062840 0.998024
vn 0.000000 -0.062840 0.998024
vn 0.587785 -0.050838 0.807418
vn 0.587785 -0.050838 0.807418
vn 0.587785 -0.050838 0.807418
vn 0.587785 -0.050838 0.807418
vn 0.951057 -0.019418 0.308406
vn 0.951057 -0.019418 0.308406
vn 0.951057 -0.019418 0.308406
vn 0.951057 -0.019418 0.308406
vn 0.951057 0.019418 -0.308406
vn 0.951057 0.019418 -0.308406
vn 0.951057 0.019418 -0.308406
vn 0.951057 0.019418 -0.308406
vn -0.000000 -0.998024 -0.062840
vn -0.000000 -0.998024 -0.062840
vn -0.000000 -0.998024 -0.062840
vn 0.000000 -0.998024 -0.062840
vn 0.000000 -0.998024 -0.062840
vn -0.000000 -0.998024 -0.062839
vn -0.000000 -0.998024 -0.062840
vn 0.000000 -0.998024 -0.062840
vn -0.000000 -0.998024 -0.062840
vn -0.000000 -0.998024 -0.062840
vn 0.000000 -0.998024 -0.062839
vn 0.103847 0.994509 -0.012980
vn 0.039666 0.997439 -0.059518
vn 0.039666 0.997439 -0.059518
vn 0.103847 0.994509 -0.012980
vn -0.039666 0.997439 -0.059519
vn -0.039666 0.997439 -0.059519
vn -0.103847 0.994509 -0.012981
vn -0.103847 0.994509 -0.012981
vn -0.128362 0.989767 0.062320
vn -0.128362 0.989767 0.062320
vn -0.103847 0.985026 0.137620
vn -0.103847 0.985026 0.137620
vn -0.039666 0.982096 0.184158
vn -0.039666 0.982096 0.184158
vn 0.039666 0.982096 0.184158
vn 0.039666 0.982096 0.184158
vn 0.103847 0.985026 0.137620
vn 0.103847 0.985026 0.137620
vn 0.128362 0.989767 0.062320
vn 0.128362 0.989767 0.062320
vn 0.000000 0.998024 0.062840
vn 0.000000 0.998024 0.062840
vn 0.000000 0.998024 0.062840
vn 0.000000 0.998024 0.062840
vn 0.000000 0.998024 0.062840
vn 0.000000 0.998024 0.062840
vn 0.000000 0.998024 0.062840
vn 0.000000 0.998024 0.062840
vn 0.000000 0.998024 0.062840
vn 0.000000 0.998024 0.062840
vn 0.000000 -0.062840 0.998024
vn 0.000000 -0.062840 0.998024
vn 0.000000 -0.062840 0.998024
vn 0.000000 -0.062840 0.998024
vn 0.000000 0.998024 0.062839
vn 0.000000 0.998024 0.062839
vn 0.000000 0.998024 0.062839
vn 0.000000 0.998024 0.062839
vn 0.000000 0.062839 -0.998024
vn 0.000000 0.062839 -0.998024
vn 0.000000 0.062839 -0.998024
vn 0.000000 0.062839 -0.998024
vn 0.000000 -0.998024 -0.062838
vn 0.000000 -0.998024 -0.062838
vn 0.000000 -0.998024 -0.062838
vn 0.000000 -0.998024 -0.062838
vn 1.000000 0.000000 0.000000
vn 1.000000 0.000000 0.000000
vn 1.000000 0.000000 0.000000
vn 1.000000 0.000000 0.000000
vn -1.000000 0.000000 0.000000
vn -1.000000 0.000000 0.000000
vn -1.000000 0.000000 0.000000
vn -1.000000 0.000000 0.000000
vn 0.000000 -0.062840 0.998024
vn 0.000000 -0.062840 0.998024
vn 0.000000 -0.062840 0.998024
vn 0.000000 -0.062840 0.998024
vn 0.000000 0.998024 0.062839
vn 0.000000 0.998024 0.062839
vn 0.000000 0.998024 0.062839
vn 0.000000 0.998024 0.062839
vn 0.000000 0.062839 -0.998024
vn 0.000000 0.062839 -0.998024
vn 0.000000 0.062839 -0.998024
vn 0.000000 0.062839 -0.998024
vn 0.000000 -0.998024 -0.062841
vn 0.000000 -0.998024 -0.062841
vn 0.000000 -0.998024 -0.062841
vn 0.000000 -0.998024 -0.062841
vn 0.000000 -0.998024 -0.062841
vn 0.000000 -0.998024 -0.062841
vn 0.000000 -0.998024 -0.062841
vn 0.000000 -0.998024 -0.062841
vn 0.000000 0.000000 0.000000
vn 0.000000 0.000000 0.000000
vn 0.000000 0.000000 0.000000
vn 0.000000 0.000000 0.000000
vn 0.000000 0.000000 0.000000
vn 0.000000 0.000000 0.000000
vn 0.000000 0.000000 0.000000
vn 0.000000 0.000000 0.000000
vn 0.000000 0.000000 0.000000
vn 0.000000 0.000000 0.000000
vn 0.000000 0.000000 0.000000
vn 0.000000 0.000000 0.000000
vn 0.000000 0.000000 0.000000
vn 0.000000 0.000000 0.000000
vn 0.000000 0.000000 0.000000
vn 0.000000 0.000000 0.000000
vn 0.000000 0.000000 0.000000
vn 0.000000 0.000000 0.000000
vn 0.000000 0.000000 0.000000
vn 0.000000 0.000000 0.000000
vn 0.000000 0.000000 0.000000
vn 0.000000 0.000000 0.000000
vn 0.000000 0.000000 0.000000
vn 0.000000 0.000000 0.000000
vn 0.000000 0.000000 0.000000
vn 0.000000 0.000000 0.000000
vn 0.000000 0.000000 0.000000
vn 0.000000 0.000000 0.000000
vn 0.000000 0.000000 0.000000
vn 0.000000 0.000000 0.000000
vn 0.000000 0.000000 0.000000
vn 0.000000 0.000000 0.000000
vn 1.000000 -0.000000 0.000000
vn 1.000000 -0.000000 0.000000
vn 1.000000 -0.000000 0.000000
vn 1.000000 -0.000000 0.000000
vn 0.000000 -0.062839 0.998024
vn 0.000000 -0.062839 0.998024
vn 0.000000 -0.062839 0.998024
vn 0.000000 -0.062839 0.998024
vn -1.000000 -0.000000 0.000000
vn -1.000000 -0.000000 0.000000
vn -1.000000 -0.000000 0.000000
vn -1.000000 -0.000000 0.000000
vn 0.000000 0.062840 -0.998024
vn 0.000000 0.062840 -0.998024
vn 0.000000 0.062840 -0.998024
vn 0.000000 0.062840 -0.998024
vn -1.000000 -0.000000 0.000000
vn -1.000000 -0.000000 0.000000
vn -1.000000 -0.000000 0.000000
vn -1.000000 -0.000000 0.000000
vn 0.000000 0.062840 -0.998024
vn 0.000000 0.062840 -0.998024
vn 0.000000 0.062840 -0.998024
vn 0.000000 0.062840 -0.998024
vn 1.000000 0.000000 0.000000
vn 1.000000 0.000000 0.000000
vn 1.000000 0.000000 0.000000
vn 1.000000 0.000000 0.000000
vn 0.000000 -0.062839 0.998024
vn 0.000000 -0.062839 0.998024
vn 0.000000 -0.062839 0.998024
vn 0.000000 -0.062839 0.998024
s off
g lid1
f 53/86/143 54/87/144 64/98/145 63/97/146
f 54/87/147 55/88/148 65/99/149 64/98/150
f 55/88/151 56/89/152 66/100/153 65/99/154
f 56/89/155 57/90/156 67/101/157 66/100/158
f 57/90/159 58/91/160 68/102/161 67/101/162
f 58/91/163 59/92/164 69/103/165 68/102/166
f 59/92/167 60/93/168 70/104/169 69/103/170
f 60/93/171 61/94/172 71/105/173 70/104/174
f 61/94/175 62/95/176 72/106/177 71/105/178
f 62/95/179 53/96/180 63/107/181 72/106/182
s 1
f 54/77/183 53/76/184 73/108/185
f 55/78/186 54/77/183 73/108/185
f 56/79/187 55/78/186 73/108/185
f 57/80/188 56/79/187 73/108/185
f 58/81/189 57/80/188 73/108/185
f 59/82/190 58/81/189 73/108/185
f 60/83/191 59/82/190 73/108/185
f 61/84/192 60/83/191 73/108/185
f 62/85/193 61/84/192 73/108/185
f 53/76/184 62/85/193 73/108/185
s 2
f 63/109/194 64/110/195 75/111/196 74/112/197
f 64/113/195 65/114/198 76/115/199 75/116/196
f 65/117/198 66/118/200 77/119/201 76/120/199
f 66/121/200 67/122/202 78/123/203 77/124/201
f 67/125/202 68/126/204 79/127/205 78/128/203
f 68/129/204 69/130/206 80/131/207 79/132/205
f 69/133/206 70/134/208 81/135/209 80/136/207
f 70/137/208 71/138/210 82/139/211 81/140/209
f 71/141/210 72/142/212 83/143/213 82/144/211
f 72/145/212 63/146/194 74/147/197 83/148/213
s off
f 75/116/214 76/120/215 77/124/216 78/128/217 79/132/218 80/136/219 81/140/220 82/144/221 83/148/222 74/112/223
s 3
f 92/149/224 93/150/225 94/151/226 95/152/227
s 4
f 95/152/228 94/151/229 96/153/230 97/154/231
s 5
f 97/154/232 96/153/233 98/155/234 99/156/235
s off
f 99/156/236 98/155/237 93/157/238 92/158/239
f 85/159/240 91/160/241 89/161/242 87/162/243
f 90/163/244 84/164/245 86/165/246 88/166/247
s 3
f 85/159/248 87/162/249 94/151/226 93/150/225
f 86/165/250 84/164/251 92/149/224 95/152/227
s 4
f 87/162/252 89/167/253 96/153/230 94/151/229
f 88/168/254 86/165/255 95/152/228 97/154/231
s 5
f 89/167/256 91/169/257 98/155/234 96/153/233
f 90/170/258 88/168/259 97/154/232 99/156/235
s off
f 108/171/260 109/172/261 110/173/262 111/174/263
f 113/175/264 112/176/265 114/177/266 115/178/267
f 91/169/268 85/179/269 101/180/270 100/181/271
f 85/179/272 93/157/273 102/182/274 101/180/275
f 93/157/276 98/155/277 103/183/278 102/182/279
f 98/155/280 91/169/281 100/181/282 103/183/283
f 84/184/284 90/170/285 104/185/286 105/186/287
f 90/170/288 99/156/289 106/187/290 104/185/291
f 99/156/292 92/158/293 107/188/294 106/187/295
f 92/158/296 84/184/297 105/186/298 107/188/299
f 100/181/300 101/180/301 109/172/302 108/171/303
f 101/180/304 102/182/305 110/173/306 109/172/307
f 102/182/308 103/183/309 111/174/310 110/173/311
f 103/183/312 100/181/313 108/171/314 111/174/315
f 105/186/316 104/185/317 112/176/318 113/175/319
f 104/185/320 106/187/321 114/177/322 112/176/323
f 106/187/324 107/188/325 115/178/326 114/177/327
f 107/188/328 105/186/329 113/175/330 115/178/331
