# This file uses centimeters as units for non-parametric coordinates.

g default
v -1.000000 -0.500000 -0.015000
v 1.000000 -0.500000 -0.015000
v -1.000000 -0.500000 0.015000
v 1.000000 -0.500000 0.015000
v -1.000000 0.500000 0.015000
v 1.000000 0.500000 0.015000
v -1.000000 0.500000 -0.015000
v 1.000000 0.500000 -0.015000
vt 0.375000 0.000000
vt 0.625000 0.000000
vt 0.375000 0.250000
vt 0.625000 0.250000
vt 0.375000 0.500000
vt 0.625000 0.500000
vt 0.375000 0.750000
vt 0.625000 0.750000
vt 0.375000 1.000000
vt 0.625000 1.000000
vt 0.875000 0.000000
vt 0.875000 0.250000
vt 0.125000 0.000000
vt 0.125000 0.250000
vn 0.000000 -1.000000 0.000000
vn 0.000000 -1.000000 0.000000
vn 0.000000 -1.000000 0.000000
vn 0.000000 -1.000000 0.000000
vn 0.000000 0.000000 1.000000
vn 0.000000 0.000000 1.000000
vn 0.000000 0.000000 1.000000
vn 0.000000 0.000000 1.000000
vn 0.000000 1.000000 0.000000
vn 0.000000 1.000000 0.000000
vn 0.000000 1.000000 0.000000
vn 0.000000 1.000000 0.000000
vn 0.000000 0.000000 -1.000000
vn 0.000000 0.000000 -1.000000
vn 0.000000 0.000000 -1.000000
vn 0.000000 0.000000 -1.000000
vn 1.000000 0.000000 0.000000
vn 1.000000 0.000000 0.000000
vn 1.000000 0.000000 0.000000
vn 1.000000 0.000000 0.000000
vn -1.000000 0.000000 0.000000
vn -1.000000 0.000000 0.000000
vn -1.000000 0.000000 0.000000
vn -1.000000 0.000000 0.000000
s off
g back washroom_sign1
f 1/1/1 2/2/2 4/4/3 3/3/4
f 3/3/5 4/4/6 6/6/7 5/5/8
f 5/5/9 6/6/10 8/8/11 7/7/12
f 7/7/13 8/8/14 2/10/15 1/9/16
f 2/2/17 8/11/18 6/12/19 4/4/20
f 7/13/21 1/1/22 3/3/23 5/14/24
g default
v -0.021381 -0.358401 0.015956
v 0.021381 -0.358401 0.015956
v -0.021381 -0.358401 0.019956
v 0.021381 -0.358401 0.019956
v -0.021381 0.358401 0.019956
v 0.021381 0.358401 0.019956
v -0.021381 0.358401 0.015956
v 0.021381 0.358401 0.015956
vt 0.375000 0.000000
vt 0.625000 0.000000
vt 0.375000 0.250000
vt 0.625000 0.250000
vt 0.375000 0.500000
vt 0.625000 0.500000
vt 0.375000 0.750000
vt 0.625000 0.750000
vt 0.375000 1.000000
vt 0.625000 1.000000
vt 0.875000 0.000000
vt 0.875000 0.250000
vt 0.125000 0.000000
vt 0.125000 0.250000
vn 0.000000 -1.000000 0.000000
vn 0.000000 -1.000000 0.000000
vn 0.000000 -1.000000 0.000000
vn 0.000000 -1.000000 0.000000
vn 0.000000 0.000000 1.000000
vn 0.000000 0.000000 1.000000
vn 0.000000 0.000000 1.000000
vn 0.000000 0.000000 1.000000
vn 0.000000 1.000000 0.000000
vn 0.000000 1.000000 0.000000
vn 0.000000 1.000000 0.000000
vn 0.000000 1.000000 0.000000
vn 0.000000 0.000000 -1.000000
vn 0.000000 0.000000 -1.000000
vn 0.000000 0.000000 -1.000000
vn 0.000000 0.000000 -1.000000
vn 1.000000 0.000000 0.000000
vn 1.000000 0.000000 0.000000
vn 1.000000 0.000000 0.000000
vn 1.000000 0.000000 0.000000
vn -1.000000 0.000000 0.000000
vn -1.000000 0.000000 0.000000
vn -1.000000 0.000000 0.000000
vn -1.000000 0.000000 0.000000
s off
g washroom_sign1 middle
f 9/15/25 10/16/26 12/18/27 11/17/28
f 11/17/29 12/18/30 14/20/31 13/19/32
f 13/19/33 14/20/34 16/22/35 15/21/36
f 15/21/37 16/22/38 10/24/39 9/23/40
f 10/16/41 16/25/42 14/26/43 12/18/44
f 15/27/45 9/15/46 11/17/47 13/28/48
g default
v 0.447649 0.276496 0.014893
v 0.384721 0.322216 0.014893
v 0.306937 0.322216 0.014893
v 0.244008 0.276496 0.014893
v 0.219972 0.202519 0.014893
v 0.244008 0.128542 0.014893
v 0.306937 0.082822 0.014893
v 0.384721 0.082822 0.014893
v 0.447649 0.128542 0.014893
v 0.471686 0.202519 0.014893
v 0.447649 0.276496 0.022444
v 0.384721 0.322216 0.022444
v 0.306937 0.322216 0.022444
v 0.244008 0.276496 0.022444
v 0.219972 0.202519 0.022444
v 0.244008 0.128542 0.022444
v 0.306937 0.082822 0.022444
v 0.384721 0.082822 0.022444
v 0.447649 0.128542 0.022444
v 0.471686 0.202519 0.022444
v 0.345829 0.202519 0.014893
v 0.345829 0.202519 0.022444
v 0.237740 0.082822 0.014893
v 0.453917 0.082822 0.014893
v 0.453917 0.082822 0.022444
v 0.237740 0.082822 0.022444
v 0.156494 -0.248038 0.014893
v 0.535163 -0.248038 0.014893
v 0.535163 -0.248038 0.022444
v 0.156494 -0.248038 0.022444
v 0.265031 -0.254422 0.014893
v 0.426626 -0.254422 0.014893
v 0.426626 -0.254422 0.022444
v 0.265031 -0.254422 0.022444
v 0.310854 -0.396581 0.014893
v 0.380803 -0.396581 0.014893
v 0.380803 -0.396581 0.022444
v 0.310854 -0.396581 0.022444
vt 0.626409 0.064409
vt 0.548284 0.007647
vt 0.451716 0.007647
vt 0.373591 0.064409
vt 0.343750 0.156250
vt 0.373591 0.248091
vt 0.451716 0.304853
vt 0.548284 0.304853
vt 0.626409 0.248091
vt 0.656250 0.156250
vt 0.375000 0.312500
vt 0.400000 0.312500
vt 0.425000 0.312500
vt 0.450000 0.312500
vt 0.475000 0.312500
vt 0.500000 0.312500
vt 0.525000 0.312500
vt 0.550000 0.312500
vt 0.575000 0.312500
vt 0.600000 0.312500
vt 0.625000 0.312500
vt 0.375000 0.688440
vt 0.400000 0.688440
vt 0.425000 0.688440
vt 0.450000 0.688440
vt 0.475000 0.688440
vt 0.500000 0.688440
vt 0.525000 0.688440
vt 0.550000 0.688440
vt 0.575000 0.688440
vt 0.600000 0.688440
vt 0.625000 0.688440
vt 0.626409 0.751909
vt 0.548284 0.695147
vt 0.451716 0.695147
vt 0.373591 0.751909
vt 0.343750 0.843750
vt 0.373591 0.935591
vt 0.451716 0.992353
vt 0.548284 0.992353
vt 0.626409 0.935591
vt 0.656250 0.843750
vt 0.500000 0.150000
vt 0.500000 0.837500
vt 0.525000 0.312500
vt 0.550000 0.312500
vt 0.550000 0.688440
vt 0.525000 0.688440
vt 0.525000 0.312500
vt 0.550000 0.312500
vt 0.550000 0.688440
vt 0.525000 0.688440
vt 0.525000 0.312500
vt 0.550000 0.312500
vt 0.550000 0.688440
vt 0.525000 0.688440
vt 0.525000 0.312500
vt 0.550000 0.312500
vt 0.550000 0.688440
vt 0.525000 0.688440
vn 0.587785 0.809017 -0.000003
vn 0.587785 0.809017 -0.000003
vn 0.587785 0.809017 -0.000003
vn 0.587785 0.809017 -0.000003
vn -0.000000 1.000000 0.000003
vn -0.000000 1.000000 0.000003
vn -0.000000 1.000000 0.000003
vn -0.000000 1.000000 0.000003
vn -0.587786 0.809017 0.000003
vn -0.587786 0.809017 0.000003
vn -0.587786 0.809017 0.000003
vn -0.587786 0.809017 0.000003
vn -0.951056 0.309018 -0.000001
vn -0.951056 0.309018 -0.000001
vn -0.951056 0.309018 -0.000001
vn -0.951056 0.309018 -0.000001
vn -0.951056 -0.309018 0.000000
vn -0.951056 -0.309018 0.000000
vn -0.951056 -0.309018 0.000000
vn -0.951056 -0.309018 0.000000
vn -0.587786 -0.809017 -0.000004
vn -0.587786 -0.809017 -0.000004
vn -0.587786 -0.809017 -0.000004
vn -0.587786 -0.809017 -0.000004
vn 0.000000 -1.000000 0.000000
vn 0.000000 -1.000000 0.000000
vn 0.000000 -1.000000 0.000000
vn 0.000000 -1.000000 0.000000
vn 0.587785 -0.809017 0.000003
vn 0.587785 -0.809017 0.000003
vn 0.587785 -0.809017 0.000003
vn 0.587785 -0.809017 0.000003
vn 0.951057 -0.309017 0.000002
vn 0.951057 -0.309017 0.000002
vn 0.951057 -0.309017 0.000002
vn 0.951057 -0.309017 0.000002
vn 0.951057 0.309017 -0.000002
vn 0.951057 0.309017 -0.000002
vn 0.951057 0.309017 -0.000002
vn 0.951057 0.309017 -0.000002
vn 0.000000 0.000000 -1.000000
vn 0.000000 0.000000 -1.000000
vn 0.000000 0.000000 -1.000000
vn -0.000000 0.000000 -1.000000
vn -0.000000 0.000000 -1.000000
vn 0.000000 0.000000 -1.000000
vn -0.000000 -0.000000 -1.000000
vn -0.000000 -0.000000 -1.000000
vn 0.000000 -0.000000 -1.000000
vn 0.000000 -0.000000 -1.000000
vn 0.000000 0.000000 -1.000000
vn -0.000000 -0.000000 1.000000
vn -0.000000 -0.000000 1.000000
vn -0.000000 0.000000 1.000000
vn 0.000000 -0.000000 1.000000
vn 0.000000 -0.000000 1.000000
vn 0.000000 0.000000 1.000000
vn 0.000000 0.000000 1.000000
vn 0.000000 0.000000 1.000000
vn -0.000000 0.000000 1.000000
vn -0.000000 0.000000 1.000000
vn 0.000000 -0.000000 1.000000
vn 0.000000 0.000000 1.000000
vn 0.000000 0.000000 1.000000
vn 0.000000 0.000000 0.000000
vn 0.000000 0.000000 0.000000
vn 0.000000 1.000000 -0.000008
vn 0.000000 1.000000 -0.000008
vn 0.000000 1.000000 -0.000008
vn 0.000000 1.000000 -0.000008
vn 0.000000 0.000000 0.000000
vn 0.000000 0.000000 0.000000
vn 0.000000 0.000000 0.000000
vn 0.000000 0.000000 0.000000
vn 0.000000 1.000000 0.000000
vn 0.000000 1.000000 0.000000
vn 0.000000 1.000000 0.000000
vn 0.000000 1.000000 0.000000
vn 0.000000 0.000000 -1.000000
vn 0.000000 0.000000 -1.000000
vn 0.000000 0.000000 -1.000000
vn 0.000000 0.000000 -1.000000
vn 0.971149 0.238475 -0.000001
vn 0.971149 0.238475 -0.000001
vn 0.971149 0.238475 -0.000001
vn 0.971149 0.238475 -0.000001
vn 0.000000 0.000000 1.000000
vn 0.000000 0.000000 1.000000
vn 0.000000 0.000000 1.000000
vn 0.000000 0.000000 1.000000
vn -0.971148 0.238476 0.000000
vn -0.971148 0.238476 0.000000
vn -0.971148 0.238476 0.000000
vn -0.971148 0.238476 0.000000
vn 0.000000 0.000000 -1.000000
vn 0.000000 0.000000 -1.000000
vn 0.000000 0.000000 -1.000000
vn 0.000000 0.000000 -1.000000
vn 0.058715 -0.998275 0.000005
vn 0.058715 -0.998275 0.000005
vn 0.058715 -0.998275 0.000005
vn 0.058715 -0.998275 0.000005
vn 0.000000 0.000000 1.000000
vn 0.000000 0.000000 1.000000
vn 0.000000 0.000000 1.000000
vn 0.000000 0.000000 1.000000
vn -0.058715 -0.998275 0.000005
vn -0.058715 -0.998275 0.000005
vn -0.058715 -0.998275 0.000005
vn -0.058715 -0.998275 0.000005
vn 0.000000 0.000000 -1.000000
vn 0.000000 0.000000 -1.000000
vn 0.000000 0.000000 -1.000000
vn 0.000000 0.000000 -1.000000
vn 0.951778 -0.306788 0.000001
vn 0.951778 -0.306788 0.000001
vn 0.951778 -0.306788 0.000001
vn 0.951778 -0.306788 0.000001
vn 0.000000 -0.000002 1.000000
vn 0.000000 -0.000002 1.000000
vn 0.000000 -0.000002 1.000000
vn 0.000000 -0.000002 1.000000
vn -0.951778 -0.306788 0.000001
vn -0.951778 -0.306788 0.000001
vn -0.951778 -0.306788 0.000001
vn -0.951778 -0.306788 0.000001
s off
g washroom_sign1 woman
f 17/39/49 18/40/50 28/51/51 27/50/52
f 18/40/53 19/41/54 29/52/55 28/51/56
f 19/41/57 20/42/58 30/53/59 29/52/60
f 20/42/61 21/43/62 31/54/63 30/53/64
f 21/43/65 22/44/66 32/55/67 31/54/68
f 22/44/69 23/45/70 33/56/71 32/55/72
f 51/85/73 52/86/74 53/87/75 54/88/76
f 24/46/77 25/47/78 35/58/79 34/57/80
f 25/47/81 26/48/82 36/59/83 35/58/84
f 26/48/85 17/49/86 27/60/87 36/59/88
s 1
f 18/30/89 17/29/90 37/71/91
f 19/31/92 18/30/89 37/71/91
f 20/32/93 19/31/92 37/71/91
f 21/33/94 20/32/93 37/71/91
f 22/34/95 21/33/94 37/71/91
f 23/35/96 22/34/95 37/71/91
f 24/36/97 23/35/96 37/71/91
f 25/37/98 24/36/97 37/71/91
f 26/38/99 25/37/98 37/71/91
f 17/29/90 26/38/99 37/71/91
s 2
f 27/69/100 28/68/101 38/72/102
f 28/68/101 29/67/103 38/72/102
f 29/67/103 30/66/104 38/72/102
f 30/66/104 31/65/105 38/72/102
f 31/65/105 32/64/106 38/72/102
f 32/64/106 33/63/107 38/72/102
f 33/63/107 34/62/108 38/72/102
f 34/62/108 35/61/109 38/72/102
f 35/61/109 36/70/110 38/72/102
f 36/70/110 27/69/100 38/72/102
s off
f 23/45/111 24/46/112 40/74/113 39/73/114
f 24/46/115 34/57/116 41/75/117 40/74/118
f 34/57/119 33/56/120 42/76/121 41/75/122
f 33/56/123 23/45/124 39/73/125 42/76/126
f 39/73/127 40/74/128 44/78/129 43/77/130
f 40/74/131 41/75/132 45/79/133 44/78/134
f 41/75/135 42/76/136 46/80/137 45/79/138
f 42/76/139 39/73/140 43/77/141 46/80/142
f 43/77/143 44/78/144 48/82/145 47/81/146
f 44/78/147 45/79/148 49/83/149 48/82/150
f 45/79/151 46/80/152 50/84/153 49/83/154
f 46/80/155 43/77/156 47/81/157 50/84/158
f 47/81/159 48/82/160 52/86/161 51/85/162
f 48/82/163 49/83/164 53/87/165 52/86/166
f 49/83/167 50/84/168 54/88/169 53/87/170
f 50/84/171 47/81/172 51/85/173 54/88/174
g default
v -0.298732 0.274461 0.014667
v -0.361732 0.320233 0.014667
v -0.439605 0.320233 0.014667
v -0.502605 0.274461 0.014667
v -0.526669 0.200400 0.014667
v -0.502605 0.126339 0.014667
v -0.439605 0.080566 0.014667
v -0.361732 0.080567 0.014667
v -0.298732 0.126339 0.014667
v -0.274669 0.200400 0.014667
v -0.298732 0.274461 0.022667
v -0.361732 0.320233 0.022667
v -0.439605 0.320233 0.022667
v -0.502605 0.274461 0.022667
v -0.526669 0.200400 0.022667
v -0.502605 0.126339 0.022667
v -0.439605 0.080566 0.022667
v -0.361732 0.080566 0.022667
v -0.298732 0.126339 0.022667
v -0.274669 0.200400 0.022667
v -0.400669 0.200400 0.014667
v -0.400669 0.200400 0.022667
v -0.465174 0.080566 0.014667
v -0.336163 0.080567 0.014667
v -0.336163 0.080566 0.022667
v -0.465174 0.080566 0.022667
v -0.562758 0.080566 0.014667
v -0.238579 0.080567 0.014667
v -0.238579 0.080566 0.022667
v -0.562758 0.080566 0.022667
v -0.562758 -0.253673 0.014667
v -0.238579 -0.253673 0.014667
v -0.238579 -0.253673 0.022667
v -0.562758 -0.253673 0.022667
v -0.479352 -0.259508 0.014667
v -0.321985 -0.259508 0.014667
v -0.321985 -0.259508 0.022667
v -0.479352 -0.259508 0.022667
v -0.446676 -0.394966 0.014667
v -0.354661 -0.394966 0.014667
v -0.354661 -0.394966 0.022667
v -0.446676 -0.394966 0.022667
vt 0.626409 0.064409
vt 0.548284 0.007647
vt 0.451716 0.007647
vt 0.373591 0.064409
vt 0.343750 0.156250
vt 0.373591 0.248091
vt 0.451716 0.304853
vt 0.548284 0.304853
vt 0.626409 0.248091
vt 0.656250 0.156250
vt 0.375000 0.312500
vt 0.400000 0.312500
vt 0.425000 0.312500
vt 0.450000 0.312500
vt 0.475000 0.312500
vt 0.500000 0.312500
vt 0.525000 0.312500
vt 0.550000 0.312500
vt 0.575000 0.312500
vt 0.600000 0.312500
vt 0.625000 0.312500
vt 0.375000 0.688440
vt 0.400000 0.688440
vt 0.425000 0.688440
vt 0.450000 0.688440
vt 0.475000 0.688440
vt 0.500000 0.688440
vt 0.525000 0.688440
vt 0.550000 0.688440
vt 0.575000 0.688440
vt 0.600000 0.688440
vt 0.625000 0.688440
vt 0.626409 0.751909
vt 0.548284 0.695147
vt 0.451716 0.695147
vt 0.373591 0.751909
vt 0.343750 0.843750
vt 0.373591 0.935591
vt 0.451716 0.992353
vt 0.548284 0.992353
vt 0.626409 0.935591
vt 0.656250 0.843750
vt 0.500000 0.150000
vt 0.500000 0.837500
vt 0.525000 0.312500
vt 0.550000 0.312500
vt 0.550000 0.688440
vt 0.525000 0.688440
vt 0.525000 0.312500
vt 0.550000 0.312500
vt 0.550000 0.688440
vt 0.525000 0.688440
vt 0.525000 0.312500
vt 0.550000 0.312500
vt 0.550000 0.688440
vt 0.525000 0.688440
vt 0.525000 0.312500
vt 0.550000 0.312500
vt 0.550000 0.688440
vt 0.525000 0.688440
vt 0.525000 0.312500
vt 0.550000 0.312500
vt 0.550000 0.688440
vt 0.525000 0.688440
vn 0.587785 0.809017 0.000000
vn 0.587785 0.809017 0.000000
vn 0.587785 0.809017 0.000000
vn 0.587785 0.809017 0.000000
vn 0.000000 1.000000 0.000000
vn 0.000000 1.000000 0.000000
vn 0.000000 1.000000 0.000000
vn 0.000000 1.000000 0.000000
vn -0.587785 0.809017 0.000000
vn -0.587785 0.809017 0.000000
vn -0.587785 0.809017 0.000000
vn -0.587785 0.809017 0.000000
vn -0.951057 0.309017 0.000001
vn -0.951057 0.309017 0.000001
vn -0.951057 0.309017 0.000001
vn -0.951057 0.309017 0.000001
vn -0.951057 -0.309017 0.000000
vn -0.951057 -0.309017 0.000000
vn -0.951057 -0.309017 0.000000
vn -0.951057 -0.309017 0.000000
vn -0.587785 -0.809017 0.000007
vn -0.587785 -0.809017 0.000007
vn -0.587785 -0.809017 0.000007
vn -0.587785 -0.809017 0.000007
vn 0.000000 -1.000000 0.000000
vn 0.000000 -1.000000 0.000000
vn 0.000000 -1.000000 0.000000
vn 0.000000 -1.000000 0.000000
vn 0.587785 -0.809017 0.000000
vn 0.587785 -0.809017 0.000000
vn 0.587785 -0.809017 0.000000
vn 0.587785 -0.809017 0.000000
vn 0.951056 -0.309017 0.000000
vn 0.951056 -0.309017 0.000000
vn 0.951056 -0.309017 0.000000
vn 0.951056 -0.309017 0.000000
vn 0.951057 0.309017 0.000001
vn 0.951057 0.309017 0.000001
vn 0.951057 0.309017 0.000001
vn 0.951057 0.309017 0.000001
vn -0.000000 -0.000000 -1.000000
vn -0.000000 -0.000000 -1.000000
vn 0.000000 0.000000 -1.000000
vn 0.000000 -0.000000 -1.000000
vn 0.000000 -0.000000 -1.000000
vn 0.000000 0.000000 -1.000000
vn 0.000000 0.000000 -1.000000
vn 0.000000 0.000000 -1.000000
vn -0.000000 0.000000 -1.000000
vn -0.000000 0.000000 -1.000000
vn 0.000000 0.000000 -1.000000
vn 0.000000 0.000000 1.000000
vn 0.000000 0.000000 1.000000
vn 0.000000 0.000000 1.000000
vn 0.000000 0.000000 1.000000
vn 0.000000 0.000000 1.000000
vn 0.000000 0.000000 1.000000
vn 0.000000 -0.000000 1.000000
vn 0.000000 -0.000000 1.000000
vn 0.000000 -0.000000 1.000000
vn 0.000000 -0.000000 1.000000
vn 0.000000 0.000000 1.000000
vn 0.000000 0.000000 0.000000
vn 0.000000 0.000000 0.000000
vn 0.000000 0.000000 0.000000
vn 0.000000 0.000000 0.000000
vn 0.000000 1.000000 0.000008
vn 0.000000 1.000000 0.000008
vn 0.000000 1.000000 0.000008
vn 0.000000 1.000000 0.000008
vn 0.000000 0.000000 -0.000000
vn 0.000000 0.000000 -0.000000
vn 0.000000 0.000000 -0.000000
vn 0.000000 0.000000 -0.000000
vn 0.000000 1.000000 -0.000008
vn 0.000000 1.000000 -0.000008
vn 0.000000 1.000000 -0.000008
vn 0.000000 1.000000 -0.000008
vn 0.000000 0.000000 0.000000
vn 0.000000 0.000000 0.000000
vn 0.000000 0.000000 0.000000
vn 0.000000 0.000000 0.000000
vn 0.000000 1.000000 0.000007
vn 0.000000 1.000000 0.000007
vn 0.000000 1.000000 0.000007
vn 0.000000 1.000000 0.000007
vn 0.000000 0.000000 -0.000000
vn 0.000000 0.000000 -0.000000
vn 0.000000 0.000000 -0.000000
vn 0.000000 0.000000 -0.000000
vn 0.000000 1.000000 -0.000007
vn 0.000000 1.000000 -0.000007
vn 0.000000 1.000000 -0.000007
vn 0.000000 1.000000 -0.000007
vn 0.000000 -0.000000 -1.000000
vn 0.000000 -0.000000 -1.000000
vn 0.000000 -0.000000 -1.000000
vn 0.000000 -0.000000 -1.000000
vn 1.000000 -0.000000 0.000000
vn 1.000000 -0.000000 0.000000
vn 1.000000 -0.000000 0.000000
vn 1.000000 -0.000000 0.000000
vn 0.000000 0.000000 1.000000
vn 0.000000 0.000000 1.000000
vn 0.000000 0.000000 1.000000
vn 0.000000 0.000000 1.000000
vn -1.000000 0.000000 0.000000
vn -1.000000 0.000000 0.000000
vn -1.000000 0.000000 0.000000
vn -1.000000 0.000000 0.000000
vn 0.000000 0.000000 -1.000000
vn 0.000000 0.000000 -1.000000
vn 0.000000 0.000000 -1.000000
vn 0.000000 0.000000 -1.000000
vn 0.069796 -0.997561 0.000000
vn 0.069796 -0.997561 0.000000
vn 0.069796 -0.997561 0.000000
vn 0.069796 -0.997561 0.000000
vn 0.000000 0.000000 1.000000
vn 0.000000 0.000000 1.000000
vn 0.000000 0.000000 1.000000
vn 0.000000 0.000000 1.000000
vn -0.069796 -0.997561 0.000000
vn -0.069796 -0.997561 0.000000
vn -0.069796 -0.997561 0.000000
vn -0.069796 -0.997561 0.000000
vn 0.000000 0.000000 -1.000000
vn 0.000000 0.000000 -1.000000
vn 0.000000 0.000000 -1.000000
vn 0.000000 0.000000 -1.000000
vn 0.972117 -0.234498 0.000000
vn 0.972117 -0.234498 0.000000
vn 0.972117 -0.234498 0.000000
vn 0.972117 -0.234498 0.000000
vn 0.000000 0.000000 1.000000
vn 0.000000 0.000000 1.000000
vn 0.000000 0.000000 1.000000
vn 0.000000 0.000000 1.000000
vn -0.972117 -0.234498 0.000000
vn -0.972117 -0.234498 0.000000
vn -0.972117 -0.234498 0.000000
vn -0.972117 -0.234498 0.000000
s off
g washroom_sign1 man
f 55/99/175 56/100/176 66/111/177 65/110/178
f 56/100/179 57/101/180 67/112/181 66/111/182
f 57/101/183 58/102/184 68/113/185 67/112/186
f 58/102/187 59/103/188 69/114/189 68/113/190
f 59/103/191 60/104/192 70/115/193 69/114/194
f 60/104/195 61/105/196 71/116/197 70/115/198
f 93/149/199 94/150/200 95/151/201 96/152/202
f 62/106/203 63/107/204 73/118/205 72/117/206
f 63/107/207 64/108/208 74/119/209 73/118/210
f 64/108/211 55/109/212 65/120/213 74/119/214
s 1
f 56/90/215 55/89/216 75/131/217
f 57/91/218 56/90/215 75/131/217
f 58/92/219 57/91/218 75/131/217
f 59/93/220 58/92/219 75/131/217
f 60/94/221 59/93/220 75/131/217
f 61/95/222 60/94/221 75/131/217
f 62/96/223 61/95/222 75/131/217
f 63/97/224 62/96/223 75/131/217
f 64/98/225 63/97/224 75/131/217
f 55/89/216 64/98/225 75/131/217
s 2
f 65/129/226 66/128/227 76/132/228
f 66/128/227 67/127/229 76/132/228
f 67/127/229 68/126/230 76/132/228
f 68/126/230 69/125/231 76/132/228
f 69/125/231 70/124/232 76/132/228
f 70/124/232 71/123/233 76/132/228
f 71/123/233 72/122/234 76/132/228
f 72/122/234 73/121/235 76/132/228
f 73/121/235 74/130/236 76/132/228
f 74/130/236 65/129/226 76/132/228
s off
f 61/105/237 62/106/238 78/134/239 77/133/240
f 62/106/241 72/117/242 79/135/243 78/134/244
f 72/117/245 71/116/246 80/136/247 79/135/248
f 71/116/249 61/105/250 77/133/251 80/136/252
f 77/133/253 78/134/254 82/138/255 81/137/256
f 78/134/257 79/135/258 83/139/259 82/138/260
f 79/135/261 80/136/262 84/140/263 83/139/264
f 80/136/265 77/133/266 81/137/267 84/140/268
f 81/137/269 82/138/270 86/142/271 85/141/272
f 82/138/273 83/139/274 87/143/275 86/142/276
f 83/139/277 84/140/278 88/144/279 87/143/280
f 84/140/281 81/137/282 85/141/283 88/144/284
f 85/141/285 86/142/286 90/146/287 89/145/288
f 86/142/289 87/143/290 91/147/291 90/146/292
f 87/143/293 88/144/294 92/148/295 91/147/296
f 88/144/297 85/141/298 89/145/299 92/148/300
f 89/145/301 90/146/302 94/150/303 93/149/304
f 90/146/305 91/147/306 95/151/307 94/150/308
f 91/147/309 92/148/310 96/152/311 95/151/312
f 92/148/313 89/145/314 93/149/315 96/152/316
