# This file uses centimeters as units for non-parametric coordinates.

g default
v 0.101821 0.276496 0.014893
v 0.038892 0.322216 0.014893
v -0.038892 0.322216 0.014893
v -0.101821 0.276496 0.014893
v -0.125857 0.202519 0.014893
v -0.101821 0.128542 0.014893
v -0.038892 0.082822 0.014893
v 0.038892 0.082822 0.014893
v 0.101821 0.128542 0.014893
v 0.125857 0.202519 0.014893
v 0.101821 0.276496 0.022444
v 0.038892 0.322216 0.022444
v -0.038892 0.322216 0.022444
v -0.101821 0.276496 0.022444
v -0.125857 0.202519 0.022444
v -0.101821 0.128542 0.022444
v -0.038892 0.082822 0.022444
v 0.038892 0.082822 0.022444
v 0.101821 0.128542 0.022444
v 0.125857 0.202519 0.022444
v 0.000000 0.202519 0.014893
v 0.000000 0.202519 0.022444
v -0.108088 0.082822 0.014893
v 0.108088 0.082822 0.014893
v 0.108088 0.082822 0.022444
v -0.108088 0.082822 0.022444
v -0.189334 -0.248038 0.014893
v 0.189334 -0.248038 0.014893
v 0.189334 -0.248038 0.022444
v -0.189334 -0.248038 0.022444
v -0.080797 -0.254422 0.014893
v 0.080797 -0.254422 0.014893
v 0.080797 -0.254422 0.022444
v -0.080797 -0.254422 0.022444
v -0.034975 -0.396581 0.014893
v 0.034975 -0.396581 0.014893
v 0.034975 -0.396581 0.022444
v -0.034975 -0.396581 0.022444
vt 0.626409 0.064409
vt 0.548284 0.007647
vt 0.451716 0.007647
vt 0.373591 0.064409
vt 0.343750 0.156250
vt 0.373591 0.248091
vt 0.451716 0.304853
vt 0.548284 0.304853
vt 0.626409 0.248091
vt 0.656250 0.156250
vt 0.375000 0.312500
vt 0.400000 0.312500
vt 0.425000 0.312500
vt 0.450000 0.312500
vt 0.475000 0.312500
vt 0.500000 0.312500
vt 0.525000 0.312500
vt 0.550000 0.312500
vt 0.575000 0.312500
vt 0.600000 0.312500
vt 0.625000 0.312500
vt 0.375000 0.688440
vt 0.400000 0.688440
vt 0.425000 0.688440
vt 0.450000 0.688440
vt 0.475000 0.688440
vt 0.500000 0.688440
vt 0.525000 0.688440
vt 0.550000 0.688440
vt 0.575000 0.688440
vt 0.600000 0.688440
vt 0.625000 0.688440
vt 0.626409 0.751909
vt 0.548284 0.695147
vt 0.451716 0.695147
vt 0.373591 0.751909
vt 0.343750 0.843750
vt 0.373591 0.935591
vt 0.451716 0.992353
vt 0.548284 0.992353
vt 0.626409 0.935591
vt 0.656250 0.843750
vt 0.500000 0.150000
vt 0.500000 0.837500
vt 0.525000 0.312500
vt 0.550000 0.312500
vt 0.550000 0.688440
vt 0.525000 0.688440
vt 0.525000 0.312500
vt 0.550000 0.312500
vt 0.550000 0.688440
vt 0.525000 0.688440
vt 0.525000 0.312500
vt 0.550000 0.312500
vt 0.550000 0.688440
vt 0.525000 0.688440
vt 0.525000 0.312500
vt 0.550000 0.312500
vt 0.550000 0.688440
vt 0.525000 0.688440
vn 0.587786 0.809017 -0.000003
vn 0.587786 0.809017 -0.000003
vn 0.587786 0.809017 -0.000003
vn 0.587786 0.809017 -0.000003
vn -0.000000 1.000000 0.000003
vn -0.000000 1.000000 0.000003
vn -0.000000 1.000000 0.000003
vn -0.000000 1.000000 0.000003
vn -0.587785 0.809017 0.000003
vn -0.587785 0.809017 0.000003
vn -0.587785 0.809017 0.000003
vn -0.587785 0.809017 0.000003
vn -0.951057 0.309016 -0.000001
vn -0.951057 0.309016 -0.000001
vn -0.951057 0.309016 -0.000001
vn -0.951057 0.309016 -0.000001
vn -0.951056 -0.309017 0.000000
vn -0.951057 -0.309017 0.000000
vn -0.951056 -0.309017 0.000000
vn -0.951057 -0.309017 0.000000
vn -0.587786 -0.809017 -0.000004
vn -0.587786 -0.809017 -0.000004
vn -0.587786 -0.809017 -0.000004
vn -0.587786 -0.809017 -0.000004
vn 0.000000 -1.000000 0.000000
vn 0.000000 -1.000000 0.000000
vn 0.000000 -1.000000 0.000000
vn 0.000000 -1.000000 0.000000
vn 0.587786 -0.809017 0.000003
vn 0.587786 -0.809017 0.000003
vn 0.587786 -0.809017 0.000003
vn 0.587786 -0.809017 0.000003
vn 0.951056 -0.309017 0.000001
vn 0.951056 -0.309017 0.000001
vn 0.951056 -0.309017 0.000001
vn 0.951056 -0.309017 0.000001
vn 0.951057 0.309017 -0.000002
vn 0.951057 0.309017 -0.000002
vn 0.951057 0.309017 -0.000002
vn 0.951057 0.309017 -0.000002
vn 0.000000 0.000000 -1.000000
vn 0.000000 0.000000 -1.000000
vn 0.000000 0.000000 -1.000000
vn -0.000000 0.000000 -1.000000
vn -0.000000 0.000000 -1.000000
vn 0.000000 0.000000 -1.000000
vn -0.000000 -0.000000 -1.000000
vn -0.000000 -0.000000 -1.000000
vn 0.000000 -0.000000 -1.000000
vn 0.000000 -0.000000 -1.000000
vn 0.000000 0.000000 -1.000000
vn -0.000000 -0.000000 1.000000
vn -0.000000 -0.000000 1.000000
vn 0.000000 0.000000 1.000000
vn 0.000000 -0.000000 1.000000
vn 0.000000 -0.000000 1.000000
vn 0.000000 -0.000000 1.000000
vn 0.000000 0.000000 1.000000
vn 0.000000 0.000000 1.000000
vn -0.000000 0.000000 1.000000
vn -0.000000 0.000000 1.000000
vn 0.000000 -0.000000 1.000000
vn 0.000000 0.000000 -0.000000
vn 0.000000 0.000000 -0.000000
vn 0.000000 0.000000 -0.000000
vn 0.000000 0.000000 -0.000000
vn 0.000000 1.000000 -0.000007
vn 0.000000 1.000000 -0.000007
vn 0.000000 1.000000 -0.000007
vn 0.000000 1.000000 -0.000007
vn 0.000000 0.000000 0.000000
vn 0.000000 0.000000 0.000000
vn 0.000000 0.000000 0.000000
vn 0.000000 0.000000 0.000000
vn 0.000000 1.000000 0.000000
vn 0.000000 1.000000 0.000000
vn 0.000000 1.000000 0.000000
vn 0.000000 1.000000 0.000000
vn 0.000000 0.000000 -1.000000
vn 0.000000 0.000000 -1.000000
vn 0.000000 0.000000 -1.000000
vn 0.000000 0.000000 -1.000000
vn 0.971149 0.238475 -0.000001
vn 0.971149 0.238475 -0.000001
vn 0.971149 0.238475 -0.000001
vn 0.971149 0.238475 -0.000001
vn 0.000000 0.000000 1.000000
vn 0.000000 0.000000 1.000000
vn 0.000000 0.000000 1.000000
vn 0.000000 0.000000 1.000000
vn -0.971149 0.238475 0.000000
vn -0.971149 0.238475 0.000000
vn -0.971149 0.238475 0.000000
vn -0.971149 0.238475 0.000000
vn 0.000000 0.000000 -1.000000
vn 0.000000 0.000000 -1.000000
vn 0.000000 0.000000 -1.000000
vn 0.000000 0.000000 -1.000000
vn 0.058715 -0.998275 0.000005
vn 0.058715 -0.998275 0.000005
vn 0.058715 -0.998275 0.000005
vn 0.058715 -0.998275 0.000005
vn 0.000000 0.000000 1.000000
vn 0.000000 0.000000 1.000000
vn 0.000000 0.000000 1.000000
vn 0.000000 0.000000 1.000000
vn -0.058715 -0.998275 0.000005
vn -0.058715 -0.998275 0.000005
vn -0.058715 -0.998275 0.000005
vn -0.058715 -0.998275 0.000005
vn 0.000000 0.000000 -1.000000
vn 0.000000 0.000000 -1.000000
vn 0.000000 0.000000 -1.000000
vn 0.000000 0.000000 -1.000000
vn 0.951778 -0.306788 0.000001
vn 0.951778 -0.306788 0.000001
vn 0.951778 -0.306788 0.000001
vn 0.951778 -0.306788 0.000001
vn 0.000000 -0.000002 1.000000
vn 0.000000 -0.000002 1.000000
vn 0.000000 -0.000002 1.000000
vn 0.000000 -0.000002 1.000000
vn -0.951778 -0.306788 0.000001
vn -0.951778 -0.306788 0.000001
vn -0.951778 -0.306788 0.000001
vn -0.951778 -0.306788 0.000001
s off
g woman washroom_sign
f 1/11/1 2/12/2 12/23/3 11/22/4
f 2/12/5 3/13/6 13/24/7 12/23/8
f 3/13/9 4/14/10 14/25/11 13/24/12
f 4/14/13 5/15/14 15/26/15 14/25/16
f 5/15/17 6/16/18 16/27/19 15/26/20
f 6/16/21 7/17/22 17/28/23 16/27/24
f 35/57/25 36/58/26 37/59/27 38/60/28
f 8/18/29 9/19/30 19/30/31 18/29/32
f 9/19/33 10/20/34 20/31/35 19/30/36
f 10/20/37 1/21/38 11/32/39 20/31/40
s 1
f 2/2/41 1/1/42 21/43/43
f 3/3/44 2/2/41 21/43/43
f 4/4/45 3/3/44 21/43/43
f 5/5/46 4/4/45 21/43/43
f 6/6/47 5/5/46 21/43/43
f 7/7/48 6/6/47 21/43/43
f 8/8/49 7/7/48 21/43/43
f 9/9/50 8/8/49 21/43/43
f 10/10/51 9/9/50 21/43/43
f 1/1/42 10/10/51 21/43/43
s 2
f 11/41/52 12/40/53 22/44/54
f 12/40/53 13/39/55 22/44/54
f 13/39/55 14/38/56 22/44/54
f 14/38/56 15/37/57 22/44/54
f 15/37/57 16/36/58 22/44/54
f 16/36/58 17/35/59 22/44/54
f 17/35/59 18/34/60 22/44/54
f 18/34/60 19/33/61 22/44/54
f 19/33/61 20/42/62 22/44/54
f 20/42/62 11/41/52 22/44/54
s off
f 7/17/63 8/18/64 24/46/65 23/45/66
f 8/18/67 18/29/68 25/47/69 24/46/70
f 18/29/71 17/28/72 26/48/73 25/47/74
f 17/28/75 7/17/76 23/45/77 26/48/78
f 23/45/79 24/46/80 28/50/81 27/49/82
f 24/46/83 25/47/84 29/51/85 28/50/86
f 25/47/87 26/48/88 30/52/89 29/51/90
f 26/48/91 23/45/92 27/49/93 30/52/94
f 27/49/95 28/50/96 32/54/97 31/53/98
f 28/50/99 29/51/100 33/55/101 32/54/102
f 29/51/103 30/52/104 34/56/105 33/55/106
f 30/52/107 27/49/108 31/53/109 34/56/110
f 31/53/111 32/54/112 36/58/113 35/57/114
f 32/54/115 33/55/116 37/59/117 36/58/118
f 33/55/119 34/56/120 38/60/121 37/59/122
f 34/56/123 31/53/124 35/57/125 38/60/126
g default
v -0.500000 -0.500000 -0.015000
v 0.500000 -0.500000 -0.015000
v -0.500000 -0.500000 0.015000
v 0.500000 -0.500000 0.015000
v -0.500000 0.500000 0.015000
v 0.500000 0.500000 0.015000
v -0.500000 0.500000 -0.015000
v 0.500000 0.500000 -0.015000
vt 0.375000 0.000000
vt 0.625000 0.000000
vt 0.375000 0.250000
vt 0.625000 0.250000
vt 0.375000 0.500000
vt 0.625000 0.500000
vt 0.375000 0.750000
vt 0.625000 0.750000
vt 0.375000 1.000000
vt 0.625000 1.000000
vt 0.875000 0.000000
vt 0.875000 0.250000
vt 0.125000 0.000000
vt 0.125000 0.250000
vn 0.000000 -1.000000 0.000000
vn 0.000000 -1.000000 0.000000
vn 0.000000 -1.000000 0.000000
vn 0.000000 -1.000000 0.000000
vn 0.000000 0.000000 1.000000
vn 0.000000 0.000000 1.000000
vn 0.000000 0.000000 1.000000
vn 0.000000 0.000000 1.000000
vn 0.000000 1.000000 0.000000
vn 0.000000 1.000000 0.000000
vn 0.000000 1.000000 0.000000
vn 0.000000 1.000000 0.000000
vn 0.000000 0.000000 -1.000000
vn 0.000000 0.000000 -1.000000
vn 0.000000 0.000000 -1.000000
vn 0.000000 0.000000 -1.000000
vn 1.000000 0.000000 0.000000
vn 1.000000 0.000000 0.000000
vn 1.000000 0.000000 0.000000
vn 1.000000 0.000000 0.000000
vn -1.000000 0.000000 0.000000
vn -1.000000 0.000000 0.000000
vn -1.000000 0.000000 0.000000
vn -1.000000 0.000000 0.000000
s off
g washroom_sign back
f 39/61/127 40/62/128 42/64/129 41/63/130
f 41/63/131 42/64/132 44/66/133 43/65/134
f 43/65/135 44/66/136 46/68/137 45/67/138
f 45/67/139 46/68/140 40/70/141 39/69/142
f 40/62/143 46/71/144 44/72/145 42/64/146
f 45/73/147 39/61/148 41/63/149 43/74/150
