# This file uses centimeters as units for non-parametric coordinates.

g default
v 0.055529 -0.179695 -0.170900
v -0.145376 -0.179695 -0.105622
v -0.145376 -0.179695 0.105622
v 0.055529 -0.179695 0.170900
v 0.179695 -0.179695 0.000000
v 0.047413 0.133423 -0.133708
v -0.110999 0.127023 -0.082636
v -0.110999 0.106313 0.082636
v 0.047413 0.099913 0.133708
v 0.145317 0.116668 -0.000000
v 0.000000 -0.179695 0.000000
v 0.055789 0.385867 -0.122370
v -0.094830 0.380894 -0.087103
v 0.004642 0.386827 -0.001057
v -0.107982 0.384120 0.067076
v 0.034508 0.391088 0.127097
v 0.135725 0.392167 0.010013
vt 0.548284 0.007647
vt 0.373591 0.064409
vt 0.373591 0.248091
vt 0.548284 0.304853
vt 0.656250 0.156250
vt 0.375000 0.312500
vt 0.425000 0.312500
vt 0.475000 0.312500
vt 0.525000 0.312500
vt 0.575000 0.312500
vt 0.625000 0.312500
vt 0.375000 0.688440
vt 0.425000 0.688440
vt 0.475000 0.688440
vt 0.525000 0.688440
vt 0.575000 0.688440
vt 0.625000 0.688440
vt 0.548284 0.695147
vt 0.373591 0.751909
vt 0.373591 0.935591
vt 0.548284 0.992353
vt 0.656250 0.843750
vt 0.500000 0.150000
vt 0.500000 0.837500
vt 0.548284 0.992353
vt 0.373591 0.935591
vt 0.373591 0.751909
vt 0.548284 0.695147
vt 0.656250 0.843750
vn -0.308052 0.104856 -0.945574
vn -0.308052 0.104856 -0.945574
vn -0.308052 0.104856 -0.945574
vn -0.308052 0.104856 -0.945574
vn -0.993319 0.115223 0.006338
vn -0.993319 0.115223 0.006338
vn -0.993319 0.115223 0.006338
vn -0.993319 0.115223 0.006338
vn -0.304176 0.114739 0.945681
vn -0.304176 0.114739 0.945681
vn -0.304176 0.114739 0.945681
vn -0.304176 0.114739 0.945681
vn 0.801675 0.097230 0.589799
vn 0.801675 0.097230 0.589799
vn 0.801675 0.097230 0.589799
vn 0.801675 0.097230 0.589799
vn 0.807039 0.091862 -0.583308
vn 0.807040 0.091862 -0.583308
vn 0.807039 0.091862 -0.583308
vn 0.807040 0.091862 -0.583308
vn 0.000000 -1.000000 0.000000
vn 0.000000 -1.000000 0.000000
vn 0.000000 -1.000000 -0.000000
vn 0.000000 -1.000000 -0.000000
vn 0.000000 -1.000000 -0.000000
vn 0.000000 -1.000000 0.000000
vn -0.038651 0.998960 -0.024202
vn -0.038651 0.998960 -0.024201
vn -0.038651 0.998960 -0.024202
vn -0.038651 0.998960 -0.024201
vn -0.038651 0.998960 -0.024202
vn -0.038651 0.998960 -0.024202
vn -0.269881 0.026145 -0.962539
vn -0.269881 0.026145 -0.962539
vn -0.269881 0.026145 -0.962539
vn -0.269881 0.026145 -0.962539
vn -0.998633 0.034558 -0.039225
vn -0.998633 0.034558 -0.039225
vn -0.998633 0.034558 -0.039225
vn -0.998633 0.034558 -0.039225
vn -0.346237 0.030517 0.937651
vn -0.346237 0.030517 0.937651
vn -0.346237 0.030517 0.937651
vn -0.346237 0.030517 0.937651
vn 0.781930 0.027304 0.622768
vn 0.781930 0.027304 0.622768
vn 0.781930 0.027304 0.622768
vn 0.781930 0.027304 0.622768
vn 0.831603 0.024355 -0.554837
vn 0.831603 0.024355 -0.554837
vn 0.831603 0.024355 -0.554837
vn 0.831603 0.024355 -0.554837
s off
g trunk
f 1/6/1 2/7/2 7/13/3 6/12/4
f 2/7/5 3/8/6 8/14/7 7/13/8
f 3/8/9 4/9/10 9/15/11 8/14/12
f 4/9/13 5/10/14 10/16/15 9/15/16
f 5/10/17 1/11/18 6/17/19 10/16/20
s 1
f 2/2/21 1/1/22 11/23/23
f 3/3/24 2/2/21 11/23/23
f 4/4/25 3/3/24 11/23/23
f 5/5/26 4/4/25 11/23/23
f 1/1/22 5/5/26 11/23/23
s 2
f 12/25/27 13/26/28 14/24/29
f 13/26/28 15/27/30 14/24/29
f 15/27/30 16/28/31 14/24/29
f 16/28/31 17/29/32 14/24/29
f 17/29/32 12/25/27 14/24/29
s off
f 6/21/33 7/20/34 13/26/35 12/25/36
f 7/20/37 8/19/38 15/27/39 13/26/40
f 8/19/41 9/18/42 16/28/43 15/27/44
f 9/18/45 10/22/46 17/29/47 16/28/48
f 10/22/49 6/21/50 12/25/51 17/29/52
g default
v 0.908514 0.382858 -1.220716
v 0.309017 0.998627 -0.779680
v -0.309017 0.234799 -1.079367
v -0.809017 1.098117 -0.587785
v -1.000000 0.382858 0.000000
v -0.809017 0.879952 0.587785
v -0.309017 0.382858 1.461870
v 0.415799 0.913247 0.951057
v 0.917949 0.110329 0.649288
v 0.812130 0.847796 0.000000
v 0.348706 1.872748 -0.253350
v 0.133194 1.872748 -0.409929
v -0.133194 1.872748 -0.409928
v -0.348706 1.872748 -0.253350
v -0.431024 1.872748 -0.000000
v -0.348706 1.872748 0.253350
v -0.133194 1.872748 0.409928
v 0.133194 1.872748 0.409928
v 0.348706 1.872748 0.253350
v 0.431024 1.872748 -0.000000
v 0.000000 0.382858 0.000000
v 0.628588 2.085735 -0.456696
v 0.240099 1.507142 -1.005879
v -0.240099 1.962474 -0.738949
v -0.961387 1.580099 -0.456696
v -0.699896 2.079240 0.000000
v -0.877702 1.872748 0.456696
v -0.240099 1.965310 0.738950
v 0.240099 1.669826 0.969879
v 0.451795 2.244209 0.361942
v 0.892449 1.718918 -0.000000
v 0.213688 3.102546 -0.155254
v 0.081622 3.102546 -0.251205
v -0.081622 3.102546 -0.251205
v -0.213688 3.102546 -0.155254
v -0.264133 3.102546 -0.000000
v -0.213688 3.102546 0.155253
v -0.081622 3.102546 0.251205
v 0.081622 3.102546 0.251205
v 0.213688 3.102546 0.155253
v 0.264133 3.102546 -0.000000
v 0.489132 3.102546 -0.274795
v 0.303956 2.755446 -0.747374
v -0.144468 3.102546 -0.444627
v -0.630030 2.772890 -0.463541
v -0.467508 3.102546 -0.000000
v -0.378222 2.797661 0.590902
v -0.144468 3.014235 0.444627
v 0.144468 3.031263 0.764474
v 0.378222 3.102546 0.274794
v 0.877570 2.670132 -0.000000
v -0.000000 4.167653 -0.000000
vt 0.626409 0.064409
vt 0.548284 0.007647
vt 0.451716 0.007647
vt 0.373591 0.064409
vt 0.343750 0.156250
vt 0.373591 0.248091
vt 0.451716 0.304853
vt 0.548284 0.304853
vt 0.626409 0.248091
vt 0.656250 0.156250
vt 0.375000 0.312500
vt 0.400000 0.312500
vt 0.425000 0.312500
vt 0.450000 0.312500
vt 0.475000 0.312500
vt 0.500000 0.312500
vt 0.525000 0.312500
vt 0.550000 0.312500
vt 0.575000 0.312500
vt 0.600000 0.312500
vt 0.625000 0.312500
vt 0.375000 0.688440
vt 0.400000 0.688440
vt 0.425000 0.688440
vt 0.450000 0.688440
vt 0.475000 0.688440
vt 0.500000 0.688440
vt 0.525000 0.688440
vt 0.550000 0.688440
vt 0.575000 0.688440
vt 0.600000 0.688440
vt 0.625000 0.688440
vt 0.626409 0.751909
vt 0.548284 0.695147
vt 0.451716 0.695147
vt 0.373591 0.751909
vt 0.343750 0.843750
vt 0.373591 0.935591
vt 0.451716 0.992353
vt 0.548284 0.992353
vt 0.626409 0.935591
vt 0.656250 0.843750
vt 0.500000 0.150000
vt 0.500000 0.843182
vt 0.626409 0.935591
vt 0.548284 0.992353
vt 0.451716 0.992353
vt 0.373591 0.935591
vt 0.343750 0.843750
vt 0.373591 0.751909
vt 0.451716 0.695147
vt 0.548284 0.695147
vt 0.626409 0.751909
vt 0.656250 0.843750
vt 0.626409 0.935591
vt 0.548284 0.992353
vt 0.451716 0.992353
vt 0.373591 0.935591
vt 0.343750 0.843750
vt 0.373591 0.751909
vt 0.451716 0.695147
vt 0.548284 0.695147
vt 0.626409 0.751909
vt 0.656250 0.843750
vt 0.626409 0.935591
vt 0.548284 0.992353
vt 0.451716 0.992353
vt 0.373591 0.935591
vt 0.343750 0.843750
vt 0.373591 0.751909
vt 0.451716 0.695147
vt 0.548284 0.695147
vt 0.626409 0.751909
vt 0.656250 0.843750
vn 0.087561 0.510932 -0.855150
vn 0.087561 0.510932 -0.855150
vn 0.087561 0.510932 -0.855150
vn 0.087561 0.510932 -0.855150
vn -0.017021 0.382206 -0.923920
vn -0.017021 0.382206 -0.923920
vn -0.017021 0.382206 -0.923920
vn -0.017021 0.382206 -0.923920
vn -0.264574 0.429118 -0.863631
vn -0.264574 0.429118 -0.863631
vn -0.264574 0.429118 -0.863631
vn -0.264574 0.429118 -0.863631
vn -0.911994 0.407157 0.049901
vn -0.911994 0.407157 0.049901
vn -0.911994 0.407157 0.049901
vn -0.911994 0.407157 0.049901
vn -0.918349 0.389891 0.067972
vn -0.918349 0.389891 0.067972
vn -0.918349 0.389891 0.067972
vn -0.918349 0.389891 0.067972
vn -0.574551 0.506317 0.643067
vn -0.574551 0.506317 0.643067
vn -0.574551 0.506317 0.643067
vn -0.574551 0.506317 0.643067
vn 0.135364 0.544343 0.827869
vn 0.135364 0.544343 0.827869
vn 0.135364 0.544343 0.827869
vn 0.135364 0.544343 0.827869
vn 0.770290 0.409392 0.488930
vn 0.770289 0.409391 0.488930
vn 0.770290 0.409391 0.488930
vn 0.770289 0.409391 0.488930
vn 0.902707 0.344408 0.257884
vn 0.902707 0.344408 0.257884
vn 0.902707 0.344408 0.257884
vn 0.902707 0.344408 0.257884
vn 0.915541 0.386019 -0.113019
vn 0.915541 0.386019 -0.113019
vn 0.915541 0.386019 -0.113019
vn 0.915541 0.386019 -0.113019
vn -0.226337 -0.718773 -0.657372
vn -0.199595 -0.968553 -0.148548
vn -0.044671 -0.998903 -0.014077
vn -0.151822 -0.972456 0.176860
vn -0.560183 -0.802478 -0.205486
vn -0.000000 -0.980431 -0.196862
vn -0.450626 -0.883625 0.127054
vn 0.050027 -0.998692 0.010575
vn 0.211132 -0.890037 0.404052
vn -0.338660 -0.937017 0.085491
vn 0.494847 -0.864374 -0.089355
vn 0.397410 -0.846625 0.353965
vn 0.397411 -0.846625 0.353965
vn 0.397411 -0.846625 0.353965
vn 0.397411 -0.846625 0.353965
vn -0.434380 -0.863155 0.257443
vn -0.434380 -0.863155 0.257443
vn -0.434380 -0.863155 0.257443
vn -0.434381 -0.863155 0.257443
vn 0.336478 -0.936599 -0.097804
vn 0.336478 -0.936599 -0.097804
vn 0.336478 -0.936599 -0.097804
vn 0.336478 -0.936599 -0.097804
vn -0.055419 -0.810199 0.583529
vn -0.055419 -0.810199 0.583529
vn -0.055419 -0.810199 0.583529
vn -0.055419 -0.810199 0.583529
vn -0.310520 -0.900743 -0.303709
vn -0.310520 -0.900743 -0.303709
vn -0.310520 -0.900743 -0.303709
vn -0.310520 -0.900743 -0.303709
vn 0.011604 -0.982722 0.184726
vn 0.011604 -0.982722 0.184726
vn 0.011604 -0.982722 0.184726
vn 0.011604 -0.982722 0.184726
vn -0.334259 -0.935302 -0.116111
vn -0.334259 -0.935302 -0.116111
vn -0.334259 -0.935302 -0.116111
vn -0.334259 -0.935302 -0.116111
vn 0.752543 -0.654668 -0.071337
vn 0.752543 -0.654668 -0.071337
vn 0.752543 -0.654668 -0.071337
vn 0.752543 -0.654668 -0.071337
vn 0.132286 -0.695521 0.706223
vn 0.132286 -0.695521 0.706223
vn 0.132286 -0.695521 0.706223
vn 0.132286 -0.695521 0.706223
vn -0.048977 -0.896917 -0.439479
vn -0.048977 -0.896917 -0.439479
vn -0.048977 -0.896917 -0.439479
vn -0.048977 -0.896917 -0.439479
vn 0.487203 0.417129 -0.767226
vn 0.487203 0.417129 -0.767226
vn 0.487203 0.417129 -0.767226
vn 0.487203 0.417129 -0.767226
vn -0.084771 0.412044 -0.907212
vn -0.084771 0.412044 -0.907212
vn -0.084771 0.412044 -0.907212
vn -0.084771 0.412044 -0.907212
vn -0.515187 0.400018 -0.758002
vn -0.515187 0.400018 -0.758002
vn -0.515187 0.400018 -0.758002
vn -0.515187 0.400018 -0.758002
vn -0.904708 0.424646 -0.034355
vn -0.904708 0.424646 -0.034355
vn -0.904708 0.424646 -0.034355
vn -0.904708 0.424646 -0.034355
vn -0.900053 0.433855 -0.040925
vn -0.900053 0.433855 -0.040925
vn -0.900053 0.433855 -0.040925
vn -0.900053 0.433855 -0.040925
vn -0.440642 0.417983 0.794434
vn -0.440642 0.417983 0.794434
vn -0.440642 0.417983 0.794434
vn -0.440642 0.417983 0.794434
vn -0.128661 0.421408 0.897698
vn -0.128661 0.421408 0.897698
vn -0.128661 0.421408 0.897698
vn -0.128661 0.421408 0.897698
vn 0.676167 0.373537 0.635034
vn 0.676167 0.373537 0.635034
vn 0.676167 0.373537 0.635034
vn 0.676167 0.373537 0.635034
vn 0.831235 0.360269 0.423386
vn 0.831235 0.360269 0.423386
vn 0.831235 0.360269 0.423386
vn 0.831235 0.360269 0.423386
vn 0.887061 0.411733 -0.208805
vn 0.887061 0.411733 -0.208805
vn 0.887061 0.411733 -0.208805
vn 0.887061 0.411733 -0.208805
vn 0.029454 -0.860361 0.508833
vn 0.029454 -0.860362 0.508833
vn 0.029454 -0.860361 0.508833
vn 0.029454 -0.860361 0.508833
vn -0.314589 -0.875109 0.367722
vn -0.314589 -0.875109 0.367722
vn -0.314589 -0.875109 0.367722
vn -0.314589 -0.875109 0.367722
vn 0.478854 -0.870390 0.114544
vn 0.478854 -0.870390 0.114544
vn 0.478854 -0.870390 0.114544
vn 0.478854 -0.870390 0.114544
vn 0.255716 -0.871683 0.418065
vn 0.255716 -0.871683 0.418065
vn 0.255716 -0.871683 0.418064
vn 0.255716 -0.871683 0.418065
vn 0.248267 -0.879557 -0.405886
vn 0.248267 -0.879557 -0.405886
vn 0.248267 -0.879557 -0.405886
vn 0.248267 -0.879557 -0.405886
vn 0.439112 -0.824594 -0.356688
vn 0.439112 -0.824594 -0.356688
vn 0.439112 -0.824594 -0.356688
vn 0.439112 -0.824594 -0.356688
vn 0.189076 -0.957841 -0.216312
vn 0.189076 -0.957841 -0.216312
vn 0.189076 -0.957841 -0.216312
vn 0.189076 -0.957841 -0.216312
vn 0.009161 -0.993302 -0.115182
vn 0.009161 -0.993302 -0.115182
vn 0.009161 -0.993302 -0.115182
vn 0.009161 -0.993302 -0.115182
vn -0.499411 -0.841188 0.207345
vn -0.499411 -0.841188 0.207345
vn -0.499411 -0.841188 0.207345
vn -0.499411 -0.841188 0.207345
vn -0.446471 -0.816717 -0.365565
vn -0.446471 -0.816717 -0.365565
vn -0.446471 -0.816717 -0.365565
vn -0.446471 -0.816717 -0.365565
vn 0.661219 0.457120 -0.594837
vn 0.661219 0.457120 -0.594837
vn 0.661219 0.457120 -0.594837
vn -0.277942 0.401912 -0.872476
vn -0.277942 0.401912 -0.872476
vn -0.277942 0.401912 -0.872476
vn -0.238121 0.401477 -0.884372
vn -0.238121 0.401477 -0.884372
vn -0.238121 0.401477 -0.884372
vn -0.915109 0.401669 0.035191
vn -0.915109 0.401669 0.035191
vn -0.915108 0.401669 0.035191
vn -0.865412 0.379856 0.326758
vn -0.865413 0.379856 0.326758
vn -0.865412 0.379856 0.326758
vn 0.275902 0.315445 0.907950
vn 0.275902 0.315445 0.907950
vn 0.275902 0.315445 0.907950
vn -0.709363 0.329117 0.623287
vn -0.709363 0.329117 0.623287
vn -0.709363 0.329118 0.623286
vn 0.803452 0.399254 0.441657
vn 0.803452 0.399254 0.441657
vn 0.803452 0.399254 0.441657
vn 0.682871 0.400173 0.611186
vn 0.682871 0.400173 0.611186
vn 0.682871 0.400173 0.611186
vn 0.794326 0.465488 -0.390342
vn 0.794326 0.465488 -0.390342
vn 0.794326 0.465488 -0.390342
s off
g leaves
f 18/40/53 19/41/54 29/52/55 28/51/56
f 19/41/57 20/42/58 30/53/59 29/52/60
f 20/42/61 21/43/62 31/54/63 30/53/64
f 21/43/65 22/44/66 32/55/67 31/54/68
f 22/44/69 23/45/70 33/56/71 32/55/72
f 23/45/73 24/46/74 34/57/75 33/56/76
f 24/46/77 25/47/78 35/58/79 34/57/80
f 25/47/81 26/48/82 36/59/83 35/58/84
f 26/48/85 27/49/86 37/60/87 36/59/88
f 27/49/89 18/50/90 28/61/91 37/60/92
s 1
f 19/31/93 18/30/94 38/72/95
f 20/32/96 19/31/93 38/72/95
f 21/33/97 20/32/96 38/72/95
f 22/34/98 21/33/97 38/72/95
f 23/35/99 22/34/98 38/72/95
f 24/36/100 23/35/99 38/72/95
f 25/37/101 24/36/100 38/72/95
f 26/38/102 25/37/101 38/72/95
f 27/39/103 26/38/102 38/72/95
f 18/30/94 27/39/103 38/72/95
s off
f 28/70/104 29/69/105 40/75/106 39/74/107
f 29/69/108 30/68/109 41/76/110 40/75/111
f 30/68/112 31/67/113 42/77/114 41/76/115
f 31/67/116 32/66/117 43/78/118 42/77/119
f 32/66/120 33/65/121 44/79/122 43/78/123
f 33/65/124 34/64/125 45/80/126 44/79/127
f 34/64/128 35/63/129 46/81/130 45/80/131
f 35/63/132 36/62/133 47/82/134 46/81/135
f 36/62/136 37/71/137 48/83/138 47/82/139
f 37/71/140 28/70/141 39/74/142 48/83/143
f 39/74/144 40/75/145 50/85/146 49/84/147
f 40/75/148 41/76/149 51/86/150 50/85/151
f 41/76/152 42/77/153 52/87/154 51/86/155
f 42/77/156 43/78/157 53/88/158 52/87/159
f 43/78/160 44/79/161 54/89/162 53/88/163
f 44/79/164 45/80/165 55/90/166 54/89/167
f 45/80/168 46/81/169 56/91/170 55/90/171
f 46/81/172 47/82/173 57/92/174 56/91/175
f 47/82/176 48/83/177 58/93/178 57/92/179
f 48/83/180 39/74/181 49/84/182 58/93/183
f 49/84/184 50/85/185 60/95/186 59/94/187
f 50/85/188 51/86/189 61/96/190 60/95/191
f 51/86/192 52/87/193 62/97/194 61/96/195
f 52/87/196 53/88/197 63/98/198 62/97/199
f 53/88/200 54/89/201 64/99/202 63/98/203
f 54/89/204 55/90/205 65/100/206 64/99/207
f 55/90/208 56/91/209 66/101/210 65/100/211
f 56/91/212 57/92/213 67/102/214 66/101/215
f 57/92/216 58/93/217 68/103/218 67/102/219
f 58/93/220 49/84/221 59/94/222 68/103/223
f 59/94/224 60/95/225 69/73/226
f 60/95/227 61/96/228 69/73/229
f 61/96/230 62/97/231 69/73/232
f 62/97/233 63/98/234 69/73/235
f 63/98/236 64/99/237 69/73/238
f 64/99/239 65/100/240 69/73/241
f 65/100/242 66/101/243 69/73/244
f 66/101/245 67/102/246 69/73/247
f 67/102/248 68/103/249 69/73/250
f 68/103/251 59/94/252 69/73/253
